G04 #@! TF.GenerationSoftware,KiCad,Pcbnew,(5.1.2)-1*
G04 #@! TF.CreationDate,2019-05-14T16:23:27-07:00*
G04 #@! TF.ProjectId,triumph_main,74726975-6d70-4685-9f6d-61696e2e6b69,A*
G04 #@! TF.SameCoordinates,Original*
G04 #@! TF.FileFunction,Copper,L1,Top*
G04 #@! TF.FilePolarity,Positive*
%FSLAX46Y46*%
G04 Gerber Fmt 4.6, Leading zero omitted, Abs format (unit mm)*
G04 Created by KiCad (PCBNEW (5.1.2)-1) date 2019-05-14 16:23:27*
%MOMM*%
%LPD*%
G04 APERTURE LIST*
%ADD10O,2.400000X1.600000*%
%ADD11R,2.400000X1.600000*%
%ADD12C,0.100000*%
%ADD13C,1.200000*%
%ADD14O,1.200000X1.750000*%
%ADD15C,3.810000*%
%ADD16C,1.800000*%
%ADD17C,5.500000*%
%ADD18R,1.400000X1.550000*%
%ADD19R,1.200000X1.500000*%
%ADD20C,1.600000*%
%ADD21R,1.600000X1.600000*%
%ADD22R,1.550000X1.400000*%
%ADD23C,1.440000*%
%ADD24R,1.500000X1.500000*%
%ADD25C,1.500000*%
%ADD26C,0.300000*%
%ADD27O,1.700000X1.950000*%
%ADD28C,1.700000*%
%ADD29O,1.750000X1.200000*%
%ADD30C,1.016000*%
%ADD31C,1.524000*%
%ADD32C,0.762000*%
%ADD33C,0.762000*%
%ADD34C,1.270000*%
%ADD35C,0.254000*%
%ADD36C,0.381000*%
%ADD37C,0.508000*%
G04 APERTURE END LIST*
D10*
X173736000Y-83566000D03*
X166116000Y-91186000D03*
X173736000Y-86106000D03*
X166116000Y-88646000D03*
X173736000Y-88646000D03*
X166116000Y-86106000D03*
X173736000Y-91186000D03*
D11*
X166116000Y-83566000D03*
D12*
G36*
X115880505Y-139207204D02*
G01*
X115904773Y-139210804D01*
X115928572Y-139216765D01*
X115951671Y-139225030D01*
X115973850Y-139235520D01*
X115994893Y-139248132D01*
X116014599Y-139262747D01*
X116032777Y-139279223D01*
X116049253Y-139297401D01*
X116063868Y-139317107D01*
X116076480Y-139338150D01*
X116086970Y-139360329D01*
X116095235Y-139383428D01*
X116101196Y-139407227D01*
X116104796Y-139431495D01*
X116106000Y-139455999D01*
X116106000Y-140706001D01*
X116104796Y-140730505D01*
X116101196Y-140754773D01*
X116095235Y-140778572D01*
X116086970Y-140801671D01*
X116076480Y-140823850D01*
X116063868Y-140844893D01*
X116049253Y-140864599D01*
X116032777Y-140882777D01*
X116014599Y-140899253D01*
X115994893Y-140913868D01*
X115973850Y-140926480D01*
X115951671Y-140936970D01*
X115928572Y-140945235D01*
X115904773Y-140951196D01*
X115880505Y-140954796D01*
X115856001Y-140956000D01*
X115155999Y-140956000D01*
X115131495Y-140954796D01*
X115107227Y-140951196D01*
X115083428Y-140945235D01*
X115060329Y-140936970D01*
X115038150Y-140926480D01*
X115017107Y-140913868D01*
X114997401Y-140899253D01*
X114979223Y-140882777D01*
X114962747Y-140864599D01*
X114948132Y-140844893D01*
X114935520Y-140823850D01*
X114925030Y-140801671D01*
X114916765Y-140778572D01*
X114910804Y-140754773D01*
X114907204Y-140730505D01*
X114906000Y-140706001D01*
X114906000Y-139455999D01*
X114907204Y-139431495D01*
X114910804Y-139407227D01*
X114916765Y-139383428D01*
X114925030Y-139360329D01*
X114935520Y-139338150D01*
X114948132Y-139317107D01*
X114962747Y-139297401D01*
X114979223Y-139279223D01*
X114997401Y-139262747D01*
X115017107Y-139248132D01*
X115038150Y-139235520D01*
X115060329Y-139225030D01*
X115083428Y-139216765D01*
X115107227Y-139210804D01*
X115131495Y-139207204D01*
X115155999Y-139206000D01*
X115856001Y-139206000D01*
X115880505Y-139207204D01*
X115880505Y-139207204D01*
G37*
D13*
X115506000Y-140081000D03*
D14*
X113506000Y-140081000D03*
X111506000Y-140081000D03*
D15*
X169936000Y-138656000D03*
X177536000Y-138656000D03*
D16*
X173736000Y-130856000D03*
D17*
X188976000Y-138176000D03*
X100076000Y-138176000D03*
X188976000Y-61976000D03*
X100076000Y-61976000D03*
D18*
X124206000Y-69321000D03*
X124206000Y-71771000D03*
X116651000Y-69321000D03*
X116651000Y-71771000D03*
X120396000Y-69321000D03*
X120396000Y-71771000D03*
X112651000Y-69321000D03*
X112651000Y-71771000D03*
D19*
X153416000Y-89636000D03*
X153416000Y-93536000D03*
X153416000Y-84736000D03*
X153416000Y-80836000D03*
D20*
X149066000Y-70866000D03*
D21*
X147066000Y-70866000D03*
D20*
X141986000Y-70866000D03*
D21*
X139986000Y-70866000D03*
D22*
X162306000Y-128016000D03*
X164756000Y-128016000D03*
X157816000Y-68326000D03*
X155366000Y-68326000D03*
D18*
X140716000Y-120396000D03*
X140716000Y-117946000D03*
D22*
X136996000Y-124206000D03*
X139446000Y-124206000D03*
D18*
X135636000Y-128106000D03*
X135636000Y-130556000D03*
D22*
X124116000Y-134366000D03*
X121666000Y-134366000D03*
X126746000Y-116586000D03*
X124296000Y-116586000D03*
X166116000Y-108966000D03*
X168566000Y-108966000D03*
X122846000Y-108966000D03*
X120396000Y-108966000D03*
X148336000Y-93536000D03*
X145886000Y-93536000D03*
X145796000Y-80836000D03*
X148246000Y-80836000D03*
D18*
X180086000Y-86106000D03*
X180086000Y-83656000D03*
D22*
X171196000Y-78486000D03*
X168746000Y-78486000D03*
D18*
X110236000Y-82386000D03*
X110236000Y-84836000D03*
D22*
X119126000Y-78486000D03*
X121576000Y-78486000D03*
X168746000Y-74676000D03*
X171196000Y-74676000D03*
D18*
X110236000Y-89916000D03*
X110236000Y-92366000D03*
D10*
X154686000Y-121666000D03*
X147066000Y-129286000D03*
X154686000Y-124206000D03*
X147066000Y-126746000D03*
X154686000Y-126746000D03*
X147066000Y-124206000D03*
X154686000Y-129286000D03*
D11*
X147066000Y-121666000D03*
D10*
X129286000Y-121666000D03*
X121666000Y-129286000D03*
X129286000Y-124206000D03*
X121666000Y-126746000D03*
X129286000Y-126746000D03*
X121666000Y-124206000D03*
X129286000Y-129286000D03*
D11*
X121666000Y-121666000D03*
D10*
X148336000Y-102616000D03*
X140716000Y-110236000D03*
X148336000Y-105156000D03*
X140716000Y-107696000D03*
X148336000Y-107696000D03*
X140716000Y-105156000D03*
X148336000Y-110236000D03*
D11*
X140716000Y-102616000D03*
D10*
X124206000Y-83566000D03*
X116586000Y-91186000D03*
X124206000Y-86106000D03*
X116586000Y-88646000D03*
X124206000Y-88646000D03*
X116586000Y-86106000D03*
X124206000Y-91186000D03*
D11*
X116586000Y-83566000D03*
D23*
X109601000Y-125476000D03*
X109601000Y-122936000D03*
X109601000Y-120396000D03*
X158496000Y-108966000D03*
X158496000Y-106426000D03*
X158496000Y-103886000D03*
X130556000Y-108966000D03*
X130556000Y-106426000D03*
X130556000Y-103886000D03*
X136906000Y-89726000D03*
X136906000Y-87186000D03*
X136906000Y-84646000D03*
X101346000Y-89789000D03*
X101346000Y-87249000D03*
X101346000Y-84709000D03*
D24*
X145796000Y-84646000D03*
D25*
X145796000Y-89726000D03*
X145796000Y-87186000D03*
D26*
X167386000Y-102436000D03*
D12*
G36*
X167386000Y-103436000D02*
G01*
X166636000Y-102936000D01*
X166636000Y-101936000D01*
X168136000Y-101936000D01*
X168136000Y-102936000D01*
X167386000Y-103436000D01*
X167386000Y-103436000D01*
G37*
D26*
X167386000Y-103886000D03*
D12*
G36*
X166636000Y-104386000D02*
G01*
X166636000Y-103236000D01*
X167386000Y-103736000D01*
X168136000Y-103236000D01*
X168136000Y-104386000D01*
X166636000Y-104386000D01*
X166636000Y-104386000D01*
G37*
D26*
X121666000Y-102436000D03*
D12*
G36*
X121666000Y-103436000D02*
G01*
X120916000Y-102936000D01*
X120916000Y-101936000D01*
X122416000Y-101936000D01*
X122416000Y-102936000D01*
X121666000Y-103436000D01*
X121666000Y-103436000D01*
G37*
D26*
X121666000Y-103886000D03*
D12*
G36*
X120916000Y-104386000D02*
G01*
X120916000Y-103236000D01*
X121666000Y-103736000D01*
X122416000Y-103236000D01*
X122416000Y-104386000D01*
X120916000Y-104386000D01*
X120916000Y-104386000D01*
G37*
D27*
X171076000Y-60706000D03*
X168576000Y-60706000D03*
X166076000Y-60706000D03*
D12*
G36*
X164200504Y-59732204D02*
G01*
X164224773Y-59735804D01*
X164248571Y-59741765D01*
X164271671Y-59750030D01*
X164293849Y-59760520D01*
X164314893Y-59773133D01*
X164334598Y-59787747D01*
X164352777Y-59804223D01*
X164369253Y-59822402D01*
X164383867Y-59842107D01*
X164396480Y-59863151D01*
X164406970Y-59885329D01*
X164415235Y-59908429D01*
X164421196Y-59932227D01*
X164424796Y-59956496D01*
X164426000Y-59981000D01*
X164426000Y-61431000D01*
X164424796Y-61455504D01*
X164421196Y-61479773D01*
X164415235Y-61503571D01*
X164406970Y-61526671D01*
X164396480Y-61548849D01*
X164383867Y-61569893D01*
X164369253Y-61589598D01*
X164352777Y-61607777D01*
X164334598Y-61624253D01*
X164314893Y-61638867D01*
X164293849Y-61651480D01*
X164271671Y-61661970D01*
X164248571Y-61670235D01*
X164224773Y-61676196D01*
X164200504Y-61679796D01*
X164176000Y-61681000D01*
X162976000Y-61681000D01*
X162951496Y-61679796D01*
X162927227Y-61676196D01*
X162903429Y-61670235D01*
X162880329Y-61661970D01*
X162858151Y-61651480D01*
X162837107Y-61638867D01*
X162817402Y-61624253D01*
X162799223Y-61607777D01*
X162782747Y-61589598D01*
X162768133Y-61569893D01*
X162755520Y-61548849D01*
X162745030Y-61526671D01*
X162736765Y-61503571D01*
X162730804Y-61479773D01*
X162727204Y-61455504D01*
X162726000Y-61431000D01*
X162726000Y-59981000D01*
X162727204Y-59956496D01*
X162730804Y-59932227D01*
X162736765Y-59908429D01*
X162745030Y-59885329D01*
X162755520Y-59863151D01*
X162768133Y-59842107D01*
X162782747Y-59822402D01*
X162799223Y-59804223D01*
X162817402Y-59787747D01*
X162837107Y-59773133D01*
X162858151Y-59760520D01*
X162880329Y-59750030D01*
X162903429Y-59741765D01*
X162927227Y-59735804D01*
X162951496Y-59732204D01*
X162976000Y-59731000D01*
X164176000Y-59731000D01*
X164200504Y-59732204D01*
X164200504Y-59732204D01*
G37*
D28*
X163576000Y-60706000D03*
D29*
X98171000Y-123771000D03*
X98171000Y-125771000D03*
D12*
G36*
X98820505Y-127172204D02*
G01*
X98844773Y-127175804D01*
X98868572Y-127181765D01*
X98891671Y-127190030D01*
X98913850Y-127200520D01*
X98934893Y-127213132D01*
X98954599Y-127227747D01*
X98972777Y-127244223D01*
X98989253Y-127262401D01*
X99003868Y-127282107D01*
X99016480Y-127303150D01*
X99026970Y-127325329D01*
X99035235Y-127348428D01*
X99041196Y-127372227D01*
X99044796Y-127396495D01*
X99046000Y-127420999D01*
X99046000Y-128121001D01*
X99044796Y-128145505D01*
X99041196Y-128169773D01*
X99035235Y-128193572D01*
X99026970Y-128216671D01*
X99016480Y-128238850D01*
X99003868Y-128259893D01*
X98989253Y-128279599D01*
X98972777Y-128297777D01*
X98954599Y-128314253D01*
X98934893Y-128328868D01*
X98913850Y-128341480D01*
X98891671Y-128351970D01*
X98868572Y-128360235D01*
X98844773Y-128366196D01*
X98820505Y-128369796D01*
X98796001Y-128371000D01*
X97545999Y-128371000D01*
X97521495Y-128369796D01*
X97497227Y-128366196D01*
X97473428Y-128360235D01*
X97450329Y-128351970D01*
X97428150Y-128341480D01*
X97407107Y-128328868D01*
X97387401Y-128314253D01*
X97369223Y-128297777D01*
X97352747Y-128279599D01*
X97338132Y-128259893D01*
X97325520Y-128238850D01*
X97315030Y-128216671D01*
X97306765Y-128193572D01*
X97300804Y-128169773D01*
X97297204Y-128145505D01*
X97296000Y-128121001D01*
X97296000Y-127420999D01*
X97297204Y-127396495D01*
X97300804Y-127372227D01*
X97306765Y-127348428D01*
X97315030Y-127325329D01*
X97325520Y-127303150D01*
X97338132Y-127282107D01*
X97352747Y-127262401D01*
X97369223Y-127244223D01*
X97387401Y-127227747D01*
X97407107Y-127213132D01*
X97428150Y-127200520D01*
X97450329Y-127190030D01*
X97473428Y-127181765D01*
X97497227Y-127175804D01*
X97521495Y-127172204D01*
X97545999Y-127171000D01*
X98796001Y-127171000D01*
X98820505Y-127172204D01*
X98820505Y-127172204D01*
G37*
D13*
X98171000Y-127771000D03*
D14*
X126586000Y-60071000D03*
X124586000Y-60071000D03*
X122586000Y-60071000D03*
X120586000Y-60071000D03*
X118586000Y-60071000D03*
D12*
G36*
X116960505Y-59197204D02*
G01*
X116984773Y-59200804D01*
X117008572Y-59206765D01*
X117031671Y-59215030D01*
X117053850Y-59225520D01*
X117074893Y-59238132D01*
X117094599Y-59252747D01*
X117112777Y-59269223D01*
X117129253Y-59287401D01*
X117143868Y-59307107D01*
X117156480Y-59328150D01*
X117166970Y-59350329D01*
X117175235Y-59373428D01*
X117181196Y-59397227D01*
X117184796Y-59421495D01*
X117186000Y-59445999D01*
X117186000Y-60696001D01*
X117184796Y-60720505D01*
X117181196Y-60744773D01*
X117175235Y-60768572D01*
X117166970Y-60791671D01*
X117156480Y-60813850D01*
X117143868Y-60834893D01*
X117129253Y-60854599D01*
X117112777Y-60872777D01*
X117094599Y-60889253D01*
X117074893Y-60903868D01*
X117053850Y-60916480D01*
X117031671Y-60926970D01*
X117008572Y-60935235D01*
X116984773Y-60941196D01*
X116960505Y-60944796D01*
X116936001Y-60946000D01*
X116235999Y-60946000D01*
X116211495Y-60944796D01*
X116187227Y-60941196D01*
X116163428Y-60935235D01*
X116140329Y-60926970D01*
X116118150Y-60916480D01*
X116097107Y-60903868D01*
X116077401Y-60889253D01*
X116059223Y-60872777D01*
X116042747Y-60854599D01*
X116028132Y-60834893D01*
X116015520Y-60813850D01*
X116005030Y-60791671D01*
X115996765Y-60768572D01*
X115990804Y-60744773D01*
X115987204Y-60720505D01*
X115986000Y-60696001D01*
X115986000Y-59445999D01*
X115987204Y-59421495D01*
X115990804Y-59397227D01*
X115996765Y-59373428D01*
X116005030Y-59350329D01*
X116015520Y-59328150D01*
X116028132Y-59307107D01*
X116042747Y-59287401D01*
X116059223Y-59269223D01*
X116077401Y-59252747D01*
X116097107Y-59238132D01*
X116118150Y-59225520D01*
X116140329Y-59215030D01*
X116163428Y-59206765D01*
X116187227Y-59200804D01*
X116211495Y-59197204D01*
X116235999Y-59196000D01*
X116936001Y-59196000D01*
X116960505Y-59197204D01*
X116960505Y-59197204D01*
G37*
D13*
X116586000Y-60071000D03*
D29*
X190881000Y-127771000D03*
X190881000Y-125771000D03*
D12*
G36*
X191530505Y-123172204D02*
G01*
X191554773Y-123175804D01*
X191578572Y-123181765D01*
X191601671Y-123190030D01*
X191623850Y-123200520D01*
X191644893Y-123213132D01*
X191664599Y-123227747D01*
X191682777Y-123244223D01*
X191699253Y-123262401D01*
X191713868Y-123282107D01*
X191726480Y-123303150D01*
X191736970Y-123325329D01*
X191745235Y-123348428D01*
X191751196Y-123372227D01*
X191754796Y-123396495D01*
X191756000Y-123420999D01*
X191756000Y-124121001D01*
X191754796Y-124145505D01*
X191751196Y-124169773D01*
X191745235Y-124193572D01*
X191736970Y-124216671D01*
X191726480Y-124238850D01*
X191713868Y-124259893D01*
X191699253Y-124279599D01*
X191682777Y-124297777D01*
X191664599Y-124314253D01*
X191644893Y-124328868D01*
X191623850Y-124341480D01*
X191601671Y-124351970D01*
X191578572Y-124360235D01*
X191554773Y-124366196D01*
X191530505Y-124369796D01*
X191506001Y-124371000D01*
X190255999Y-124371000D01*
X190231495Y-124369796D01*
X190207227Y-124366196D01*
X190183428Y-124360235D01*
X190160329Y-124351970D01*
X190138150Y-124341480D01*
X190117107Y-124328868D01*
X190097401Y-124314253D01*
X190079223Y-124297777D01*
X190062747Y-124279599D01*
X190048132Y-124259893D01*
X190035520Y-124238850D01*
X190025030Y-124216671D01*
X190016765Y-124193572D01*
X190010804Y-124169773D01*
X190007204Y-124145505D01*
X190006000Y-124121001D01*
X190006000Y-123420999D01*
X190007204Y-123396495D01*
X190010804Y-123372227D01*
X190016765Y-123348428D01*
X190025030Y-123325329D01*
X190035520Y-123303150D01*
X190048132Y-123282107D01*
X190062747Y-123262401D01*
X190079223Y-123244223D01*
X190097401Y-123227747D01*
X190117107Y-123213132D01*
X190138150Y-123200520D01*
X190160329Y-123190030D01*
X190183428Y-123181765D01*
X190207227Y-123175804D01*
X190231495Y-123172204D01*
X190255999Y-123171000D01*
X191506001Y-123171000D01*
X191530505Y-123172204D01*
X191530505Y-123172204D01*
G37*
D13*
X190881000Y-123771000D03*
D29*
X98171000Y-101506000D03*
X98171000Y-103506000D03*
X98171000Y-105506000D03*
X98171000Y-107506000D03*
X98171000Y-109506000D03*
D12*
G36*
X98820505Y-110907204D02*
G01*
X98844773Y-110910804D01*
X98868572Y-110916765D01*
X98891671Y-110925030D01*
X98913850Y-110935520D01*
X98934893Y-110948132D01*
X98954599Y-110962747D01*
X98972777Y-110979223D01*
X98989253Y-110997401D01*
X99003868Y-111017107D01*
X99016480Y-111038150D01*
X99026970Y-111060329D01*
X99035235Y-111083428D01*
X99041196Y-111107227D01*
X99044796Y-111131495D01*
X99046000Y-111155999D01*
X99046000Y-111856001D01*
X99044796Y-111880505D01*
X99041196Y-111904773D01*
X99035235Y-111928572D01*
X99026970Y-111951671D01*
X99016480Y-111973850D01*
X99003868Y-111994893D01*
X98989253Y-112014599D01*
X98972777Y-112032777D01*
X98954599Y-112049253D01*
X98934893Y-112063868D01*
X98913850Y-112076480D01*
X98891671Y-112086970D01*
X98868572Y-112095235D01*
X98844773Y-112101196D01*
X98820505Y-112104796D01*
X98796001Y-112106000D01*
X97545999Y-112106000D01*
X97521495Y-112104796D01*
X97497227Y-112101196D01*
X97473428Y-112095235D01*
X97450329Y-112086970D01*
X97428150Y-112076480D01*
X97407107Y-112063868D01*
X97387401Y-112049253D01*
X97369223Y-112032777D01*
X97352747Y-112014599D01*
X97338132Y-111994893D01*
X97325520Y-111973850D01*
X97315030Y-111951671D01*
X97306765Y-111928572D01*
X97300804Y-111904773D01*
X97297204Y-111880505D01*
X97296000Y-111856001D01*
X97296000Y-111155999D01*
X97297204Y-111131495D01*
X97300804Y-111107227D01*
X97306765Y-111083428D01*
X97315030Y-111060329D01*
X97325520Y-111038150D01*
X97338132Y-111017107D01*
X97352747Y-110997401D01*
X97369223Y-110979223D01*
X97387401Y-110962747D01*
X97407107Y-110948132D01*
X97428150Y-110935520D01*
X97450329Y-110925030D01*
X97473428Y-110916765D01*
X97497227Y-110910804D01*
X97521495Y-110907204D01*
X97545999Y-110906000D01*
X98796001Y-110906000D01*
X98820505Y-110907204D01*
X98820505Y-110907204D01*
G37*
D13*
X98171000Y-111506000D03*
D29*
X190881000Y-75996000D03*
X190881000Y-73996000D03*
D12*
G36*
X191530505Y-71397204D02*
G01*
X191554773Y-71400804D01*
X191578572Y-71406765D01*
X191601671Y-71415030D01*
X191623850Y-71425520D01*
X191644893Y-71438132D01*
X191664599Y-71452747D01*
X191682777Y-71469223D01*
X191699253Y-71487401D01*
X191713868Y-71507107D01*
X191726480Y-71528150D01*
X191736970Y-71550329D01*
X191745235Y-71573428D01*
X191751196Y-71597227D01*
X191754796Y-71621495D01*
X191756000Y-71645999D01*
X191756000Y-72346001D01*
X191754796Y-72370505D01*
X191751196Y-72394773D01*
X191745235Y-72418572D01*
X191736970Y-72441671D01*
X191726480Y-72463850D01*
X191713868Y-72484893D01*
X191699253Y-72504599D01*
X191682777Y-72522777D01*
X191664599Y-72539253D01*
X191644893Y-72553868D01*
X191623850Y-72566480D01*
X191601671Y-72576970D01*
X191578572Y-72585235D01*
X191554773Y-72591196D01*
X191530505Y-72594796D01*
X191506001Y-72596000D01*
X190255999Y-72596000D01*
X190231495Y-72594796D01*
X190207227Y-72591196D01*
X190183428Y-72585235D01*
X190160329Y-72576970D01*
X190138150Y-72566480D01*
X190117107Y-72553868D01*
X190097401Y-72539253D01*
X190079223Y-72522777D01*
X190062747Y-72504599D01*
X190048132Y-72484893D01*
X190035520Y-72463850D01*
X190025030Y-72441671D01*
X190016765Y-72418572D01*
X190010804Y-72394773D01*
X190007204Y-72370505D01*
X190006000Y-72346001D01*
X190006000Y-71645999D01*
X190007204Y-71621495D01*
X190010804Y-71597227D01*
X190016765Y-71573428D01*
X190025030Y-71550329D01*
X190035520Y-71528150D01*
X190048132Y-71507107D01*
X190062747Y-71487401D01*
X190079223Y-71469223D01*
X190097401Y-71452747D01*
X190117107Y-71438132D01*
X190138150Y-71425520D01*
X190160329Y-71415030D01*
X190183428Y-71406765D01*
X190207227Y-71400804D01*
X190231495Y-71397204D01*
X190255999Y-71396000D01*
X191506001Y-71396000D01*
X191530505Y-71397204D01*
X191530505Y-71397204D01*
G37*
D13*
X190881000Y-71996000D03*
D29*
X98171000Y-71946000D03*
X98171000Y-73946000D03*
D12*
G36*
X98820505Y-75347204D02*
G01*
X98844773Y-75350804D01*
X98868572Y-75356765D01*
X98891671Y-75365030D01*
X98913850Y-75375520D01*
X98934893Y-75388132D01*
X98954599Y-75402747D01*
X98972777Y-75419223D01*
X98989253Y-75437401D01*
X99003868Y-75457107D01*
X99016480Y-75478150D01*
X99026970Y-75500329D01*
X99035235Y-75523428D01*
X99041196Y-75547227D01*
X99044796Y-75571495D01*
X99046000Y-75595999D01*
X99046000Y-76296001D01*
X99044796Y-76320505D01*
X99041196Y-76344773D01*
X99035235Y-76368572D01*
X99026970Y-76391671D01*
X99016480Y-76413850D01*
X99003868Y-76434893D01*
X98989253Y-76454599D01*
X98972777Y-76472777D01*
X98954599Y-76489253D01*
X98934893Y-76503868D01*
X98913850Y-76516480D01*
X98891671Y-76526970D01*
X98868572Y-76535235D01*
X98844773Y-76541196D01*
X98820505Y-76544796D01*
X98796001Y-76546000D01*
X97545999Y-76546000D01*
X97521495Y-76544796D01*
X97497227Y-76541196D01*
X97473428Y-76535235D01*
X97450329Y-76526970D01*
X97428150Y-76516480D01*
X97407107Y-76503868D01*
X97387401Y-76489253D01*
X97369223Y-76472777D01*
X97352747Y-76454599D01*
X97338132Y-76434893D01*
X97325520Y-76413850D01*
X97315030Y-76391671D01*
X97306765Y-76368572D01*
X97300804Y-76344773D01*
X97297204Y-76320505D01*
X97296000Y-76296001D01*
X97296000Y-75595999D01*
X97297204Y-75571495D01*
X97300804Y-75547227D01*
X97306765Y-75523428D01*
X97315030Y-75500329D01*
X97325520Y-75478150D01*
X97338132Y-75457107D01*
X97352747Y-75437401D01*
X97369223Y-75419223D01*
X97387401Y-75402747D01*
X97407107Y-75388132D01*
X97428150Y-75375520D01*
X97450329Y-75365030D01*
X97473428Y-75356765D01*
X97497227Y-75350804D01*
X97521495Y-75347204D01*
X97545999Y-75346000D01*
X98796001Y-75346000D01*
X98820505Y-75347204D01*
X98820505Y-75347204D01*
G37*
D13*
X98171000Y-75946000D03*
D27*
X148336000Y-60706000D03*
X145836000Y-60706000D03*
X143336000Y-60706000D03*
D12*
G36*
X141460504Y-59732204D02*
G01*
X141484773Y-59735804D01*
X141508571Y-59741765D01*
X141531671Y-59750030D01*
X141553849Y-59760520D01*
X141574893Y-59773133D01*
X141594598Y-59787747D01*
X141612777Y-59804223D01*
X141629253Y-59822402D01*
X141643867Y-59842107D01*
X141656480Y-59863151D01*
X141666970Y-59885329D01*
X141675235Y-59908429D01*
X141681196Y-59932227D01*
X141684796Y-59956496D01*
X141686000Y-59981000D01*
X141686000Y-61431000D01*
X141684796Y-61455504D01*
X141681196Y-61479773D01*
X141675235Y-61503571D01*
X141666970Y-61526671D01*
X141656480Y-61548849D01*
X141643867Y-61569893D01*
X141629253Y-61589598D01*
X141612777Y-61607777D01*
X141594598Y-61624253D01*
X141574893Y-61638867D01*
X141553849Y-61651480D01*
X141531671Y-61661970D01*
X141508571Y-61670235D01*
X141484773Y-61676196D01*
X141460504Y-61679796D01*
X141436000Y-61681000D01*
X140236000Y-61681000D01*
X140211496Y-61679796D01*
X140187227Y-61676196D01*
X140163429Y-61670235D01*
X140140329Y-61661970D01*
X140118151Y-61651480D01*
X140097107Y-61638867D01*
X140077402Y-61624253D01*
X140059223Y-61607777D01*
X140042747Y-61589598D01*
X140028133Y-61569893D01*
X140015520Y-61548849D01*
X140005030Y-61526671D01*
X139996765Y-61503571D01*
X139990804Y-61479773D01*
X139987204Y-61455504D01*
X139986000Y-61431000D01*
X139986000Y-59981000D01*
X139987204Y-59956496D01*
X139990804Y-59932227D01*
X139996765Y-59908429D01*
X140005030Y-59885329D01*
X140015520Y-59863151D01*
X140028133Y-59842107D01*
X140042747Y-59822402D01*
X140059223Y-59804223D01*
X140077402Y-59787747D01*
X140097107Y-59773133D01*
X140118151Y-59760520D01*
X140140329Y-59750030D01*
X140163429Y-59741765D01*
X140187227Y-59735804D01*
X140211496Y-59732204D01*
X140236000Y-59731000D01*
X141436000Y-59731000D01*
X141460504Y-59732204D01*
X141460504Y-59732204D01*
G37*
D28*
X140836000Y-60706000D03*
D30*
X151066000Y-93536000D03*
D31*
X171196000Y-87376000D03*
X171196005Y-100076005D03*
X134366000Y-76581000D03*
X114681000Y-120396000D03*
X138811000Y-76581000D03*
X170815005Y-70485005D03*
X179704901Y-70485005D03*
X175641000Y-72771000D03*
X114681000Y-108966000D03*
X129921000Y-76581000D03*
X117856000Y-120396004D03*
D32*
X153416000Y-87185500D03*
X155321000Y-80391000D03*
X119761000Y-103886000D03*
X117348000Y-105410014D03*
X126586000Y-70231000D03*
X126586000Y-72931000D03*
X110871000Y-72136000D03*
D33*
X148336000Y-93536000D02*
X151066000Y-93536000D01*
X151066000Y-93536000D02*
X153416000Y-93536000D01*
D34*
X116586000Y-88646000D02*
X115316000Y-88646000D01*
X115316000Y-88646000D02*
X114046000Y-89916000D01*
X114046000Y-89916000D02*
X114046000Y-99441000D01*
X111981000Y-101506000D02*
X98171000Y-101506000D01*
X114046000Y-99441000D02*
X111981000Y-101506000D01*
X179996000Y-83566000D02*
X180086000Y-83656000D01*
X173736000Y-83566000D02*
X179996000Y-83566000D01*
X140836000Y-67176000D02*
X140836000Y-60706000D01*
X141986000Y-68326000D02*
X140836000Y-67176000D01*
X155366000Y-68326000D02*
X152146000Y-68326000D01*
X152146000Y-68326000D02*
X141986000Y-68326000D01*
X154686000Y-117856000D02*
X154686000Y-121666000D01*
X152146000Y-115316000D02*
X154686000Y-117856000D01*
X131826000Y-115316000D02*
X152146000Y-115316000D01*
X129286000Y-121666000D02*
X129286000Y-117856000D01*
X129286000Y-117856000D02*
X131826000Y-115316000D01*
X169291000Y-98806000D02*
X171196000Y-96901000D01*
X152546000Y-98806000D02*
X169291000Y-98806000D01*
X148336000Y-102616000D02*
X148736000Y-102616000D01*
X148736000Y-102616000D02*
X152546000Y-98806000D01*
X171196000Y-96901000D02*
X171196000Y-87376000D01*
X171196005Y-98998375D02*
X171196005Y-100076005D01*
X171196005Y-96901005D02*
X171196005Y-98998375D01*
X171196000Y-96901000D02*
X171196005Y-96901005D01*
X152146000Y-68326000D02*
X154305005Y-70485005D01*
X169737375Y-70485005D02*
X170815005Y-70485005D01*
X154305005Y-70485005D02*
X169737375Y-70485005D01*
X170815005Y-70485005D02*
X179704901Y-70485005D01*
X149066000Y-70866000D02*
X150971000Y-72771000D01*
X150971000Y-72771000D02*
X164211000Y-72771000D01*
X166116000Y-74676000D02*
X166116000Y-83566000D01*
X164211000Y-72771000D02*
X166116000Y-74676000D01*
X164211000Y-72771000D02*
X175641000Y-72771000D01*
X138754000Y-110236000D02*
X140716000Y-110236000D01*
X136214000Y-112776000D02*
X138754000Y-110236000D01*
X118491000Y-112776000D02*
X136214000Y-112776000D01*
X114681000Y-108966000D02*
X117221000Y-111506000D01*
X117221000Y-111506000D02*
X118491000Y-112776000D01*
X117221000Y-111506000D02*
X117856000Y-112141000D01*
X117856000Y-112141000D02*
X117856000Y-119318374D01*
X117856000Y-119318374D02*
X117856000Y-120396004D01*
X133731000Y-72771000D02*
X129921000Y-76581000D01*
X148292370Y-72771000D02*
X133731000Y-72771000D01*
X149066000Y-70866000D02*
X149066000Y-71997370D01*
X149066000Y-71997370D02*
X148292370Y-72771000D01*
D35*
X153416000Y-84736000D02*
X153416000Y-85740000D01*
X153416000Y-85740000D02*
X153416000Y-87185500D01*
X153416000Y-87185500D02*
X153416000Y-89636000D01*
X145886000Y-89636000D02*
X145796000Y-89726000D01*
X153416000Y-89636000D02*
X145886000Y-89636000D01*
X148246000Y-80836000D02*
X153416000Y-80836000D01*
X143192000Y-87186000D02*
X144399000Y-85979000D01*
X136906000Y-87186000D02*
X143192000Y-87186000D01*
X144399000Y-85979000D02*
X147066000Y-85979000D01*
X148246000Y-84799000D02*
X148246000Y-80836000D01*
X147066000Y-85979000D02*
X148246000Y-84799000D01*
X153416000Y-80836000D02*
X154876000Y-80836000D01*
X154876000Y-80836000D02*
X155321000Y-80391000D01*
X102426000Y-71946000D02*
X98171000Y-71946000D01*
X119126000Y-78486000D02*
X108966000Y-78486000D01*
X108966000Y-78486000D02*
X102426000Y-71946000D01*
X110236000Y-82461000D02*
X110236000Y-82386000D01*
X111341000Y-83566000D02*
X110236000Y-82461000D01*
X116586000Y-83566000D02*
X111341000Y-83566000D01*
X100076000Y-75576000D02*
X100076000Y-75946000D01*
X98446000Y-73946000D02*
X100076000Y-75576000D01*
X98171000Y-73946000D02*
X98446000Y-73946000D01*
X100076000Y-75946000D02*
X98171000Y-75946000D01*
X105791000Y-75946000D02*
X100076000Y-75946000D01*
X110236000Y-82386000D02*
X110236000Y-80391000D01*
X110236000Y-80391000D02*
X105791000Y-75946000D01*
D36*
X176276000Y-74676000D02*
X171196000Y-74676000D01*
X190881000Y-73996000D02*
X176956000Y-73996000D01*
X176956000Y-73996000D02*
X176276000Y-74676000D01*
X130556000Y-103886000D02*
X130556000Y-106426000D01*
X121666000Y-103886000D02*
X119761000Y-103886000D01*
X98171000Y-105506000D02*
X117252014Y-105506000D01*
X117252014Y-105506000D02*
X117348000Y-105410014D01*
X121666000Y-103886000D02*
X130556000Y-103886000D01*
X136779000Y-102616000D02*
X140716000Y-102616000D01*
X130556000Y-103886000D02*
X135509000Y-103886000D01*
X135509000Y-103886000D02*
X136779000Y-102616000D01*
X98171000Y-109506000D02*
X98171000Y-111506000D01*
X107886500Y-120396000D02*
X109601000Y-120396000D01*
X98171000Y-111506000D02*
X98996500Y-111506000D01*
X98996500Y-111506000D02*
X107886500Y-120396000D01*
X148336000Y-105156000D02*
X152146000Y-105156000D01*
X152146000Y-105156000D02*
X153416000Y-103886000D01*
X153416000Y-103886000D02*
X158496000Y-103886000D01*
X158496000Y-103886000D02*
X158496000Y-106426000D01*
X115824000Y-107506000D02*
X98234000Y-107506000D01*
X146882000Y-105156000D02*
X145612000Y-106426000D01*
X148336000Y-105156000D02*
X146882000Y-105156000D01*
X145612000Y-106426000D02*
X137541000Y-106426000D01*
X137541000Y-106426000D02*
X133096000Y-110871000D01*
X133096000Y-110871000D02*
X119126000Y-110871000D01*
X119126000Y-110871000D02*
X115761000Y-107506000D01*
X160274000Y-106426000D02*
X158496000Y-104648000D01*
X166116000Y-106426000D02*
X160274000Y-106426000D01*
X167386000Y-103886000D02*
X167386000Y-105156000D01*
X167386000Y-105156000D02*
X166116000Y-106426000D01*
X144857000Y-93536000D02*
X143891000Y-92570000D01*
X145886000Y-93536000D02*
X144857000Y-93536000D01*
X143891000Y-89091000D02*
X145796000Y-87186000D01*
X143891000Y-92570000D02*
X143891000Y-89091000D01*
X116332000Y-103506000D02*
X98172000Y-103506000D01*
X119126000Y-100711000D02*
X116331000Y-103506000D01*
X132461000Y-100711000D02*
X119126000Y-100711000D01*
X143891000Y-94361000D02*
X143002000Y-95250000D01*
X143891000Y-92570000D02*
X143891000Y-94361000D01*
X135382000Y-95250000D02*
X133350000Y-97282000D01*
X143002000Y-95250000D02*
X135382000Y-95250000D01*
X133350000Y-97282000D02*
X133350000Y-99822000D01*
X133350000Y-99822000D02*
X132461000Y-100711000D01*
D34*
X173736000Y-130856000D02*
X179786000Y-130856000D01*
X182626000Y-128016000D02*
X179786000Y-130856000D01*
X170896000Y-128016000D02*
X173736000Y-130856000D01*
X164756000Y-128016000D02*
X170896000Y-128016000D01*
X186871000Y-123771000D02*
X190881000Y-123771000D01*
X182626000Y-128016000D02*
X186871000Y-123771000D01*
D33*
X182871000Y-127771000D02*
X182626000Y-128016000D01*
D34*
X190881000Y-127771000D02*
X182871000Y-127771000D01*
D35*
X112651000Y-69321000D02*
X112651000Y-66546000D01*
X116586000Y-62611000D02*
X116586000Y-60071000D01*
X112651000Y-66546000D02*
X116586000Y-62611000D01*
X121576000Y-89826000D02*
X121576000Y-78486000D01*
X124206000Y-91186000D02*
X122936000Y-91186000D01*
X122936000Y-91186000D02*
X121576000Y-89826000D01*
X126586000Y-70231000D02*
X126586000Y-60071000D01*
X126586000Y-62451000D02*
X126586000Y-70231000D01*
X124586000Y-60071000D02*
X124586000Y-60451000D01*
X124586000Y-60451000D02*
X126586000Y-62451000D01*
X126586000Y-76741000D02*
X126586000Y-72931000D01*
X121576000Y-78486000D02*
X124841000Y-78486000D01*
X124841000Y-78486000D02*
X126586000Y-76741000D01*
X122936000Y-116586000D02*
X124296000Y-116586000D01*
X121666000Y-121666000D02*
X121666000Y-117856000D01*
X121666000Y-117856000D02*
X122936000Y-116586000D01*
X121266000Y-121666000D02*
X121666000Y-121666000D01*
D36*
X98171000Y-123771000D02*
X99545000Y-123771000D01*
X99545000Y-123771000D02*
X101650000Y-121666000D01*
X101650000Y-121666000D02*
X110871000Y-121666000D01*
X110871000Y-121666000D02*
X111925000Y-122720000D01*
X111925000Y-122720000D02*
X120212000Y-122720000D01*
D35*
X120212000Y-122720000D02*
X121266000Y-121666000D01*
D36*
X98171000Y-125771000D02*
X98171000Y-127771000D01*
X109601000Y-125476000D02*
X109601000Y-122936000D01*
X98171000Y-125771000D02*
X109306000Y-125771000D01*
D35*
X109306000Y-125771000D02*
X109601000Y-125476000D01*
D36*
X110871000Y-124206000D02*
X121666000Y-124206000D01*
X109601000Y-122936000D02*
X110871000Y-124206000D01*
X113506000Y-140081000D02*
X113506000Y-136176000D01*
X115316000Y-134366000D02*
X121666000Y-134366000D01*
X113506000Y-136176000D02*
X115316000Y-134366000D01*
D33*
X163576000Y-64516000D02*
X163576000Y-60706000D01*
X171076000Y-62443000D02*
X171076000Y-60706000D01*
X170273000Y-63246000D02*
X171076000Y-62443000D01*
X164846000Y-63246000D02*
X170273000Y-63246000D01*
X163576000Y-64516000D02*
X164846000Y-63246000D01*
X163576000Y-67056000D02*
X163576000Y-64516000D01*
X157816000Y-68326000D02*
X162306000Y-68326000D01*
X162306000Y-68326000D02*
X163576000Y-67056000D01*
X180086000Y-86106000D02*
X173736000Y-86106000D01*
D36*
X169111000Y-102436000D02*
X167386000Y-102436000D01*
D35*
X169926000Y-103251000D02*
X169111000Y-102436000D01*
X169926000Y-108635000D02*
X169926000Y-103251000D01*
X168566000Y-108966000D02*
X169595000Y-108966000D01*
X169595000Y-108966000D02*
X169926000Y-108635000D01*
X167386000Y-102436000D02*
X167566000Y-102436000D01*
D36*
X169111000Y-102436000D02*
X173916000Y-102436000D01*
X173916000Y-102436000D02*
X175641000Y-100711000D01*
D35*
X174136000Y-86106000D02*
X173736000Y-86106000D01*
D36*
X175641000Y-87611000D02*
X174136000Y-86106000D01*
X175641000Y-100711000D02*
X175641000Y-87611000D01*
X171196000Y-84836000D02*
X171196000Y-78486000D01*
X173736000Y-86106000D02*
X172466000Y-86106000D01*
X172466000Y-86106000D02*
X171196000Y-84836000D01*
D35*
X145796000Y-84646000D02*
X145796000Y-80836000D01*
X110236000Y-84911000D02*
X110236000Y-84836000D01*
X111431000Y-86106000D02*
X110236000Y-84911000D01*
X116586000Y-86106000D02*
X111431000Y-86106000D01*
X110236000Y-88887000D02*
X110236000Y-84836000D01*
X110236000Y-89916000D02*
X110236000Y-88887000D01*
X101346000Y-89916000D02*
X101346000Y-89789000D01*
X110236000Y-92366000D02*
X103796000Y-92366000D01*
X103796000Y-92366000D02*
X101346000Y-89916000D01*
D36*
X168746000Y-74676000D02*
X168746000Y-78486000D01*
X166516000Y-86106000D02*
X167386000Y-86106000D01*
D35*
X166116000Y-86106000D02*
X166516000Y-86106000D01*
D36*
X168746000Y-84746000D02*
X167386000Y-86106000D01*
X168746000Y-78486000D02*
X168746000Y-84746000D01*
D35*
X122846000Y-108966000D02*
X130556000Y-108966000D01*
X130556000Y-108966000D02*
X133731000Y-108966000D01*
X137541000Y-105156000D02*
X140716000Y-105156000D01*
X133731000Y-108966000D02*
X137541000Y-105156000D01*
X148336000Y-107696000D02*
X152146000Y-107696000D01*
X152146000Y-107696000D02*
X153416000Y-108966000D01*
X153416000Y-108966000D02*
X158496000Y-108966000D01*
X158496000Y-108966000D02*
X166116000Y-108966000D01*
D36*
X128886000Y-126746000D02*
X129286000Y-126746000D01*
X126746000Y-124606000D02*
X128886000Y-126746000D01*
X126746000Y-116586000D02*
X126746000Y-124606000D01*
X129286000Y-126746000D02*
X131191000Y-126746000D01*
X131191000Y-126746000D02*
X132461000Y-128016000D01*
X132461000Y-128016000D02*
X132461000Y-129286000D01*
X133731000Y-130556000D02*
X135636000Y-130556000D01*
X132461000Y-129286000D02*
X133731000Y-130556000D01*
X128016000Y-126746000D02*
X129286000Y-126746000D01*
X126746000Y-128016000D02*
X128016000Y-126746000D01*
X126746000Y-133096000D02*
X126746000Y-128016000D01*
X124116000Y-134366000D02*
X125476000Y-134366000D01*
X125476000Y-134366000D02*
X126746000Y-133096000D01*
X136921000Y-124206000D02*
X136996000Y-124206000D01*
X135636000Y-125476000D02*
X134366000Y-124206000D01*
X135636000Y-128106000D02*
X135636000Y-125476000D01*
X129286000Y-124206000D02*
X134366000Y-124206000D01*
X134366000Y-124206000D02*
X136996000Y-124206000D01*
X139446000Y-124206000D02*
X141351000Y-124206000D01*
X143891000Y-126746000D02*
X147066000Y-126746000D01*
X141351000Y-124206000D02*
X143891000Y-126746000D01*
D37*
X141986000Y-120396000D02*
X140716000Y-120396000D01*
X143256000Y-121666000D02*
X141986000Y-120396000D01*
X143256000Y-123011000D02*
X143256000Y-121666000D01*
X147066000Y-124206000D02*
X144451000Y-124206000D01*
X144451000Y-124206000D02*
X143256000Y-123011000D01*
X145161000Y-121666000D02*
X147066000Y-121666000D01*
X144526000Y-121031000D02*
X145161000Y-121666000D01*
X144526000Y-119761000D02*
X144526000Y-121031000D01*
X140716000Y-117946000D02*
X142711000Y-117946000D01*
X142711000Y-117946000D02*
X144526000Y-119761000D01*
D34*
X149606000Y-121666000D02*
X147066000Y-121666000D01*
X150876000Y-130556000D02*
X150876000Y-122936000D01*
X160261000Y-128016000D02*
X159131000Y-129146000D01*
X150876000Y-122936000D02*
X149606000Y-121666000D01*
X162306000Y-128016000D02*
X160261000Y-128016000D01*
X159131000Y-129146000D02*
X159131000Y-130556000D01*
X159131000Y-130556000D02*
X157861000Y-131826000D01*
X157861000Y-131826000D02*
X152146000Y-131826000D01*
X152146000Y-131826000D02*
X150876000Y-130556000D01*
D36*
X120396000Y-108966000D02*
X119126000Y-108966000D01*
X119126000Y-108966000D02*
X118491000Y-108331000D01*
X118491000Y-108331000D02*
X118491000Y-103251000D01*
X119306000Y-102436000D02*
X121666000Y-102436000D01*
X118491000Y-103251000D02*
X119306000Y-102436000D01*
X136906000Y-84646000D02*
X136906000Y-81026000D01*
X136906000Y-81026000D02*
X139446000Y-78486000D01*
X139446000Y-78486000D02*
X155956000Y-78486000D01*
X155956000Y-78486000D02*
X157226000Y-79756000D01*
X157226000Y-79756000D02*
X157226000Y-87376000D01*
X157226000Y-87376000D02*
X158496000Y-88646000D01*
X135446000Y-86106000D02*
X136906000Y-84646000D01*
X124206000Y-86106000D02*
X135446000Y-86106000D01*
X112651000Y-71771000D02*
X116651000Y-71771000D01*
X116651000Y-71771000D02*
X120396000Y-71771000D01*
X121350000Y-71771000D02*
X124206000Y-71771000D01*
X120396000Y-71771000D02*
X121350000Y-71771000D01*
X112651000Y-71771000D02*
X111236000Y-71771000D01*
X111236000Y-71771000D02*
X110871000Y-72136000D01*
X124206000Y-71771000D02*
X127016000Y-71771000D01*
X127016000Y-71771000D02*
X128016000Y-72771000D01*
X128016000Y-72771000D02*
X128016000Y-84836000D01*
X128016000Y-84836000D02*
X126746000Y-86106000D01*
X101346000Y-87249000D02*
X101346000Y-84709000D01*
X157226000Y-88646000D02*
X166116000Y-88646000D01*
X155956000Y-89916000D02*
X157226000Y-88646000D01*
X155956000Y-94996000D02*
X155956000Y-89916000D01*
X121666000Y-102436000D02*
X132641000Y-102436000D01*
X134366000Y-100711000D02*
X134366000Y-97536000D01*
X132641000Y-102436000D02*
X134366000Y-100711000D01*
X134366000Y-97536000D02*
X135636000Y-96266000D01*
X135636000Y-96266000D02*
X154686000Y-96266000D01*
X154686000Y-96266000D02*
X155956000Y-94996000D01*
D35*
X120396000Y-69321000D02*
X120396000Y-66421000D01*
X120586000Y-66231000D02*
X120586000Y-60071000D01*
X120396000Y-66421000D02*
X120586000Y-66231000D01*
X116651000Y-69321000D02*
X116651000Y-66486000D01*
X118586000Y-64551000D02*
X118586000Y-60071000D01*
X116651000Y-66486000D02*
X118586000Y-64551000D01*
X122586000Y-64801000D02*
X122586000Y-60071000D01*
X124206000Y-69321000D02*
X124206000Y-66421000D01*
X124206000Y-66421000D02*
X122586000Y-64801000D01*
M02*
