M48
; DRILL file {KiCad (5.1.2)-1} date 05/14/19 20:39:17
; FORMAT={-:-/ absolute / inch / decimal}
; #@! TF.CreationDate,2019-05-14T20:39:17-07:00
; #@! TF.GenerationSoftware,Kicad,Pcbnew,(5.1.2)-1
FMAT,2
INCH
T1C0.0150
T2C0.0191
T3C0.0295
T4C0.0300
T5C0.0315
T6C0.0362
T7C0.0374
T8C0.0709
T9C0.0713
T10C0.1260
%
G90
G05
T1
X4.365Y-2.84
X4.62Y-4.15
X4.715Y-4.09
X4.9837Y-2.765
X4.9837Y-2.8713
X6.04Y-3.4325
X6.115Y-3.165
T2
X5.31Y-2.6
X5.9475Y-3.6825
X6.06Y-2.6
T3
X4.59Y-2.365
X4.6687Y-2.365
X4.7475Y-2.365
X4.8262Y-2.365
X4.905Y-2.365
X4.9837Y-2.365
X3.865Y-2.8325
X3.865Y-2.9113
X3.865Y-2.99
X7.515Y-4.8729
X7.515Y-4.9516
X7.515Y-5.0304
X3.865Y-4.8729
X3.865Y-4.9516
X3.865Y-5.0304
X4.39Y-5.515
X4.4687Y-5.515
X4.5475Y-5.515
X7.515Y-2.8345
X7.515Y-2.9132
X7.515Y-2.992
X3.865Y-3.9963
X3.865Y-4.075
X3.865Y-4.1538
X3.865Y-4.2325
X3.865Y-4.3113
X3.865Y-4.39
T4
X4.515Y-4.29
X4.515Y-4.74
X4.64Y-4.74
X5.115Y-3.015
X5.29Y-3.015
X5.465Y-3.015
X6.725Y-2.775
X6.74Y-3.44
X6.74Y-3.94
X6.915Y-2.865
X7.075Y-2.775
T5
X4.79Y-4.79
X4.79Y-4.89
X4.79Y-4.99
X4.79Y-5.09
X5.09Y-4.79
X5.09Y-4.89
X5.09Y-4.99
X5.09Y-5.09
X5.79Y-2.79
X5.8687Y-2.79
X5.39Y-3.3325
X5.39Y-3.4325
X5.39Y-3.5325
X6.54Y-3.29
X6.54Y-3.39
X6.54Y-3.49
X6.54Y-3.59
X6.84Y-3.29
X6.84Y-3.39
X6.84Y-3.49
X6.84Y-3.59
X5.54Y-4.04
X5.54Y-4.14
X5.54Y-4.24
X5.54Y-4.34
X5.84Y-4.04
X5.84Y-4.14
X5.84Y-4.24
X5.84Y-4.34
X4.315Y-4.74
X4.315Y-4.84
X4.315Y-4.94
X3.99Y-3.335
X3.99Y-3.435
X3.99Y-3.535
X6.24Y-4.09
X6.24Y-4.19
X6.24Y-4.29
X5.79Y-4.79
X5.79Y-4.89
X5.79Y-4.99
X5.79Y-5.09
X6.09Y-4.79
X6.09Y-4.89
X6.09Y-4.99
X6.09Y-5.09
X4.59Y-3.29
X4.59Y-3.39
X4.59Y-3.49
X4.59Y-3.59
X4.89Y-3.29
X4.89Y-3.39
X4.89Y-3.49
X4.89Y-3.59
X5.5113Y-2.79
X5.59Y-2.79
X5.14Y-4.09
X5.14Y-4.19
X5.14Y-4.29
X5.74Y-3.3325
X5.74Y-3.4325
X5.74Y-3.5325
T6
X6.84Y-5.1518
T7
X6.44Y-2.39
X6.5384Y-2.39
X6.6369Y-2.39
X6.7353Y-2.39
X5.5447Y-2.39
X5.6431Y-2.39
X5.7416Y-2.39
X5.84Y-2.39
T8
X6.6904Y-5.4589
T9
X6.9896Y-5.4589
T10
X3.94Y-5.44
X7.44Y-2.44
X7.44Y-5.44
X3.94Y-2.44
T0
M30
