G04 #@! TF.GenerationSoftware,KiCad,Pcbnew,(5.1.2)-1*
G04 #@! TF.CreationDate,2019-05-13T11:07:23-07:00*
G04 #@! TF.ProjectId,triumph_power,74726975-6d70-4685-9f70-6f7765722e6b,A*
G04 #@! TF.SameCoordinates,Original*
G04 #@! TF.FileFunction,Legend,Top*
G04 #@! TF.FilePolarity,Positive*
%FSLAX46Y46*%
G04 Gerber Fmt 4.6, Leading zero omitted, Abs format (unit mm)*
G04 Created by KiCad (PCBNEW (5.1.2)-1) date 2019-05-13 11:07:23*
%MOMM*%
%LPD*%
G04 APERTURE LIST*
%ADD10C,0.150000*%
%ADD11C,0.300000*%
%ADD12C,0.010000*%
%ADD13C,0.120000*%
G04 APERTURE END LIST*
D10*
X167991285Y-113851428D02*
X168741285Y-113601428D01*
X167991285Y-113351428D01*
X168741285Y-113101428D02*
X167991285Y-113101428D01*
X168741285Y-112744285D02*
X167991285Y-112744285D01*
X168741285Y-112315714D01*
X167991285Y-112315714D01*
X167991285Y-106231428D02*
X168741285Y-105981428D01*
X167991285Y-105731428D01*
X168741285Y-105481428D02*
X167991285Y-105481428D01*
X168741285Y-105124285D02*
X167991285Y-105124285D01*
X168741285Y-104695714D01*
X167991285Y-104695714D01*
X168027000Y-109791428D02*
X167991285Y-109862857D01*
X167991285Y-109970000D01*
X168027000Y-110077142D01*
X168098428Y-110148571D01*
X168169857Y-110184285D01*
X168312714Y-110220000D01*
X168419857Y-110220000D01*
X168562714Y-110184285D01*
X168634142Y-110148571D01*
X168705571Y-110077142D01*
X168741285Y-109970000D01*
X168741285Y-109898571D01*
X168705571Y-109791428D01*
X168669857Y-109755714D01*
X168419857Y-109755714D01*
X168419857Y-109898571D01*
X168741285Y-109434285D02*
X167991285Y-109434285D01*
X168741285Y-109005714D01*
X167991285Y-109005714D01*
X168741285Y-108648571D02*
X167991285Y-108648571D01*
X167991285Y-108470000D01*
X168027000Y-108362857D01*
X168098428Y-108291428D01*
X168169857Y-108255714D01*
X168312714Y-108220000D01*
X168419857Y-108220000D01*
X168562714Y-108255714D01*
X168634142Y-108291428D01*
X168705571Y-108362857D01*
X168741285Y-108470000D01*
X168741285Y-108648571D01*
X131693000Y-108648571D02*
X131728714Y-108577142D01*
X131728714Y-108470000D01*
X131693000Y-108362857D01*
X131621571Y-108291428D01*
X131550142Y-108255714D01*
X131407285Y-108220000D01*
X131300142Y-108220000D01*
X131157285Y-108255714D01*
X131085857Y-108291428D01*
X131014428Y-108362857D01*
X130978714Y-108470000D01*
X130978714Y-108541428D01*
X131014428Y-108648571D01*
X131050142Y-108684285D01*
X131300142Y-108684285D01*
X131300142Y-108541428D01*
X130978714Y-109005714D02*
X131728714Y-109005714D01*
X130978714Y-109434285D01*
X131728714Y-109434285D01*
X130978714Y-109791428D02*
X131728714Y-109791428D01*
X131728714Y-109970000D01*
X131693000Y-110077142D01*
X131621571Y-110148571D01*
X131550142Y-110184285D01*
X131407285Y-110220000D01*
X131300142Y-110220000D01*
X131157285Y-110184285D01*
X131085857Y-110148571D01*
X131014428Y-110077142D01*
X130978714Y-109970000D01*
X130978714Y-109791428D01*
X131264428Y-111708571D02*
X131264428Y-112280000D01*
X130978714Y-111994285D02*
X131550142Y-111994285D01*
X130978714Y-113030000D02*
X130978714Y-112601428D01*
X130978714Y-112815714D02*
X131728714Y-112815714D01*
X131621571Y-112744285D01*
X131550142Y-112672857D01*
X131514428Y-112601428D01*
X131657285Y-113315714D02*
X131693000Y-113351428D01*
X131728714Y-113422857D01*
X131728714Y-113601428D01*
X131693000Y-113672857D01*
X131657285Y-113708571D01*
X131585857Y-113744285D01*
X131514428Y-113744285D01*
X131407285Y-113708571D01*
X130978714Y-113280000D01*
X130978714Y-113744285D01*
X131728714Y-113958571D02*
X130978714Y-114208571D01*
X131728714Y-114458571D01*
X131264428Y-104088571D02*
X131264428Y-104660000D01*
X130978714Y-105410000D02*
X130978714Y-104981428D01*
X130978714Y-105195714D02*
X131728714Y-105195714D01*
X131621571Y-105124285D01*
X131550142Y-105052857D01*
X131514428Y-104981428D01*
X131657285Y-105695714D02*
X131693000Y-105731428D01*
X131728714Y-105802857D01*
X131728714Y-105981428D01*
X131693000Y-106052857D01*
X131657285Y-106088571D01*
X131585857Y-106124285D01*
X131514428Y-106124285D01*
X131407285Y-106088571D01*
X130978714Y-105660000D01*
X130978714Y-106124285D01*
X131728714Y-106338571D02*
X130978714Y-106588571D01*
X131728714Y-106838571D01*
X154962071Y-122000285D02*
X154962071Y-121250285D01*
X155247785Y-121250285D01*
X155319214Y-121286000D01*
X155354928Y-121321714D01*
X155390642Y-121393142D01*
X155390642Y-121500285D01*
X155354928Y-121571714D01*
X155319214Y-121607428D01*
X155247785Y-121643142D01*
X154962071Y-121643142D01*
X155819214Y-122000285D02*
X155747785Y-121964571D01*
X155712071Y-121928857D01*
X155676357Y-121857428D01*
X155676357Y-121643142D01*
X155712071Y-121571714D01*
X155747785Y-121536000D01*
X155819214Y-121500285D01*
X155926357Y-121500285D01*
X155997785Y-121536000D01*
X156033500Y-121571714D01*
X156069214Y-121643142D01*
X156069214Y-121857428D01*
X156033500Y-121928857D01*
X155997785Y-121964571D01*
X155926357Y-122000285D01*
X155819214Y-122000285D01*
X156319214Y-121500285D02*
X156462071Y-122000285D01*
X156604928Y-121643142D01*
X156747785Y-122000285D01*
X156890642Y-121500285D01*
X157462071Y-121964571D02*
X157390642Y-122000285D01*
X157247785Y-122000285D01*
X157176357Y-121964571D01*
X157140642Y-121893142D01*
X157140642Y-121607428D01*
X157176357Y-121536000D01*
X157247785Y-121500285D01*
X157390642Y-121500285D01*
X157462071Y-121536000D01*
X157497785Y-121607428D01*
X157497785Y-121678857D01*
X157140642Y-121750285D01*
X157819214Y-122000285D02*
X157819214Y-121500285D01*
X157819214Y-121643142D02*
X157854928Y-121571714D01*
X157890642Y-121536000D01*
X157962071Y-121500285D01*
X158033500Y-121500285D01*
X159104928Y-121607428D02*
X159212071Y-121643142D01*
X159247785Y-121678857D01*
X159283500Y-121750285D01*
X159283500Y-121857428D01*
X159247785Y-121928857D01*
X159212071Y-121964571D01*
X159140642Y-122000285D01*
X158854928Y-122000285D01*
X158854928Y-121250285D01*
X159104928Y-121250285D01*
X159176357Y-121286000D01*
X159212071Y-121321714D01*
X159247785Y-121393142D01*
X159247785Y-121464571D01*
X159212071Y-121536000D01*
X159176357Y-121571714D01*
X159104928Y-121607428D01*
X158854928Y-121607428D01*
X159712071Y-122000285D02*
X159640642Y-121964571D01*
X159604928Y-121928857D01*
X159569214Y-121857428D01*
X159569214Y-121643142D01*
X159604928Y-121571714D01*
X159640642Y-121536000D01*
X159712071Y-121500285D01*
X159819214Y-121500285D01*
X159890642Y-121536000D01*
X159926357Y-121571714D01*
X159962071Y-121643142D01*
X159962071Y-121857428D01*
X159926357Y-121928857D01*
X159890642Y-121964571D01*
X159819214Y-122000285D01*
X159712071Y-122000285D01*
X160604928Y-122000285D02*
X160604928Y-121607428D01*
X160569214Y-121536000D01*
X160497785Y-121500285D01*
X160354928Y-121500285D01*
X160283500Y-121536000D01*
X160604928Y-121964571D02*
X160533500Y-122000285D01*
X160354928Y-122000285D01*
X160283500Y-121964571D01*
X160247785Y-121893142D01*
X160247785Y-121821714D01*
X160283500Y-121750285D01*
X160354928Y-121714571D01*
X160533500Y-121714571D01*
X160604928Y-121678857D01*
X160962071Y-122000285D02*
X160962071Y-121500285D01*
X160962071Y-121643142D02*
X160997785Y-121571714D01*
X161033500Y-121536000D01*
X161104928Y-121500285D01*
X161176357Y-121500285D01*
X161747785Y-122000285D02*
X161747785Y-121250285D01*
X161747785Y-121964571D02*
X161676357Y-122000285D01*
X161533500Y-122000285D01*
X161462071Y-121964571D01*
X161426357Y-121928857D01*
X161390642Y-121857428D01*
X161390642Y-121643142D01*
X161426357Y-121571714D01*
X161462071Y-121536000D01*
X161533500Y-121500285D01*
X161676357Y-121500285D01*
X161747785Y-121536000D01*
X155390642Y-123275285D02*
X155140642Y-122918142D01*
X154962071Y-123275285D02*
X154962071Y-122525285D01*
X155247785Y-122525285D01*
X155319214Y-122561000D01*
X155354928Y-122596714D01*
X155390642Y-122668142D01*
X155390642Y-122775285D01*
X155354928Y-122846714D01*
X155319214Y-122882428D01*
X155247785Y-122918142D01*
X154962071Y-122918142D01*
X156033500Y-123275285D02*
X156033500Y-122882428D01*
X155997785Y-122811000D01*
X155926357Y-122775285D01*
X155783500Y-122775285D01*
X155712071Y-122811000D01*
X156033500Y-123239571D02*
X155962071Y-123275285D01*
X155783500Y-123275285D01*
X155712071Y-123239571D01*
X155676357Y-123168142D01*
X155676357Y-123096714D01*
X155712071Y-123025285D01*
X155783500Y-122989571D01*
X155962071Y-122989571D01*
X156033500Y-122953857D01*
X156319214Y-122775285D02*
X156497785Y-123275285D01*
X156676357Y-122775285D02*
X156497785Y-123275285D01*
X156426357Y-123453857D01*
X156390642Y-123489571D01*
X156319214Y-123525285D01*
X157497785Y-123239571D02*
X157604928Y-123275285D01*
X157783500Y-123275285D01*
X157854928Y-123239571D01*
X157890642Y-123203857D01*
X157926357Y-123132428D01*
X157926357Y-123061000D01*
X157890642Y-122989571D01*
X157854928Y-122953857D01*
X157783500Y-122918142D01*
X157640642Y-122882428D01*
X157569214Y-122846714D01*
X157533500Y-122811000D01*
X157497785Y-122739571D01*
X157497785Y-122668142D01*
X157533500Y-122596714D01*
X157569214Y-122561000D01*
X157640642Y-122525285D01*
X157819214Y-122525285D01*
X157926357Y-122561000D01*
X158569214Y-122775285D02*
X158569214Y-123275285D01*
X158247785Y-122775285D02*
X158247785Y-123168142D01*
X158283500Y-123239571D01*
X158354928Y-123275285D01*
X158462071Y-123275285D01*
X158533500Y-123239571D01*
X158569214Y-123203857D01*
X158926357Y-122775285D02*
X158926357Y-123275285D01*
X158926357Y-122846714D02*
X158962071Y-122811000D01*
X159033500Y-122775285D01*
X159140642Y-122775285D01*
X159212071Y-122811000D01*
X159247785Y-122882428D01*
X159247785Y-123275285D01*
X154962071Y-124157428D02*
X155212071Y-124157428D01*
X155319214Y-124550285D02*
X154962071Y-124550285D01*
X154962071Y-123800285D01*
X155319214Y-123800285D01*
X155640642Y-124157428D02*
X155890642Y-124157428D01*
X155997785Y-124550285D02*
X155640642Y-124550285D01*
X155640642Y-123800285D01*
X155997785Y-123800285D01*
X156926357Y-124550285D02*
X157069214Y-124550285D01*
X157140642Y-124514571D01*
X157176357Y-124478857D01*
X157247785Y-124371714D01*
X157283500Y-124228857D01*
X157283500Y-123943142D01*
X157247785Y-123871714D01*
X157212071Y-123836000D01*
X157140642Y-123800285D01*
X156997785Y-123800285D01*
X156926357Y-123836000D01*
X156890642Y-123871714D01*
X156854928Y-123943142D01*
X156854928Y-124121714D01*
X156890642Y-124193142D01*
X156926357Y-124228857D01*
X156997785Y-124264571D01*
X157140642Y-124264571D01*
X157212071Y-124228857D01*
X157247785Y-124193142D01*
X157283500Y-124121714D01*
X157747785Y-123800285D02*
X157819214Y-123800285D01*
X157890642Y-123836000D01*
X157926357Y-123871714D01*
X157962071Y-123943142D01*
X157997785Y-124086000D01*
X157997785Y-124264571D01*
X157962071Y-124407428D01*
X157926357Y-124478857D01*
X157890642Y-124514571D01*
X157819214Y-124550285D01*
X157747785Y-124550285D01*
X157676357Y-124514571D01*
X157640642Y-124478857D01*
X157604928Y-124407428D01*
X157569214Y-124264571D01*
X157569214Y-124086000D01*
X157604928Y-123943142D01*
X157640642Y-123871714D01*
X157676357Y-123836000D01*
X157747785Y-123800285D01*
D11*
X176020000Y-121920000D02*
G75*
G03X176020000Y-121920000I-3300000J0D01*
G01*
X176020000Y-96520000D02*
G75*
G03X176020000Y-96520000I-3300000J0D01*
G01*
X130300000Y-121920000D02*
G75*
G03X130300000Y-121920000I-3300000J0D01*
G01*
X130300000Y-96520000D02*
G75*
G03X130300000Y-96520000I-3300000J0D01*
G01*
D12*
G36*
X141274367Y-108154297D02*
G01*
X141341247Y-108154439D01*
X141412770Y-108154700D01*
X141473237Y-108154999D01*
X141563631Y-108155503D01*
X141642421Y-108156001D01*
X141710705Y-108156570D01*
X141769579Y-108157288D01*
X141820139Y-108158232D01*
X141863482Y-108159480D01*
X141900704Y-108161109D01*
X141932902Y-108163195D01*
X141961172Y-108165818D01*
X141986610Y-108169053D01*
X142010315Y-108172978D01*
X142033381Y-108177671D01*
X142056905Y-108183210D01*
X142081984Y-108189670D01*
X142109714Y-108197131D01*
X142123511Y-108200878D01*
X142237280Y-108238096D01*
X142348906Y-108286988D01*
X142456783Y-108346541D01*
X142559305Y-108415740D01*
X142654866Y-108493572D01*
X142741858Y-108579022D01*
X142767050Y-108607147D01*
X142791900Y-108636650D01*
X142819677Y-108671036D01*
X142847958Y-108707178D01*
X142874320Y-108741951D01*
X142896342Y-108772228D01*
X142906981Y-108787716D01*
X142916738Y-108802440D01*
X142951431Y-108784207D01*
X142971845Y-108774613D01*
X142991396Y-108768683D01*
X143014797Y-108765354D01*
X143042140Y-108763738D01*
X143070237Y-108762987D01*
X143090247Y-108763983D01*
X143106751Y-108767565D01*
X143124327Y-108774572D01*
X143138643Y-108781434D01*
X143178844Y-108806950D01*
X143212053Y-108839565D01*
X143235873Y-108876734D01*
X143241710Y-108890801D01*
X143252630Y-108921550D01*
X143601977Y-108921161D01*
X143951325Y-108920773D01*
X143970375Y-108894801D01*
X143993669Y-108868878D01*
X144019307Y-108853377D01*
X144050499Y-108846833D01*
X144075850Y-108846719D01*
X144102078Y-108849140D01*
X144120757Y-108854234D01*
X144136989Y-108863547D01*
X144140944Y-108866473D01*
X144157733Y-108881841D01*
X144171189Y-108898493D01*
X144173744Y-108902828D01*
X144183426Y-108921550D01*
X145254873Y-108921550D01*
X145258647Y-108906510D01*
X145265136Y-108893801D01*
X145277846Y-108877000D01*
X145288714Y-108865179D01*
X145321219Y-108840284D01*
X145356183Y-108826422D01*
X145391979Y-108822636D01*
X145426977Y-108827965D01*
X145459548Y-108841452D01*
X145488062Y-108862138D01*
X145510892Y-108889064D01*
X145526408Y-108921271D01*
X145532980Y-108957801D01*
X145528981Y-108997695D01*
X145526948Y-109005383D01*
X145510376Y-109042030D01*
X145485339Y-109071538D01*
X145454004Y-109093134D01*
X145418538Y-109106044D01*
X145381110Y-109109494D01*
X145343887Y-109102712D01*
X145309037Y-109084922D01*
X145307411Y-109083741D01*
X145290199Y-109068681D01*
X145274109Y-109050707D01*
X145261902Y-109033326D01*
X145256341Y-109020049D01*
X145256250Y-109018741D01*
X145254265Y-109017231D01*
X145247838Y-109015908D01*
X145236258Y-109014760D01*
X145218813Y-109013777D01*
X145194794Y-109012948D01*
X145163489Y-109012261D01*
X145124187Y-109011707D01*
X145076178Y-109011273D01*
X145018751Y-109010950D01*
X144951195Y-109010725D01*
X144872800Y-109010589D01*
X144782854Y-109010531D01*
X144721262Y-109010528D01*
X144186275Y-109010607D01*
X144171952Y-109032718D01*
X144156456Y-109051416D01*
X144137619Y-109067736D01*
X144135518Y-109069152D01*
X144113407Y-109083475D01*
X144113328Y-109343860D01*
X144113250Y-109604246D01*
X143854487Y-109699780D01*
X143818452Y-109713080D01*
X143771391Y-109730443D01*
X143714198Y-109751539D01*
X143647763Y-109776041D01*
X143572979Y-109803618D01*
X143490737Y-109833943D01*
X143401930Y-109866686D01*
X143307448Y-109901520D01*
X143208183Y-109938114D01*
X143105029Y-109976140D01*
X142998875Y-110015270D01*
X142890614Y-110055175D01*
X142781138Y-110095525D01*
X142671339Y-110135993D01*
X142657564Y-110141069D01*
X142552810Y-110179696D01*
X142451342Y-110217151D01*
X142353795Y-110253196D01*
X142260805Y-110287596D01*
X142173009Y-110320114D01*
X142091042Y-110350514D01*
X142015539Y-110378559D01*
X141947138Y-110404013D01*
X141886473Y-110426638D01*
X141834181Y-110446199D01*
X141790898Y-110462459D01*
X141757258Y-110475181D01*
X141733899Y-110484129D01*
X141721456Y-110489067D01*
X141719491Y-110490000D01*
X141725353Y-110492518D01*
X141742481Y-110499171D01*
X141770219Y-110509716D01*
X141807913Y-110523908D01*
X141854907Y-110541504D01*
X141910546Y-110562260D01*
X141974174Y-110585933D01*
X142045136Y-110612280D01*
X142122777Y-110641057D01*
X142206441Y-110672020D01*
X142295473Y-110704926D01*
X142389218Y-110739532D01*
X142487020Y-110775593D01*
X142588224Y-110812867D01*
X142603676Y-110818554D01*
X142711745Y-110858330D01*
X142820513Y-110898368D01*
X142928977Y-110938298D01*
X143036134Y-110977752D01*
X143140982Y-111016360D01*
X143242518Y-111053752D01*
X143339739Y-111089560D01*
X143431644Y-111123415D01*
X143517228Y-111154946D01*
X143595490Y-111183784D01*
X143665427Y-111209561D01*
X143726036Y-111231907D01*
X143776315Y-111250453D01*
X143800512Y-111259383D01*
X144113250Y-111374832D01*
X144113328Y-111635678D01*
X144113407Y-111896525D01*
X144135958Y-111911136D01*
X144154236Y-111926421D01*
X144169704Y-111944893D01*
X144171432Y-111947649D01*
X144184354Y-111969550D01*
X145254873Y-111969550D01*
X145258647Y-111954510D01*
X145265136Y-111941801D01*
X145277846Y-111925000D01*
X145288714Y-111913179D01*
X145321219Y-111888284D01*
X145356183Y-111874422D01*
X145391979Y-111870636D01*
X145426977Y-111875965D01*
X145459548Y-111889452D01*
X145488062Y-111910138D01*
X145510892Y-111937064D01*
X145526408Y-111969271D01*
X145532980Y-112005801D01*
X145528981Y-112045695D01*
X145526948Y-112053383D01*
X145510376Y-112090030D01*
X145485339Y-112119538D01*
X145454004Y-112141134D01*
X145418538Y-112154044D01*
X145381110Y-112157494D01*
X145343887Y-112150712D01*
X145309037Y-112132922D01*
X145307411Y-112131741D01*
X145290199Y-112116681D01*
X145274109Y-112098707D01*
X145261902Y-112081326D01*
X145256341Y-112068049D01*
X145256249Y-112066741D01*
X145254270Y-112065232D01*
X145247856Y-112063913D01*
X145236298Y-112062772D01*
X145218884Y-112061799D01*
X145194903Y-112060984D01*
X145163644Y-112060316D01*
X145124395Y-112059784D01*
X145076445Y-112059378D01*
X145019084Y-112059088D01*
X144951599Y-112058902D01*
X144873280Y-112058811D01*
X144783416Y-112058804D01*
X144721262Y-112058838D01*
X144186275Y-112059226D01*
X144167225Y-112085198D01*
X144141190Y-112112618D01*
X144110722Y-112128728D01*
X144073717Y-112134585D01*
X144068800Y-112134650D01*
X144030881Y-112129937D01*
X143999747Y-112115097D01*
X143973297Y-112089073D01*
X143970375Y-112085198D01*
X143951325Y-112059226D01*
X143598802Y-112058838D01*
X143246280Y-112058450D01*
X143234758Y-112090891D01*
X143215348Y-112128222D01*
X143185969Y-112162177D01*
X143149341Y-112189886D01*
X143132175Y-112199102D01*
X143109364Y-112208863D01*
X143088879Y-112214390D01*
X143065255Y-112216787D01*
X143042582Y-112217194D01*
X143014044Y-112216518D01*
X142992933Y-112213739D01*
X142974015Y-112207739D01*
X142953682Y-112198230D01*
X142934069Y-112188546D01*
X142919182Y-112181682D01*
X142912444Y-112179180D01*
X142907397Y-112184055D01*
X142897364Y-112197087D01*
X142884245Y-112215761D01*
X142880076Y-112221962D01*
X142827236Y-112294956D01*
X142765793Y-112368964D01*
X142698983Y-112440391D01*
X142630038Y-112505646D01*
X142606608Y-112525853D01*
X142506636Y-112602186D01*
X142401517Y-112667385D01*
X142290553Y-112721777D01*
X142173048Y-112765689D01*
X142048304Y-112799448D01*
X142001875Y-112809104D01*
X141988010Y-112811677D01*
X141974362Y-112813909D01*
X141959930Y-112815831D01*
X141943712Y-112817471D01*
X141924706Y-112818862D01*
X141901912Y-112820032D01*
X141874327Y-112821011D01*
X141840950Y-112821831D01*
X141800780Y-112822520D01*
X141752816Y-112823110D01*
X141696055Y-112823629D01*
X141629496Y-112824109D01*
X141552138Y-112824580D01*
X141472649Y-112825019D01*
X141383116Y-112825466D01*
X141305521Y-112825771D01*
X141239100Y-112825924D01*
X141183092Y-112825915D01*
X141136735Y-112825734D01*
X141099266Y-112825373D01*
X141069922Y-112824820D01*
X141047942Y-112824066D01*
X141032564Y-112823102D01*
X141023025Y-112821918D01*
X141018563Y-112820503D01*
X141018132Y-112819207D01*
X141024112Y-112810930D01*
X141036181Y-112795507D01*
X141052285Y-112775535D01*
X141062327Y-112763300D01*
X141109899Y-112699800D01*
X141262870Y-112699800D01*
X141552997Y-112699676D01*
X141632189Y-112699511D01*
X141699743Y-112699074D01*
X141756715Y-112698336D01*
X141804166Y-112697271D01*
X141843153Y-112695852D01*
X141874734Y-112694051D01*
X141899970Y-112691843D01*
X141910665Y-112690560D01*
X142032230Y-112668243D01*
X142148603Y-112634374D01*
X142259646Y-112589011D01*
X142365219Y-112532210D01*
X142460443Y-112467613D01*
X142498366Y-112436958D01*
X142540884Y-112399075D01*
X142584984Y-112356906D01*
X142627656Y-112313394D01*
X142665888Y-112271482D01*
X142687819Y-112245391D01*
X142713252Y-112212633D01*
X142739052Y-112177386D01*
X142764063Y-112141441D01*
X142787132Y-112106592D01*
X142807104Y-112074629D01*
X142822826Y-112047347D01*
X142833142Y-112026536D01*
X142836899Y-112013990D01*
X142836900Y-112013897D01*
X142833167Y-112001191D01*
X142832995Y-112000844D01*
X142927884Y-112000844D01*
X142928925Y-112034375D01*
X142939273Y-112065229D01*
X142957344Y-112091931D01*
X142981552Y-112113005D01*
X143010312Y-112126978D01*
X143042039Y-112132373D01*
X143075148Y-112127715D01*
X143099719Y-112116863D01*
X143115106Y-112105151D01*
X143132022Y-112088462D01*
X143137851Y-112081673D01*
X143148687Y-112066867D01*
X143154636Y-112053251D01*
X143157122Y-112035977D01*
X143157575Y-112014503D01*
X143156839Y-111989717D01*
X143153742Y-111972697D01*
X143146947Y-111958553D01*
X143139376Y-111947877D01*
X143111447Y-111920066D01*
X143079683Y-111902903D01*
X143046159Y-111896202D01*
X143012948Y-111899774D01*
X142982124Y-111913433D01*
X142955760Y-111936990D01*
X142937735Y-111966112D01*
X142927884Y-112000844D01*
X142832995Y-112000844D01*
X142822386Y-111979499D01*
X142805178Y-111949956D01*
X142782165Y-111913699D01*
X142780945Y-111911839D01*
X142702524Y-111802300D01*
X142618541Y-111703858D01*
X142529148Y-111616629D01*
X142434495Y-111540727D01*
X142334734Y-111476268D01*
X142230017Y-111423367D01*
X142120494Y-111382140D01*
X142063950Y-111365932D01*
X142030503Y-111357618D01*
X141999003Y-111350602D01*
X141968002Y-111344778D01*
X141936052Y-111340038D01*
X141901704Y-111336275D01*
X141863509Y-111333381D01*
X141820020Y-111331250D01*
X141769787Y-111329773D01*
X141711363Y-111328845D01*
X141643299Y-111328356D01*
X141564146Y-111328201D01*
X141554575Y-111328200D01*
X141263501Y-111328200D01*
X141303429Y-111405987D01*
X141356867Y-111523638D01*
X141398477Y-111644840D01*
X141428176Y-111768698D01*
X141445882Y-111894318D01*
X141451513Y-112020807D01*
X141444986Y-112147269D01*
X141426220Y-112272810D01*
X141395132Y-112396537D01*
X141394633Y-112398175D01*
X141376154Y-112453897D01*
X141354418Y-112511719D01*
X141331012Y-112567786D01*
X141307528Y-112618244D01*
X141290538Y-112650587D01*
X141262870Y-112699800D01*
X141109899Y-112699800D01*
X141112668Y-112696105D01*
X141160265Y-112620543D01*
X141202534Y-112540945D01*
X141226109Y-112488662D01*
X141236051Y-112464850D01*
X140229900Y-112464850D01*
X140094186Y-112464865D01*
X139970649Y-112464915D01*
X139858769Y-112465003D01*
X139758023Y-112465134D01*
X139667889Y-112465312D01*
X139587845Y-112465541D01*
X139517370Y-112465826D01*
X139455941Y-112466170D01*
X139403036Y-112466579D01*
X139358134Y-112467057D01*
X139320713Y-112467607D01*
X139290250Y-112468234D01*
X139266224Y-112468943D01*
X139248113Y-112469738D01*
X139235394Y-112470622D01*
X139227547Y-112471601D01*
X139224048Y-112472678D01*
X139223750Y-112473141D01*
X139219317Y-112485580D01*
X139207859Y-112502605D01*
X139192139Y-112520706D01*
X139174918Y-112536374D01*
X139172588Y-112538141D01*
X139137912Y-112556496D01*
X139100755Y-112563806D01*
X139063286Y-112560844D01*
X139027673Y-112548384D01*
X138996082Y-112527200D01*
X138970682Y-112498066D01*
X138953640Y-112461754D01*
X138953051Y-112459783D01*
X138946913Y-112419371D01*
X138951649Y-112382145D01*
X138965630Y-112349064D01*
X138987227Y-112321087D01*
X139014811Y-112299172D01*
X139046752Y-112284278D01*
X139081423Y-112277364D01*
X139117194Y-112279388D01*
X139152436Y-112291310D01*
X139185520Y-112314087D01*
X139191285Y-112319579D01*
X139206438Y-112336619D01*
X139217615Y-112352654D01*
X139221352Y-112360910D01*
X139225126Y-112375950D01*
X141267548Y-112375950D01*
X141278171Y-112339437D01*
X141297560Y-112259759D01*
X141311795Y-112173643D01*
X141320418Y-112085533D01*
X141322974Y-111999871D01*
X141320052Y-111932537D01*
X141313106Y-111867692D01*
X141303361Y-111802705D01*
X141291546Y-111741831D01*
X141278392Y-111689322D01*
X141278181Y-111688597D01*
X141267569Y-111652119D01*
X140166725Y-111648875D01*
X140165082Y-111308668D01*
X140163721Y-111026565D01*
X140252449Y-111026565D01*
X140252449Y-111294857D01*
X140252450Y-111563150D01*
X141236051Y-111563150D01*
X141226192Y-111539337D01*
X141212829Y-111509378D01*
X141195446Y-111473684D01*
X141175964Y-111435909D01*
X141156304Y-111399706D01*
X141138387Y-111368730D01*
X141127218Y-111351081D01*
X141111530Y-111328976D01*
X141090917Y-111301517D01*
X141068667Y-111273033D01*
X141056800Y-111258350D01*
X141012522Y-111204375D01*
X141427823Y-111202561D01*
X141514020Y-111202225D01*
X141588607Y-111202037D01*
X141652672Y-111202014D01*
X141707307Y-111202176D01*
X141753599Y-111202541D01*
X141792639Y-111203128D01*
X141825514Y-111203955D01*
X141853316Y-111205040D01*
X141877133Y-111206404D01*
X141898053Y-111208063D01*
X141917168Y-111210037D01*
X141925675Y-111211059D01*
X142053902Y-111233356D01*
X142177978Y-111267564D01*
X142297348Y-111313413D01*
X142411461Y-111370634D01*
X142519762Y-111438959D01*
X142621700Y-111518118D01*
X142694186Y-111584972D01*
X142736878Y-111629167D01*
X142779653Y-111676846D01*
X142820122Y-111725150D01*
X142855898Y-111771220D01*
X142884593Y-111812196D01*
X142886774Y-111815579D01*
X142898367Y-111832949D01*
X142907350Y-111845002D01*
X142911395Y-111848900D01*
X142918333Y-111846294D01*
X142933435Y-111839444D01*
X142953515Y-111829798D01*
X142954730Y-111829201D01*
X142975279Y-111819604D01*
X142991856Y-111813945D01*
X143009020Y-111811400D01*
X143031328Y-111811143D01*
X143050759Y-111811813D01*
X143083500Y-111814089D01*
X143108003Y-111818361D01*
X143128682Y-111825539D01*
X143137282Y-111829635D01*
X143170492Y-111851721D01*
X143200641Y-111881277D01*
X143224240Y-111914458D01*
X143234688Y-111936911D01*
X143246280Y-111969550D01*
X143598802Y-111969471D01*
X143951325Y-111969392D01*
X143965647Y-111947281D01*
X143981143Y-111928583D01*
X143999980Y-111912263D01*
X144002081Y-111910847D01*
X144024192Y-111896525D01*
X144024338Y-111432975D01*
X143800506Y-111350782D01*
X143769446Y-111339371D01*
X143727284Y-111323871D01*
X143674838Y-111304583D01*
X143612926Y-111281808D01*
X143542362Y-111255847D01*
X143463965Y-111227000D01*
X143378551Y-111195568D01*
X143286936Y-111161851D01*
X143189938Y-111126149D01*
X143088373Y-111088765D01*
X142983059Y-111049997D01*
X142874810Y-111010147D01*
X142764446Y-110969515D01*
X142652781Y-110928402D01*
X142581732Y-110902242D01*
X141586790Y-110535894D01*
X141178382Y-110686221D01*
X141100280Y-110714965D01*
X141018449Y-110745075D01*
X140934865Y-110775822D01*
X140851505Y-110806482D01*
X140770345Y-110836326D01*
X140693363Y-110864628D01*
X140622533Y-110890662D01*
X140559834Y-110913699D01*
X140511212Y-110931557D01*
X140252449Y-111026565D01*
X140163721Y-111026565D01*
X140163440Y-110968462D01*
X140485757Y-110849479D01*
X140561737Y-110821438D01*
X140646464Y-110790179D01*
X140736779Y-110756870D01*
X140829521Y-110722673D01*
X140921530Y-110688755D01*
X141009647Y-110656281D01*
X141090710Y-110626415D01*
X141130298Y-110611835D01*
X141191044Y-110589405D01*
X141248053Y-110568238D01*
X141300242Y-110548744D01*
X141346522Y-110531336D01*
X141385809Y-110516425D01*
X141417015Y-110504421D01*
X141439055Y-110495737D01*
X141450842Y-110490783D01*
X141452561Y-110489804D01*
X141446783Y-110487048D01*
X141430142Y-110480321D01*
X141403697Y-110470023D01*
X141368508Y-110456557D01*
X141325633Y-110440323D01*
X141276134Y-110421724D01*
X141221070Y-110401161D01*
X141161499Y-110379036D01*
X141114462Y-110361645D01*
X141038509Y-110333614D01*
X140955178Y-110302859D01*
X140867297Y-110270424D01*
X140777694Y-110237353D01*
X140689196Y-110204688D01*
X140604631Y-110173475D01*
X140526827Y-110144756D01*
X140469883Y-110123736D01*
X140163441Y-110010616D01*
X140165083Y-109670870D01*
X140166310Y-109416850D01*
X140252450Y-109416850D01*
X140252574Y-109685137D01*
X140252699Y-109953425D01*
X140520862Y-110051567D01*
X140576937Y-110072104D01*
X140642851Y-110096268D01*
X140716525Y-110123297D01*
X140795882Y-110152427D01*
X140878844Y-110182895D01*
X140963332Y-110213937D01*
X141047268Y-110244792D01*
X141128573Y-110274695D01*
X141187942Y-110296541D01*
X141586860Y-110443372D01*
X142597642Y-110071134D01*
X142710222Y-110029677D01*
X142821804Y-109988596D01*
X142931593Y-109948182D01*
X143038799Y-109908725D01*
X143142630Y-109870518D01*
X143242293Y-109833850D01*
X143336996Y-109799014D01*
X143425947Y-109766302D01*
X143508354Y-109736003D01*
X143583425Y-109708411D01*
X143650368Y-109683815D01*
X143708390Y-109662507D01*
X143756701Y-109644779D01*
X143794506Y-109630922D01*
X143816269Y-109622960D01*
X144024113Y-109547025D01*
X144024153Y-109315250D01*
X144024192Y-109083475D01*
X144002081Y-109069152D01*
X143983383Y-109053656D01*
X143967063Y-109034819D01*
X143965647Y-109032718D01*
X143951325Y-109010607D01*
X143601977Y-109010528D01*
X143252630Y-109010450D01*
X143241710Y-109041198D01*
X143221874Y-109079389D01*
X143191783Y-109113944D01*
X143153833Y-109142320D01*
X143138643Y-109150565D01*
X143117874Y-109160276D01*
X143101184Y-109166011D01*
X143083991Y-109168608D01*
X143061715Y-109168908D01*
X143042140Y-109168261D01*
X143011504Y-109166335D01*
X142988842Y-109162739D01*
X142969440Y-109156410D01*
X142951431Y-109147792D01*
X142916738Y-109129559D01*
X142906981Y-109144371D01*
X142863626Y-109205689D01*
X142813158Y-109269480D01*
X142757919Y-109333204D01*
X142700251Y-109394322D01*
X142642495Y-109450292D01*
X142586993Y-109498575D01*
X142563320Y-109517161D01*
X142456835Y-109589717D01*
X142344443Y-109651040D01*
X142226117Y-109701141D01*
X142101831Y-109740031D01*
X142008225Y-109761177D01*
X141994330Y-109763738D01*
X141980619Y-109765960D01*
X141966090Y-109767873D01*
X141949741Y-109769507D01*
X141930568Y-109770892D01*
X141907569Y-109772057D01*
X141879743Y-109773033D01*
X141846086Y-109773850D01*
X141805596Y-109774538D01*
X141757270Y-109775127D01*
X141700106Y-109775647D01*
X141633102Y-109776128D01*
X141555255Y-109776600D01*
X141479587Y-109777017D01*
X141404516Y-109777372D01*
X141333268Y-109777614D01*
X141266841Y-109777744D01*
X141206238Y-109777767D01*
X141152457Y-109777683D01*
X141106499Y-109777496D01*
X141069364Y-109777208D01*
X141042052Y-109776822D01*
X141025563Y-109776340D01*
X141020800Y-109775842D01*
X141024574Y-109769820D01*
X141034905Y-109755920D01*
X141050300Y-109736087D01*
X141069270Y-109712268D01*
X141073331Y-109707235D01*
X141096822Y-109677005D01*
X141120585Y-109644414D01*
X141141654Y-109613639D01*
X141155552Y-109591475D01*
X141170231Y-109565349D01*
X141185841Y-109535891D01*
X141201207Y-109505530D01*
X141215152Y-109476697D01*
X141226499Y-109451822D01*
X141234072Y-109433334D01*
X141236700Y-109423851D01*
X141232587Y-109422445D01*
X141219943Y-109421214D01*
X141198312Y-109420150D01*
X141167236Y-109419247D01*
X141126258Y-109418499D01*
X141074920Y-109417899D01*
X141012766Y-109417441D01*
X140939337Y-109417117D01*
X140854177Y-109416923D01*
X140756829Y-109416850D01*
X140252450Y-109416850D01*
X140166310Y-109416850D01*
X140166725Y-109331125D01*
X140720076Y-109329502D01*
X141273427Y-109327880D01*
X141286500Y-109278702D01*
X141297762Y-109234895D01*
X141306429Y-109196876D01*
X141312829Y-109161783D01*
X141317292Y-109126756D01*
X141320144Y-109088933D01*
X141321716Y-109045452D01*
X141322334Y-108993453D01*
X141322389Y-108966000D01*
X141322098Y-108909143D01*
X141321004Y-108862116D01*
X141318779Y-108822057D01*
X141315095Y-108786104D01*
X141309623Y-108751396D01*
X141302035Y-108715072D01*
X141292003Y-108674269D01*
X141286491Y-108653262D01*
X141273408Y-108604050D01*
X139225126Y-108604050D01*
X139221352Y-108619089D01*
X139214863Y-108631798D01*
X139202153Y-108648599D01*
X139191285Y-108660420D01*
X139158780Y-108685315D01*
X139123816Y-108699177D01*
X139088020Y-108702963D01*
X139053022Y-108697634D01*
X139020451Y-108684147D01*
X138991937Y-108663461D01*
X138969107Y-108636535D01*
X138953591Y-108604328D01*
X138947019Y-108567798D01*
X138951018Y-108527904D01*
X138953051Y-108520216D01*
X138969623Y-108483569D01*
X138994660Y-108454061D01*
X139025995Y-108432465D01*
X139061461Y-108419555D01*
X139098889Y-108416105D01*
X139136112Y-108422887D01*
X139170962Y-108440677D01*
X139172588Y-108441858D01*
X139189800Y-108456918D01*
X139205890Y-108474892D01*
X139218097Y-108492273D01*
X139223658Y-108505550D01*
X139223750Y-108506858D01*
X139225645Y-108507975D01*
X139231677Y-108508992D01*
X139242369Y-108509912D01*
X139258241Y-108510742D01*
X139279813Y-108511484D01*
X139307608Y-108512143D01*
X139342147Y-108512724D01*
X139383949Y-108513230D01*
X139433538Y-108513666D01*
X139491433Y-108514037D01*
X139558156Y-108514346D01*
X139634228Y-108514597D01*
X139720171Y-108514796D01*
X139816504Y-108514946D01*
X139923750Y-108515052D01*
X140042430Y-108515117D01*
X140173064Y-108515147D01*
X140233050Y-108515150D01*
X141242351Y-108515150D01*
X141226825Y-108480043D01*
X141192082Y-108406631D01*
X141156163Y-108341833D01*
X141116640Y-108281629D01*
X141115549Y-108280200D01*
X141268617Y-108280200D01*
X141299946Y-108338937D01*
X141344820Y-108432803D01*
X141383908Y-108534376D01*
X141415666Y-108639393D01*
X141429245Y-108696125D01*
X141441987Y-108765960D01*
X141450213Y-108838215D01*
X141454273Y-108916627D01*
X141454854Y-108969175D01*
X141449587Y-109093589D01*
X141433947Y-109212134D01*
X141407439Y-109326888D01*
X141369571Y-109439928D01*
X141319848Y-109553333D01*
X141312763Y-109567662D01*
X141270648Y-109651800D01*
X141553711Y-109651747D01*
X141614905Y-109651588D01*
X141674187Y-109651154D01*
X141729919Y-109650476D01*
X141780460Y-109649587D01*
X141824173Y-109648519D01*
X141859417Y-109647302D01*
X141884555Y-109645970D01*
X141893878Y-109645154D01*
X142015677Y-109625031D01*
X142132647Y-109593211D01*
X142244480Y-109549862D01*
X142350870Y-109495154D01*
X142451509Y-109429256D01*
X142546091Y-109352339D01*
X142634308Y-109264571D01*
X142681037Y-109210475D01*
X142714691Y-109168224D01*
X142746409Y-109126259D01*
X142775227Y-109086031D01*
X142800185Y-109048993D01*
X142820320Y-109016597D01*
X142834671Y-108990295D01*
X142841523Y-108973397D01*
X142932181Y-108973397D01*
X142939155Y-109006329D01*
X142955551Y-109036260D01*
X142980918Y-109060955D01*
X143012396Y-109077348D01*
X143033904Y-109084084D01*
X143050558Y-109085812D01*
X143069061Y-109082800D01*
X143079590Y-109080020D01*
X143111081Y-109065144D01*
X143137550Y-109040987D01*
X143156690Y-109010565D01*
X143166192Y-108976895D01*
X143166821Y-108966000D01*
X143161573Y-108935510D01*
X143147557Y-108904739D01*
X143127365Y-108879084D01*
X143123356Y-108875493D01*
X143103400Y-108862553D01*
X143079052Y-108851883D01*
X143056319Y-108845934D01*
X143049625Y-108845420D01*
X143027430Y-108849431D01*
X143001727Y-108859841D01*
X142978131Y-108874215D01*
X142972305Y-108878934D01*
X142948305Y-108907465D01*
X142935081Y-108939697D01*
X142932181Y-108973397D01*
X142841523Y-108973397D01*
X142842277Y-108971540D01*
X142843250Y-108965521D01*
X142839989Y-108955086D01*
X142831156Y-108936805D01*
X142818174Y-108913432D01*
X142805412Y-108892364D01*
X142729283Y-108781342D01*
X142647173Y-108680859D01*
X142559364Y-108591135D01*
X142466138Y-108512387D01*
X142367777Y-108444834D01*
X142264563Y-108388695D01*
X142156778Y-108344188D01*
X142061418Y-108315577D01*
X142029271Y-108307819D01*
X141998959Y-108301277D01*
X141969044Y-108295849D01*
X141938088Y-108291432D01*
X141904653Y-108287926D01*
X141867303Y-108285230D01*
X141824598Y-108283240D01*
X141775102Y-108281857D01*
X141717377Y-108280979D01*
X141649986Y-108280503D01*
X141571489Y-108280329D01*
X141562221Y-108280323D01*
X141268617Y-108280200D01*
X141115549Y-108280200D01*
X141071084Y-108221994D01*
X141070923Y-108221796D01*
X141051863Y-108198089D01*
X141036137Y-108177973D01*
X141025281Y-108163456D01*
X141020833Y-108156543D01*
X141020800Y-108156360D01*
X141026981Y-108155759D01*
X141044856Y-108155255D01*
X141073416Y-108154851D01*
X141111654Y-108154550D01*
X141158563Y-108154355D01*
X141213137Y-108154270D01*
X141274367Y-108154297D01*
X141274367Y-108154297D01*
G37*
X141274367Y-108154297D02*
X141341247Y-108154439D01*
X141412770Y-108154700D01*
X141473237Y-108154999D01*
X141563631Y-108155503D01*
X141642421Y-108156001D01*
X141710705Y-108156570D01*
X141769579Y-108157288D01*
X141820139Y-108158232D01*
X141863482Y-108159480D01*
X141900704Y-108161109D01*
X141932902Y-108163195D01*
X141961172Y-108165818D01*
X141986610Y-108169053D01*
X142010315Y-108172978D01*
X142033381Y-108177671D01*
X142056905Y-108183210D01*
X142081984Y-108189670D01*
X142109714Y-108197131D01*
X142123511Y-108200878D01*
X142237280Y-108238096D01*
X142348906Y-108286988D01*
X142456783Y-108346541D01*
X142559305Y-108415740D01*
X142654866Y-108493572D01*
X142741858Y-108579022D01*
X142767050Y-108607147D01*
X142791900Y-108636650D01*
X142819677Y-108671036D01*
X142847958Y-108707178D01*
X142874320Y-108741951D01*
X142896342Y-108772228D01*
X142906981Y-108787716D01*
X142916738Y-108802440D01*
X142951431Y-108784207D01*
X142971845Y-108774613D01*
X142991396Y-108768683D01*
X143014797Y-108765354D01*
X143042140Y-108763738D01*
X143070237Y-108762987D01*
X143090247Y-108763983D01*
X143106751Y-108767565D01*
X143124327Y-108774572D01*
X143138643Y-108781434D01*
X143178844Y-108806950D01*
X143212053Y-108839565D01*
X143235873Y-108876734D01*
X143241710Y-108890801D01*
X143252630Y-108921550D01*
X143601977Y-108921161D01*
X143951325Y-108920773D01*
X143970375Y-108894801D01*
X143993669Y-108868878D01*
X144019307Y-108853377D01*
X144050499Y-108846833D01*
X144075850Y-108846719D01*
X144102078Y-108849140D01*
X144120757Y-108854234D01*
X144136989Y-108863547D01*
X144140944Y-108866473D01*
X144157733Y-108881841D01*
X144171189Y-108898493D01*
X144173744Y-108902828D01*
X144183426Y-108921550D01*
X145254873Y-108921550D01*
X145258647Y-108906510D01*
X145265136Y-108893801D01*
X145277846Y-108877000D01*
X145288714Y-108865179D01*
X145321219Y-108840284D01*
X145356183Y-108826422D01*
X145391979Y-108822636D01*
X145426977Y-108827965D01*
X145459548Y-108841452D01*
X145488062Y-108862138D01*
X145510892Y-108889064D01*
X145526408Y-108921271D01*
X145532980Y-108957801D01*
X145528981Y-108997695D01*
X145526948Y-109005383D01*
X145510376Y-109042030D01*
X145485339Y-109071538D01*
X145454004Y-109093134D01*
X145418538Y-109106044D01*
X145381110Y-109109494D01*
X145343887Y-109102712D01*
X145309037Y-109084922D01*
X145307411Y-109083741D01*
X145290199Y-109068681D01*
X145274109Y-109050707D01*
X145261902Y-109033326D01*
X145256341Y-109020049D01*
X145256250Y-109018741D01*
X145254265Y-109017231D01*
X145247838Y-109015908D01*
X145236258Y-109014760D01*
X145218813Y-109013777D01*
X145194794Y-109012948D01*
X145163489Y-109012261D01*
X145124187Y-109011707D01*
X145076178Y-109011273D01*
X145018751Y-109010950D01*
X144951195Y-109010725D01*
X144872800Y-109010589D01*
X144782854Y-109010531D01*
X144721262Y-109010528D01*
X144186275Y-109010607D01*
X144171952Y-109032718D01*
X144156456Y-109051416D01*
X144137619Y-109067736D01*
X144135518Y-109069152D01*
X144113407Y-109083475D01*
X144113328Y-109343860D01*
X144113250Y-109604246D01*
X143854487Y-109699780D01*
X143818452Y-109713080D01*
X143771391Y-109730443D01*
X143714198Y-109751539D01*
X143647763Y-109776041D01*
X143572979Y-109803618D01*
X143490737Y-109833943D01*
X143401930Y-109866686D01*
X143307448Y-109901520D01*
X143208183Y-109938114D01*
X143105029Y-109976140D01*
X142998875Y-110015270D01*
X142890614Y-110055175D01*
X142781138Y-110095525D01*
X142671339Y-110135993D01*
X142657564Y-110141069D01*
X142552810Y-110179696D01*
X142451342Y-110217151D01*
X142353795Y-110253196D01*
X142260805Y-110287596D01*
X142173009Y-110320114D01*
X142091042Y-110350514D01*
X142015539Y-110378559D01*
X141947138Y-110404013D01*
X141886473Y-110426638D01*
X141834181Y-110446199D01*
X141790898Y-110462459D01*
X141757258Y-110475181D01*
X141733899Y-110484129D01*
X141721456Y-110489067D01*
X141719491Y-110490000D01*
X141725353Y-110492518D01*
X141742481Y-110499171D01*
X141770219Y-110509716D01*
X141807913Y-110523908D01*
X141854907Y-110541504D01*
X141910546Y-110562260D01*
X141974174Y-110585933D01*
X142045136Y-110612280D01*
X142122777Y-110641057D01*
X142206441Y-110672020D01*
X142295473Y-110704926D01*
X142389218Y-110739532D01*
X142487020Y-110775593D01*
X142588224Y-110812867D01*
X142603676Y-110818554D01*
X142711745Y-110858330D01*
X142820513Y-110898368D01*
X142928977Y-110938298D01*
X143036134Y-110977752D01*
X143140982Y-111016360D01*
X143242518Y-111053752D01*
X143339739Y-111089560D01*
X143431644Y-111123415D01*
X143517228Y-111154946D01*
X143595490Y-111183784D01*
X143665427Y-111209561D01*
X143726036Y-111231907D01*
X143776315Y-111250453D01*
X143800512Y-111259383D01*
X144113250Y-111374832D01*
X144113328Y-111635678D01*
X144113407Y-111896525D01*
X144135958Y-111911136D01*
X144154236Y-111926421D01*
X144169704Y-111944893D01*
X144171432Y-111947649D01*
X144184354Y-111969550D01*
X145254873Y-111969550D01*
X145258647Y-111954510D01*
X145265136Y-111941801D01*
X145277846Y-111925000D01*
X145288714Y-111913179D01*
X145321219Y-111888284D01*
X145356183Y-111874422D01*
X145391979Y-111870636D01*
X145426977Y-111875965D01*
X145459548Y-111889452D01*
X145488062Y-111910138D01*
X145510892Y-111937064D01*
X145526408Y-111969271D01*
X145532980Y-112005801D01*
X145528981Y-112045695D01*
X145526948Y-112053383D01*
X145510376Y-112090030D01*
X145485339Y-112119538D01*
X145454004Y-112141134D01*
X145418538Y-112154044D01*
X145381110Y-112157494D01*
X145343887Y-112150712D01*
X145309037Y-112132922D01*
X145307411Y-112131741D01*
X145290199Y-112116681D01*
X145274109Y-112098707D01*
X145261902Y-112081326D01*
X145256341Y-112068049D01*
X145256249Y-112066741D01*
X145254270Y-112065232D01*
X145247856Y-112063913D01*
X145236298Y-112062772D01*
X145218884Y-112061799D01*
X145194903Y-112060984D01*
X145163644Y-112060316D01*
X145124395Y-112059784D01*
X145076445Y-112059378D01*
X145019084Y-112059088D01*
X144951599Y-112058902D01*
X144873280Y-112058811D01*
X144783416Y-112058804D01*
X144721262Y-112058838D01*
X144186275Y-112059226D01*
X144167225Y-112085198D01*
X144141190Y-112112618D01*
X144110722Y-112128728D01*
X144073717Y-112134585D01*
X144068800Y-112134650D01*
X144030881Y-112129937D01*
X143999747Y-112115097D01*
X143973297Y-112089073D01*
X143970375Y-112085198D01*
X143951325Y-112059226D01*
X143598802Y-112058838D01*
X143246280Y-112058450D01*
X143234758Y-112090891D01*
X143215348Y-112128222D01*
X143185969Y-112162177D01*
X143149341Y-112189886D01*
X143132175Y-112199102D01*
X143109364Y-112208863D01*
X143088879Y-112214390D01*
X143065255Y-112216787D01*
X143042582Y-112217194D01*
X143014044Y-112216518D01*
X142992933Y-112213739D01*
X142974015Y-112207739D01*
X142953682Y-112198230D01*
X142934069Y-112188546D01*
X142919182Y-112181682D01*
X142912444Y-112179180D01*
X142907397Y-112184055D01*
X142897364Y-112197087D01*
X142884245Y-112215761D01*
X142880076Y-112221962D01*
X142827236Y-112294956D01*
X142765793Y-112368964D01*
X142698983Y-112440391D01*
X142630038Y-112505646D01*
X142606608Y-112525853D01*
X142506636Y-112602186D01*
X142401517Y-112667385D01*
X142290553Y-112721777D01*
X142173048Y-112765689D01*
X142048304Y-112799448D01*
X142001875Y-112809104D01*
X141988010Y-112811677D01*
X141974362Y-112813909D01*
X141959930Y-112815831D01*
X141943712Y-112817471D01*
X141924706Y-112818862D01*
X141901912Y-112820032D01*
X141874327Y-112821011D01*
X141840950Y-112821831D01*
X141800780Y-112822520D01*
X141752816Y-112823110D01*
X141696055Y-112823629D01*
X141629496Y-112824109D01*
X141552138Y-112824580D01*
X141472649Y-112825019D01*
X141383116Y-112825466D01*
X141305521Y-112825771D01*
X141239100Y-112825924D01*
X141183092Y-112825915D01*
X141136735Y-112825734D01*
X141099266Y-112825373D01*
X141069922Y-112824820D01*
X141047942Y-112824066D01*
X141032564Y-112823102D01*
X141023025Y-112821918D01*
X141018563Y-112820503D01*
X141018132Y-112819207D01*
X141024112Y-112810930D01*
X141036181Y-112795507D01*
X141052285Y-112775535D01*
X141062327Y-112763300D01*
X141109899Y-112699800D01*
X141262870Y-112699800D01*
X141552997Y-112699676D01*
X141632189Y-112699511D01*
X141699743Y-112699074D01*
X141756715Y-112698336D01*
X141804166Y-112697271D01*
X141843153Y-112695852D01*
X141874734Y-112694051D01*
X141899970Y-112691843D01*
X141910665Y-112690560D01*
X142032230Y-112668243D01*
X142148603Y-112634374D01*
X142259646Y-112589011D01*
X142365219Y-112532210D01*
X142460443Y-112467613D01*
X142498366Y-112436958D01*
X142540884Y-112399075D01*
X142584984Y-112356906D01*
X142627656Y-112313394D01*
X142665888Y-112271482D01*
X142687819Y-112245391D01*
X142713252Y-112212633D01*
X142739052Y-112177386D01*
X142764063Y-112141441D01*
X142787132Y-112106592D01*
X142807104Y-112074629D01*
X142822826Y-112047347D01*
X142833142Y-112026536D01*
X142836899Y-112013990D01*
X142836900Y-112013897D01*
X142833167Y-112001191D01*
X142832995Y-112000844D01*
X142927884Y-112000844D01*
X142928925Y-112034375D01*
X142939273Y-112065229D01*
X142957344Y-112091931D01*
X142981552Y-112113005D01*
X143010312Y-112126978D01*
X143042039Y-112132373D01*
X143075148Y-112127715D01*
X143099719Y-112116863D01*
X143115106Y-112105151D01*
X143132022Y-112088462D01*
X143137851Y-112081673D01*
X143148687Y-112066867D01*
X143154636Y-112053251D01*
X143157122Y-112035977D01*
X143157575Y-112014503D01*
X143156839Y-111989717D01*
X143153742Y-111972697D01*
X143146947Y-111958553D01*
X143139376Y-111947877D01*
X143111447Y-111920066D01*
X143079683Y-111902903D01*
X143046159Y-111896202D01*
X143012948Y-111899774D01*
X142982124Y-111913433D01*
X142955760Y-111936990D01*
X142937735Y-111966112D01*
X142927884Y-112000844D01*
X142832995Y-112000844D01*
X142822386Y-111979499D01*
X142805178Y-111949956D01*
X142782165Y-111913699D01*
X142780945Y-111911839D01*
X142702524Y-111802300D01*
X142618541Y-111703858D01*
X142529148Y-111616629D01*
X142434495Y-111540727D01*
X142334734Y-111476268D01*
X142230017Y-111423367D01*
X142120494Y-111382140D01*
X142063950Y-111365932D01*
X142030503Y-111357618D01*
X141999003Y-111350602D01*
X141968002Y-111344778D01*
X141936052Y-111340038D01*
X141901704Y-111336275D01*
X141863509Y-111333381D01*
X141820020Y-111331250D01*
X141769787Y-111329773D01*
X141711363Y-111328845D01*
X141643299Y-111328356D01*
X141564146Y-111328201D01*
X141554575Y-111328200D01*
X141263501Y-111328200D01*
X141303429Y-111405987D01*
X141356867Y-111523638D01*
X141398477Y-111644840D01*
X141428176Y-111768698D01*
X141445882Y-111894318D01*
X141451513Y-112020807D01*
X141444986Y-112147269D01*
X141426220Y-112272810D01*
X141395132Y-112396537D01*
X141394633Y-112398175D01*
X141376154Y-112453897D01*
X141354418Y-112511719D01*
X141331012Y-112567786D01*
X141307528Y-112618244D01*
X141290538Y-112650587D01*
X141262870Y-112699800D01*
X141109899Y-112699800D01*
X141112668Y-112696105D01*
X141160265Y-112620543D01*
X141202534Y-112540945D01*
X141226109Y-112488662D01*
X141236051Y-112464850D01*
X140229900Y-112464850D01*
X140094186Y-112464865D01*
X139970649Y-112464915D01*
X139858769Y-112465003D01*
X139758023Y-112465134D01*
X139667889Y-112465312D01*
X139587845Y-112465541D01*
X139517370Y-112465826D01*
X139455941Y-112466170D01*
X139403036Y-112466579D01*
X139358134Y-112467057D01*
X139320713Y-112467607D01*
X139290250Y-112468234D01*
X139266224Y-112468943D01*
X139248113Y-112469738D01*
X139235394Y-112470622D01*
X139227547Y-112471601D01*
X139224048Y-112472678D01*
X139223750Y-112473141D01*
X139219317Y-112485580D01*
X139207859Y-112502605D01*
X139192139Y-112520706D01*
X139174918Y-112536374D01*
X139172588Y-112538141D01*
X139137912Y-112556496D01*
X139100755Y-112563806D01*
X139063286Y-112560844D01*
X139027673Y-112548384D01*
X138996082Y-112527200D01*
X138970682Y-112498066D01*
X138953640Y-112461754D01*
X138953051Y-112459783D01*
X138946913Y-112419371D01*
X138951649Y-112382145D01*
X138965630Y-112349064D01*
X138987227Y-112321087D01*
X139014811Y-112299172D01*
X139046752Y-112284278D01*
X139081423Y-112277364D01*
X139117194Y-112279388D01*
X139152436Y-112291310D01*
X139185520Y-112314087D01*
X139191285Y-112319579D01*
X139206438Y-112336619D01*
X139217615Y-112352654D01*
X139221352Y-112360910D01*
X139225126Y-112375950D01*
X141267548Y-112375950D01*
X141278171Y-112339437D01*
X141297560Y-112259759D01*
X141311795Y-112173643D01*
X141320418Y-112085533D01*
X141322974Y-111999871D01*
X141320052Y-111932537D01*
X141313106Y-111867692D01*
X141303361Y-111802705D01*
X141291546Y-111741831D01*
X141278392Y-111689322D01*
X141278181Y-111688597D01*
X141267569Y-111652119D01*
X140166725Y-111648875D01*
X140165082Y-111308668D01*
X140163721Y-111026565D01*
X140252449Y-111026565D01*
X140252449Y-111294857D01*
X140252450Y-111563150D01*
X141236051Y-111563150D01*
X141226192Y-111539337D01*
X141212829Y-111509378D01*
X141195446Y-111473684D01*
X141175964Y-111435909D01*
X141156304Y-111399706D01*
X141138387Y-111368730D01*
X141127218Y-111351081D01*
X141111530Y-111328976D01*
X141090917Y-111301517D01*
X141068667Y-111273033D01*
X141056800Y-111258350D01*
X141012522Y-111204375D01*
X141427823Y-111202561D01*
X141514020Y-111202225D01*
X141588607Y-111202037D01*
X141652672Y-111202014D01*
X141707307Y-111202176D01*
X141753599Y-111202541D01*
X141792639Y-111203128D01*
X141825514Y-111203955D01*
X141853316Y-111205040D01*
X141877133Y-111206404D01*
X141898053Y-111208063D01*
X141917168Y-111210037D01*
X141925675Y-111211059D01*
X142053902Y-111233356D01*
X142177978Y-111267564D01*
X142297348Y-111313413D01*
X142411461Y-111370634D01*
X142519762Y-111438959D01*
X142621700Y-111518118D01*
X142694186Y-111584972D01*
X142736878Y-111629167D01*
X142779653Y-111676846D01*
X142820122Y-111725150D01*
X142855898Y-111771220D01*
X142884593Y-111812196D01*
X142886774Y-111815579D01*
X142898367Y-111832949D01*
X142907350Y-111845002D01*
X142911395Y-111848900D01*
X142918333Y-111846294D01*
X142933435Y-111839444D01*
X142953515Y-111829798D01*
X142954730Y-111829201D01*
X142975279Y-111819604D01*
X142991856Y-111813945D01*
X143009020Y-111811400D01*
X143031328Y-111811143D01*
X143050759Y-111811813D01*
X143083500Y-111814089D01*
X143108003Y-111818361D01*
X143128682Y-111825539D01*
X143137282Y-111829635D01*
X143170492Y-111851721D01*
X143200641Y-111881277D01*
X143224240Y-111914458D01*
X143234688Y-111936911D01*
X143246280Y-111969550D01*
X143598802Y-111969471D01*
X143951325Y-111969392D01*
X143965647Y-111947281D01*
X143981143Y-111928583D01*
X143999980Y-111912263D01*
X144002081Y-111910847D01*
X144024192Y-111896525D01*
X144024338Y-111432975D01*
X143800506Y-111350782D01*
X143769446Y-111339371D01*
X143727284Y-111323871D01*
X143674838Y-111304583D01*
X143612926Y-111281808D01*
X143542362Y-111255847D01*
X143463965Y-111227000D01*
X143378551Y-111195568D01*
X143286936Y-111161851D01*
X143189938Y-111126149D01*
X143088373Y-111088765D01*
X142983059Y-111049997D01*
X142874810Y-111010147D01*
X142764446Y-110969515D01*
X142652781Y-110928402D01*
X142581732Y-110902242D01*
X141586790Y-110535894D01*
X141178382Y-110686221D01*
X141100280Y-110714965D01*
X141018449Y-110745075D01*
X140934865Y-110775822D01*
X140851505Y-110806482D01*
X140770345Y-110836326D01*
X140693363Y-110864628D01*
X140622533Y-110890662D01*
X140559834Y-110913699D01*
X140511212Y-110931557D01*
X140252449Y-111026565D01*
X140163721Y-111026565D01*
X140163440Y-110968462D01*
X140485757Y-110849479D01*
X140561737Y-110821438D01*
X140646464Y-110790179D01*
X140736779Y-110756870D01*
X140829521Y-110722673D01*
X140921530Y-110688755D01*
X141009647Y-110656281D01*
X141090710Y-110626415D01*
X141130298Y-110611835D01*
X141191044Y-110589405D01*
X141248053Y-110568238D01*
X141300242Y-110548744D01*
X141346522Y-110531336D01*
X141385809Y-110516425D01*
X141417015Y-110504421D01*
X141439055Y-110495737D01*
X141450842Y-110490783D01*
X141452561Y-110489804D01*
X141446783Y-110487048D01*
X141430142Y-110480321D01*
X141403697Y-110470023D01*
X141368508Y-110456557D01*
X141325633Y-110440323D01*
X141276134Y-110421724D01*
X141221070Y-110401161D01*
X141161499Y-110379036D01*
X141114462Y-110361645D01*
X141038509Y-110333614D01*
X140955178Y-110302859D01*
X140867297Y-110270424D01*
X140777694Y-110237353D01*
X140689196Y-110204688D01*
X140604631Y-110173475D01*
X140526827Y-110144756D01*
X140469883Y-110123736D01*
X140163441Y-110010616D01*
X140165083Y-109670870D01*
X140166310Y-109416850D01*
X140252450Y-109416850D01*
X140252574Y-109685137D01*
X140252699Y-109953425D01*
X140520862Y-110051567D01*
X140576937Y-110072104D01*
X140642851Y-110096268D01*
X140716525Y-110123297D01*
X140795882Y-110152427D01*
X140878844Y-110182895D01*
X140963332Y-110213937D01*
X141047268Y-110244792D01*
X141128573Y-110274695D01*
X141187942Y-110296541D01*
X141586860Y-110443372D01*
X142597642Y-110071134D01*
X142710222Y-110029677D01*
X142821804Y-109988596D01*
X142931593Y-109948182D01*
X143038799Y-109908725D01*
X143142630Y-109870518D01*
X143242293Y-109833850D01*
X143336996Y-109799014D01*
X143425947Y-109766302D01*
X143508354Y-109736003D01*
X143583425Y-109708411D01*
X143650368Y-109683815D01*
X143708390Y-109662507D01*
X143756701Y-109644779D01*
X143794506Y-109630922D01*
X143816269Y-109622960D01*
X144024113Y-109547025D01*
X144024153Y-109315250D01*
X144024192Y-109083475D01*
X144002081Y-109069152D01*
X143983383Y-109053656D01*
X143967063Y-109034819D01*
X143965647Y-109032718D01*
X143951325Y-109010607D01*
X143601977Y-109010528D01*
X143252630Y-109010450D01*
X143241710Y-109041198D01*
X143221874Y-109079389D01*
X143191783Y-109113944D01*
X143153833Y-109142320D01*
X143138643Y-109150565D01*
X143117874Y-109160276D01*
X143101184Y-109166011D01*
X143083991Y-109168608D01*
X143061715Y-109168908D01*
X143042140Y-109168261D01*
X143011504Y-109166335D01*
X142988842Y-109162739D01*
X142969440Y-109156410D01*
X142951431Y-109147792D01*
X142916738Y-109129559D01*
X142906981Y-109144371D01*
X142863626Y-109205689D01*
X142813158Y-109269480D01*
X142757919Y-109333204D01*
X142700251Y-109394322D01*
X142642495Y-109450292D01*
X142586993Y-109498575D01*
X142563320Y-109517161D01*
X142456835Y-109589717D01*
X142344443Y-109651040D01*
X142226117Y-109701141D01*
X142101831Y-109740031D01*
X142008225Y-109761177D01*
X141994330Y-109763738D01*
X141980619Y-109765960D01*
X141966090Y-109767873D01*
X141949741Y-109769507D01*
X141930568Y-109770892D01*
X141907569Y-109772057D01*
X141879743Y-109773033D01*
X141846086Y-109773850D01*
X141805596Y-109774538D01*
X141757270Y-109775127D01*
X141700106Y-109775647D01*
X141633102Y-109776128D01*
X141555255Y-109776600D01*
X141479587Y-109777017D01*
X141404516Y-109777372D01*
X141333268Y-109777614D01*
X141266841Y-109777744D01*
X141206238Y-109777767D01*
X141152457Y-109777683D01*
X141106499Y-109777496D01*
X141069364Y-109777208D01*
X141042052Y-109776822D01*
X141025563Y-109776340D01*
X141020800Y-109775842D01*
X141024574Y-109769820D01*
X141034905Y-109755920D01*
X141050300Y-109736087D01*
X141069270Y-109712268D01*
X141073331Y-109707235D01*
X141096822Y-109677005D01*
X141120585Y-109644414D01*
X141141654Y-109613639D01*
X141155552Y-109591475D01*
X141170231Y-109565349D01*
X141185841Y-109535891D01*
X141201207Y-109505530D01*
X141215152Y-109476697D01*
X141226499Y-109451822D01*
X141234072Y-109433334D01*
X141236700Y-109423851D01*
X141232587Y-109422445D01*
X141219943Y-109421214D01*
X141198312Y-109420150D01*
X141167236Y-109419247D01*
X141126258Y-109418499D01*
X141074920Y-109417899D01*
X141012766Y-109417441D01*
X140939337Y-109417117D01*
X140854177Y-109416923D01*
X140756829Y-109416850D01*
X140252450Y-109416850D01*
X140166310Y-109416850D01*
X140166725Y-109331125D01*
X140720076Y-109329502D01*
X141273427Y-109327880D01*
X141286500Y-109278702D01*
X141297762Y-109234895D01*
X141306429Y-109196876D01*
X141312829Y-109161783D01*
X141317292Y-109126756D01*
X141320144Y-109088933D01*
X141321716Y-109045452D01*
X141322334Y-108993453D01*
X141322389Y-108966000D01*
X141322098Y-108909143D01*
X141321004Y-108862116D01*
X141318779Y-108822057D01*
X141315095Y-108786104D01*
X141309623Y-108751396D01*
X141302035Y-108715072D01*
X141292003Y-108674269D01*
X141286491Y-108653262D01*
X141273408Y-108604050D01*
X139225126Y-108604050D01*
X139221352Y-108619089D01*
X139214863Y-108631798D01*
X139202153Y-108648599D01*
X139191285Y-108660420D01*
X139158780Y-108685315D01*
X139123816Y-108699177D01*
X139088020Y-108702963D01*
X139053022Y-108697634D01*
X139020451Y-108684147D01*
X138991937Y-108663461D01*
X138969107Y-108636535D01*
X138953591Y-108604328D01*
X138947019Y-108567798D01*
X138951018Y-108527904D01*
X138953051Y-108520216D01*
X138969623Y-108483569D01*
X138994660Y-108454061D01*
X139025995Y-108432465D01*
X139061461Y-108419555D01*
X139098889Y-108416105D01*
X139136112Y-108422887D01*
X139170962Y-108440677D01*
X139172588Y-108441858D01*
X139189800Y-108456918D01*
X139205890Y-108474892D01*
X139218097Y-108492273D01*
X139223658Y-108505550D01*
X139223750Y-108506858D01*
X139225645Y-108507975D01*
X139231677Y-108508992D01*
X139242369Y-108509912D01*
X139258241Y-108510742D01*
X139279813Y-108511484D01*
X139307608Y-108512143D01*
X139342147Y-108512724D01*
X139383949Y-108513230D01*
X139433538Y-108513666D01*
X139491433Y-108514037D01*
X139558156Y-108514346D01*
X139634228Y-108514597D01*
X139720171Y-108514796D01*
X139816504Y-108514946D01*
X139923750Y-108515052D01*
X140042430Y-108515117D01*
X140173064Y-108515147D01*
X140233050Y-108515150D01*
X141242351Y-108515150D01*
X141226825Y-108480043D01*
X141192082Y-108406631D01*
X141156163Y-108341833D01*
X141116640Y-108281629D01*
X141115549Y-108280200D01*
X141268617Y-108280200D01*
X141299946Y-108338937D01*
X141344820Y-108432803D01*
X141383908Y-108534376D01*
X141415666Y-108639393D01*
X141429245Y-108696125D01*
X141441987Y-108765960D01*
X141450213Y-108838215D01*
X141454273Y-108916627D01*
X141454854Y-108969175D01*
X141449587Y-109093589D01*
X141433947Y-109212134D01*
X141407439Y-109326888D01*
X141369571Y-109439928D01*
X141319848Y-109553333D01*
X141312763Y-109567662D01*
X141270648Y-109651800D01*
X141553711Y-109651747D01*
X141614905Y-109651588D01*
X141674187Y-109651154D01*
X141729919Y-109650476D01*
X141780460Y-109649587D01*
X141824173Y-109648519D01*
X141859417Y-109647302D01*
X141884555Y-109645970D01*
X141893878Y-109645154D01*
X142015677Y-109625031D01*
X142132647Y-109593211D01*
X142244480Y-109549862D01*
X142350870Y-109495154D01*
X142451509Y-109429256D01*
X142546091Y-109352339D01*
X142634308Y-109264571D01*
X142681037Y-109210475D01*
X142714691Y-109168224D01*
X142746409Y-109126259D01*
X142775227Y-109086031D01*
X142800185Y-109048993D01*
X142820320Y-109016597D01*
X142834671Y-108990295D01*
X142841523Y-108973397D01*
X142932181Y-108973397D01*
X142939155Y-109006329D01*
X142955551Y-109036260D01*
X142980918Y-109060955D01*
X143012396Y-109077348D01*
X143033904Y-109084084D01*
X143050558Y-109085812D01*
X143069061Y-109082800D01*
X143079590Y-109080020D01*
X143111081Y-109065144D01*
X143137550Y-109040987D01*
X143156690Y-109010565D01*
X143166192Y-108976895D01*
X143166821Y-108966000D01*
X143161573Y-108935510D01*
X143147557Y-108904739D01*
X143127365Y-108879084D01*
X143123356Y-108875493D01*
X143103400Y-108862553D01*
X143079052Y-108851883D01*
X143056319Y-108845934D01*
X143049625Y-108845420D01*
X143027430Y-108849431D01*
X143001727Y-108859841D01*
X142978131Y-108874215D01*
X142972305Y-108878934D01*
X142948305Y-108907465D01*
X142935081Y-108939697D01*
X142932181Y-108973397D01*
X142841523Y-108973397D01*
X142842277Y-108971540D01*
X142843250Y-108965521D01*
X142839989Y-108955086D01*
X142831156Y-108936805D01*
X142818174Y-108913432D01*
X142805412Y-108892364D01*
X142729283Y-108781342D01*
X142647173Y-108680859D01*
X142559364Y-108591135D01*
X142466138Y-108512387D01*
X142367777Y-108444834D01*
X142264563Y-108388695D01*
X142156778Y-108344188D01*
X142061418Y-108315577D01*
X142029271Y-108307819D01*
X141998959Y-108301277D01*
X141969044Y-108295849D01*
X141938088Y-108291432D01*
X141904653Y-108287926D01*
X141867303Y-108285230D01*
X141824598Y-108283240D01*
X141775102Y-108281857D01*
X141717377Y-108280979D01*
X141649986Y-108280503D01*
X141571489Y-108280329D01*
X141562221Y-108280323D01*
X141268617Y-108280200D01*
X141115549Y-108280200D01*
X141071084Y-108221994D01*
X141070923Y-108221796D01*
X141051863Y-108198089D01*
X141036137Y-108177973D01*
X141025281Y-108163456D01*
X141020833Y-108156543D01*
X141020800Y-108156360D01*
X141026981Y-108155759D01*
X141044856Y-108155255D01*
X141073416Y-108154851D01*
X141111654Y-108154550D01*
X141158563Y-108154355D01*
X141213137Y-108154270D01*
X141274367Y-108154297D01*
G36*
X168211500Y-120650000D02*
G01*
X154876500Y-120650000D01*
X154876500Y-118268750D01*
X155575000Y-118268750D01*
X155575000Y-118638753D01*
X155805187Y-118641606D01*
X156035375Y-118644458D01*
X156040825Y-119972666D01*
X156421507Y-119972666D01*
X156424232Y-119308562D01*
X156426958Y-118644458D01*
X156657145Y-118641606D01*
X156887333Y-118638753D01*
X156887333Y-118638182D01*
X157141333Y-118638182D01*
X157630812Y-118641320D01*
X157745696Y-118642094D01*
X157841372Y-118642874D01*
X157919796Y-118643747D01*
X157982927Y-118644804D01*
X158032722Y-118646134D01*
X158071139Y-118647826D01*
X158100135Y-118649970D01*
X158121669Y-118652655D01*
X158137698Y-118655972D01*
X158150180Y-118660008D01*
X158161071Y-118664855D01*
X158162625Y-118665625D01*
X158203420Y-118696730D01*
X158230394Y-118739284D01*
X158243538Y-118788692D01*
X158242840Y-118840361D01*
X158228289Y-118889697D01*
X158199875Y-118932108D01*
X158163309Y-118960098D01*
X158151539Y-118966006D01*
X158139002Y-118970849D01*
X158123495Y-118974766D01*
X158102815Y-118977897D01*
X158074758Y-118980383D01*
X158037121Y-118982364D01*
X157987701Y-118983980D01*
X157924295Y-118985371D01*
X157844700Y-118986677D01*
X157746712Y-118988038D01*
X157718125Y-118988416D01*
X157611373Y-118989819D01*
X157523579Y-118991185D01*
X157452539Y-118992871D01*
X157396047Y-118995230D01*
X157351899Y-118998619D01*
X157317889Y-119003391D01*
X157291813Y-119009903D01*
X157271465Y-119018509D01*
X157254641Y-119029564D01*
X157239136Y-119043423D01*
X157222746Y-119060442D01*
X157214173Y-119069565D01*
X157189103Y-119100695D01*
X157169418Y-119133129D01*
X157163902Y-119146100D01*
X157160189Y-119168191D01*
X157157172Y-119210239D01*
X157154842Y-119272486D01*
X157153195Y-119355174D01*
X157152222Y-119458545D01*
X157151916Y-119577370D01*
X157151916Y-119972666D01*
X157522013Y-119972666D01*
X157524819Y-119663104D01*
X157527625Y-119353541D01*
X157905662Y-119353541D01*
X158081768Y-119652004D01*
X158124608Y-119724374D01*
X158164373Y-119791104D01*
X158199704Y-119849947D01*
X158229242Y-119898656D01*
X158251627Y-119934985D01*
X158265500Y-119956686D01*
X158269217Y-119961796D01*
X158284880Y-119966213D01*
X158321375Y-119969164D01*
X158378420Y-119970639D01*
X158455730Y-119970627D01*
X158488867Y-119970250D01*
X158697175Y-119967375D01*
X158512169Y-119649875D01*
X158468853Y-119575242D01*
X158429141Y-119506249D01*
X158394253Y-119445058D01*
X158365409Y-119393836D01*
X158343830Y-119354746D01*
X158330736Y-119329954D01*
X158327187Y-119321791D01*
X158335320Y-119310665D01*
X158356404Y-119292529D01*
X158380069Y-119275351D01*
X158429062Y-119236938D01*
X158478385Y-119189411D01*
X158522775Y-119138541D01*
X158556970Y-119090095D01*
X158568482Y-119068833D01*
X158599593Y-118982709D01*
X158617732Y-118887812D01*
X158623008Y-118789166D01*
X158615529Y-118691793D01*
X158595404Y-118600718D01*
X158562741Y-118520964D01*
X158556382Y-118509629D01*
X158521659Y-118462304D01*
X158473931Y-118413094D01*
X158419831Y-118368012D01*
X158365992Y-118333066D01*
X158355583Y-118327697D01*
X158328477Y-118314996D01*
X158302002Y-118304267D01*
X158274156Y-118295343D01*
X158242938Y-118288060D01*
X158206348Y-118282251D01*
X158162384Y-118277750D01*
X158109046Y-118274391D01*
X158044331Y-118272009D01*
X157966240Y-118270438D01*
X157872771Y-118269511D01*
X157761922Y-118269063D01*
X157646687Y-118268933D01*
X157141333Y-118268750D01*
X158951083Y-118268750D01*
X158951083Y-119972666D01*
X159321500Y-119972666D01*
X159321500Y-118268750D01*
X159702500Y-118268750D01*
X159702656Y-118906395D01*
X159702744Y-119046763D01*
X159703010Y-119167690D01*
X159703568Y-119270903D01*
X159704533Y-119358129D01*
X159706019Y-119431093D01*
X159708140Y-119491522D01*
X159711010Y-119541143D01*
X159714743Y-119581681D01*
X159719454Y-119614864D01*
X159725257Y-119642417D01*
X159732265Y-119666066D01*
X159740594Y-119687539D01*
X159750358Y-119708561D01*
X159756540Y-119720869D01*
X159787597Y-119768730D01*
X159830948Y-119818874D01*
X159879835Y-119864381D01*
X159927501Y-119898328D01*
X159932572Y-119901164D01*
X159970946Y-119920288D01*
X160009794Y-119935670D01*
X160051851Y-119947649D01*
X160099847Y-119956563D01*
X160156516Y-119962753D01*
X160224590Y-119966556D01*
X160306802Y-119968311D01*
X160405884Y-119968356D01*
X160469791Y-119967761D01*
X160569778Y-119966131D01*
X160650461Y-119963770D01*
X160713695Y-119960573D01*
X160718996Y-119960113D01*
X161290000Y-119960113D01*
X161299908Y-119964882D01*
X161326987Y-119968609D01*
X161367267Y-119971302D01*
X161416777Y-119972966D01*
X161471547Y-119973609D01*
X161527608Y-119973237D01*
X161580988Y-119971856D01*
X161627718Y-119969475D01*
X161663828Y-119966098D01*
X161685348Y-119961734D01*
X161689223Y-119959437D01*
X161694577Y-119947462D01*
X161706613Y-119917314D01*
X161724693Y-119870680D01*
X161748179Y-119809246D01*
X161776433Y-119734700D01*
X161808815Y-119648728D01*
X161844688Y-119553017D01*
X161883413Y-119449254D01*
X161924351Y-119339126D01*
X161940588Y-119295333D01*
X161982110Y-119183261D01*
X162021512Y-119076921D01*
X162058172Y-118977996D01*
X162091464Y-118888169D01*
X162120766Y-118809122D01*
X162145454Y-118742537D01*
X162164903Y-118690098D01*
X162178491Y-118653486D01*
X162185593Y-118634386D01*
X162186470Y-118632047D01*
X162201865Y-118614964D01*
X162224006Y-118614095D01*
X162245053Y-118629108D01*
X162249309Y-118635607D01*
X162252866Y-118644885D01*
X162255786Y-118658752D01*
X162258131Y-118679021D01*
X162259963Y-118707503D01*
X162261344Y-118746009D01*
X162262337Y-118796353D01*
X162263003Y-118860344D01*
X162263405Y-118939795D01*
X162263605Y-119036517D01*
X162263665Y-119152323D01*
X162263666Y-119171457D01*
X162263683Y-119300050D01*
X162263909Y-119409358D01*
X162264607Y-119501262D01*
X162266040Y-119577644D01*
X162268471Y-119640383D01*
X162272163Y-119691362D01*
X162277379Y-119732462D01*
X162284383Y-119765565D01*
X162293437Y-119792550D01*
X162304805Y-119815300D01*
X162318749Y-119835697D01*
X162335533Y-119855620D01*
X162355419Y-119876952D01*
X162363505Y-119885461D01*
X162407026Y-119927184D01*
X162449184Y-119956959D01*
X162494930Y-119976616D01*
X162549216Y-119987983D01*
X162616994Y-119992889D01*
X162655974Y-119993487D01*
X162726797Y-119991500D01*
X162785992Y-119985398D01*
X162822063Y-119977726D01*
X162870898Y-119955307D01*
X162923145Y-119917963D01*
X162973624Y-119870112D01*
X163017152Y-119816173D01*
X163024618Y-119804966D01*
X163034572Y-119785466D01*
X163051143Y-119748181D01*
X163073510Y-119695146D01*
X163100853Y-119628392D01*
X163132352Y-119549953D01*
X163167186Y-119461861D01*
X163204537Y-119366151D01*
X163243583Y-119264854D01*
X163262598Y-119215075D01*
X163309483Y-119091977D01*
X163349437Y-118987162D01*
X163383074Y-118899137D01*
X163411012Y-118826411D01*
X163433864Y-118767491D01*
X163452247Y-118720884D01*
X163466777Y-118685098D01*
X163478067Y-118658640D01*
X163486735Y-118640018D01*
X163493395Y-118627740D01*
X163498663Y-118620313D01*
X163503155Y-118616245D01*
X163507486Y-118614043D01*
X163511008Y-118612714D01*
X163519627Y-118609945D01*
X163527035Y-118609706D01*
X163533325Y-118613451D01*
X163538587Y-118622630D01*
X163542913Y-118638696D01*
X163546395Y-118663100D01*
X163549124Y-118697293D01*
X163551191Y-118742727D01*
X163552689Y-118800855D01*
X163553708Y-118873127D01*
X163554341Y-118960995D01*
X163554678Y-119065912D01*
X163554811Y-119189327D01*
X163554833Y-119307939D01*
X163554833Y-119972666D01*
X163937045Y-119972666D01*
X163933342Y-119255645D01*
X163932591Y-119108479D01*
X163931861Y-118980887D01*
X163930997Y-118871280D01*
X163929846Y-118778067D01*
X163928251Y-118699656D01*
X163926183Y-118638144D01*
X164316833Y-118638144D01*
X164785145Y-118641301D01*
X164903993Y-118642120D01*
X165003541Y-118643033D01*
X165085657Y-118644334D01*
X165152209Y-118646316D01*
X165205062Y-118649275D01*
X165246084Y-118653503D01*
X165277141Y-118659294D01*
X165300101Y-118666944D01*
X165316830Y-118676745D01*
X165329195Y-118688992D01*
X165339063Y-118703979D01*
X165348301Y-118721999D01*
X165352494Y-118730650D01*
X165371503Y-118785174D01*
X165371743Y-118836097D01*
X165353170Y-118889688D01*
X165351354Y-118893327D01*
X165339915Y-118915317D01*
X165328619Y-118933379D01*
X165315358Y-118947933D01*
X165298026Y-118959396D01*
X165274517Y-118968186D01*
X165242723Y-118974723D01*
X165200540Y-118979423D01*
X165145859Y-118982706D01*
X165076575Y-118984989D01*
X164990581Y-118986692D01*
X164885770Y-118988231D01*
X164872458Y-118988416D01*
X164768579Y-118989866D01*
X164683584Y-118991300D01*
X164615193Y-118993103D01*
X164561128Y-118995658D01*
X164519108Y-118999347D01*
X164486855Y-119004553D01*
X164462089Y-119011661D01*
X164442532Y-119021052D01*
X164425903Y-119033110D01*
X164409924Y-119048219D01*
X164392315Y-119066760D01*
X164389673Y-119069565D01*
X164364603Y-119100695D01*
X164344918Y-119133129D01*
X164339402Y-119146100D01*
X164335689Y-119168191D01*
X164332672Y-119210239D01*
X164330342Y-119272486D01*
X164328695Y-119355174D01*
X164327722Y-119458545D01*
X164327416Y-119577370D01*
X164327416Y-119972666D01*
X164697513Y-119972666D01*
X164700319Y-119663104D01*
X164703125Y-119353541D01*
X165020625Y-119347465D01*
X165121820Y-119345290D01*
X165204536Y-119342751D01*
X165271459Y-119339436D01*
X165325277Y-119334934D01*
X165368677Y-119328833D01*
X165404345Y-119320723D01*
X165434969Y-119310191D01*
X165463236Y-119296826D01*
X165491833Y-119280216D01*
X165502166Y-119273720D01*
X165544800Y-119242001D01*
X165590676Y-119200504D01*
X165634454Y-119154768D01*
X165670792Y-119110333D01*
X165692656Y-119076158D01*
X165727279Y-118987668D01*
X165747226Y-118888854D01*
X165752294Y-118784834D01*
X165742281Y-118680728D01*
X165716985Y-118581655D01*
X165712637Y-118569607D01*
X165677058Y-118501784D01*
X165624336Y-118437571D01*
X165558489Y-118380035D01*
X165483533Y-118332243D01*
X165403487Y-118297262D01*
X165332833Y-118279637D01*
X165307087Y-118277290D01*
X165262561Y-118275135D01*
X165201643Y-118273219D01*
X165126718Y-118271589D01*
X165040173Y-118270294D01*
X164944396Y-118269380D01*
X164841771Y-118268896D01*
X164790437Y-118268829D01*
X164316833Y-118268750D01*
X166041916Y-118268750D01*
X166041916Y-119972666D01*
X166412036Y-119972666D01*
X166414830Y-119636645D01*
X166417625Y-119300625D01*
X167137291Y-119300625D01*
X167140086Y-119636645D01*
X167142880Y-119972666D01*
X167513000Y-119972666D01*
X167513000Y-118268750D01*
X167327944Y-118268749D01*
X167142889Y-118268749D01*
X167137291Y-118919625D01*
X166417625Y-118919625D01*
X166412027Y-118268749D01*
X166226972Y-118268749D01*
X166041916Y-118268750D01*
X164316833Y-118268750D01*
X164316833Y-118638144D01*
X163926183Y-118638144D01*
X163926059Y-118634458D01*
X163923115Y-118580880D01*
X163919265Y-118537333D01*
X163914353Y-118502226D01*
X163908226Y-118473968D01*
X163900729Y-118450967D01*
X163891706Y-118431634D01*
X163881004Y-118414377D01*
X163868468Y-118397606D01*
X163853943Y-118379730D01*
X163847446Y-118371798D01*
X163788129Y-118315439D01*
X163715377Y-118274216D01*
X163631165Y-118248752D01*
X163537462Y-118239667D01*
X163447840Y-118245839D01*
X163401801Y-118254256D01*
X163358505Y-118265396D01*
X163326727Y-118276973D01*
X163324763Y-118277941D01*
X163291234Y-118300538D01*
X163251532Y-118335358D01*
X163210988Y-118376860D01*
X163174936Y-118419499D01*
X163148709Y-118457735D01*
X163144783Y-118465013D01*
X163136954Y-118482948D01*
X163122455Y-118518627D01*
X163102086Y-118569991D01*
X163076648Y-118634979D01*
X163046944Y-118711533D01*
X163013775Y-118797592D01*
X162977942Y-118891096D01*
X162940247Y-118989987D01*
X162930791Y-119014875D01*
X162883495Y-119139398D01*
X162843092Y-119245602D01*
X162808985Y-119334962D01*
X162780574Y-119408956D01*
X162757260Y-119469060D01*
X162738444Y-119516749D01*
X162723527Y-119553501D01*
X162711909Y-119580791D01*
X162702992Y-119600097D01*
X162696177Y-119612894D01*
X162690864Y-119620658D01*
X162686455Y-119624867D01*
X162682416Y-119626971D01*
X162673158Y-119630108D01*
X162665323Y-119630762D01*
X162658770Y-119627328D01*
X162653362Y-119618199D01*
X162648957Y-119601770D01*
X162645418Y-119576436D01*
X162642604Y-119540591D01*
X162640376Y-119492630D01*
X162638595Y-119430947D01*
X162637122Y-119353937D01*
X162635816Y-119259994D01*
X162634539Y-119147512D01*
X162633678Y-119065541D01*
X162632355Y-118936452D01*
X162631092Y-118826671D01*
X162629604Y-118734344D01*
X162627605Y-118657614D01*
X162624810Y-118594626D01*
X162620933Y-118543525D01*
X162615687Y-118502455D01*
X162608789Y-118469561D01*
X162599951Y-118442987D01*
X162588888Y-118420878D01*
X162575314Y-118401379D01*
X162558945Y-118382634D01*
X162539493Y-118362788D01*
X162522942Y-118346297D01*
X162477970Y-118305887D01*
X162433158Y-118277094D01*
X162383637Y-118258223D01*
X162324536Y-118247581D01*
X162250983Y-118243475D01*
X162226625Y-118243265D01*
X162150430Y-118245797D01*
X162089637Y-118254837D01*
X162038988Y-118272294D01*
X161993224Y-118300077D01*
X161947086Y-118340096D01*
X161939597Y-118347483D01*
X161905360Y-118384905D01*
X161873853Y-118424870D01*
X161851041Y-118459713D01*
X161848324Y-118464839D01*
X161840649Y-118482593D01*
X161826598Y-118517710D01*
X161806880Y-118568291D01*
X161782203Y-118632437D01*
X161753276Y-118708253D01*
X161720808Y-118793839D01*
X161685507Y-118887297D01*
X161648081Y-118986731D01*
X161609240Y-119090242D01*
X161569692Y-119195931D01*
X161530146Y-119301903D01*
X161491310Y-119406258D01*
X161453892Y-119507098D01*
X161418603Y-119602527D01*
X161386150Y-119690645D01*
X161357241Y-119769556D01*
X161332587Y-119837361D01*
X161312894Y-119892163D01*
X161298872Y-119932063D01*
X161291230Y-119955164D01*
X161290000Y-119960113D01*
X160718996Y-119960113D01*
X160761335Y-119956439D01*
X160795235Y-119951264D01*
X160804042Y-119949228D01*
X160890409Y-119919757D01*
X160963774Y-119878147D01*
X161026741Y-119824605D01*
X161075701Y-119769896D01*
X161111419Y-119714154D01*
X161138732Y-119649133D01*
X161149233Y-119615801D01*
X161152997Y-119600982D01*
X161156236Y-119583061D01*
X161159003Y-119560342D01*
X161161351Y-119531129D01*
X161163331Y-119493728D01*
X161164997Y-119446443D01*
X161166401Y-119387578D01*
X161167595Y-119315439D01*
X161168631Y-119228329D01*
X161169562Y-119124553D01*
X161170441Y-119002416D01*
X161171014Y-118911687D01*
X161174912Y-118268749D01*
X160989454Y-118268749D01*
X160803997Y-118268750D01*
X160800936Y-118864062D01*
X160800267Y-118991304D01*
X160799628Y-119099129D01*
X160798945Y-119189288D01*
X160798148Y-119263529D01*
X160797164Y-119323603D01*
X160795920Y-119371260D01*
X160794346Y-119408250D01*
X160792369Y-119436321D01*
X160789916Y-119457225D01*
X160786916Y-119472710D01*
X160783298Y-119484527D01*
X160778987Y-119494426D01*
X160774638Y-119502802D01*
X160752150Y-119535097D01*
X160721282Y-119558056D01*
X160698593Y-119568948D01*
X160678529Y-119576862D01*
X160658057Y-119582703D01*
X160633629Y-119586783D01*
X160601697Y-119589409D01*
X160558713Y-119590891D01*
X160501128Y-119591540D01*
X160438041Y-119591666D01*
X160365124Y-119591477D01*
X160309837Y-119590705D01*
X160268647Y-119589049D01*
X160238019Y-119586203D01*
X160214418Y-119581865D01*
X160194312Y-119575731D01*
X160178461Y-119569366D01*
X160142913Y-119550676D01*
X160119420Y-119527394D01*
X160102416Y-119497929D01*
X160078208Y-119448791D01*
X160075066Y-118858770D01*
X160071925Y-118268750D01*
X159702500Y-118268750D01*
X159321500Y-118268750D01*
X158951083Y-118268750D01*
X157141333Y-118268750D01*
X157141333Y-118638182D01*
X156887333Y-118638182D01*
X156887333Y-118268750D01*
X155575000Y-118268750D01*
X154876500Y-118268750D01*
X154876500Y-117602000D01*
X168211500Y-117602000D01*
X168211500Y-120650000D01*
X168211500Y-120650000D01*
G37*
X168211500Y-120650000D02*
X154876500Y-120650000D01*
X154876500Y-118268750D01*
X155575000Y-118268750D01*
X155575000Y-118638753D01*
X155805187Y-118641606D01*
X156035375Y-118644458D01*
X156040825Y-119972666D01*
X156421507Y-119972666D01*
X156424232Y-119308562D01*
X156426958Y-118644458D01*
X156657145Y-118641606D01*
X156887333Y-118638753D01*
X156887333Y-118638182D01*
X157141333Y-118638182D01*
X157630812Y-118641320D01*
X157745696Y-118642094D01*
X157841372Y-118642874D01*
X157919796Y-118643747D01*
X157982927Y-118644804D01*
X158032722Y-118646134D01*
X158071139Y-118647826D01*
X158100135Y-118649970D01*
X158121669Y-118652655D01*
X158137698Y-118655972D01*
X158150180Y-118660008D01*
X158161071Y-118664855D01*
X158162625Y-118665625D01*
X158203420Y-118696730D01*
X158230394Y-118739284D01*
X158243538Y-118788692D01*
X158242840Y-118840361D01*
X158228289Y-118889697D01*
X158199875Y-118932108D01*
X158163309Y-118960098D01*
X158151539Y-118966006D01*
X158139002Y-118970849D01*
X158123495Y-118974766D01*
X158102815Y-118977897D01*
X158074758Y-118980383D01*
X158037121Y-118982364D01*
X157987701Y-118983980D01*
X157924295Y-118985371D01*
X157844700Y-118986677D01*
X157746712Y-118988038D01*
X157718125Y-118988416D01*
X157611373Y-118989819D01*
X157523579Y-118991185D01*
X157452539Y-118992871D01*
X157396047Y-118995230D01*
X157351899Y-118998619D01*
X157317889Y-119003391D01*
X157291813Y-119009903D01*
X157271465Y-119018509D01*
X157254641Y-119029564D01*
X157239136Y-119043423D01*
X157222746Y-119060442D01*
X157214173Y-119069565D01*
X157189103Y-119100695D01*
X157169418Y-119133129D01*
X157163902Y-119146100D01*
X157160189Y-119168191D01*
X157157172Y-119210239D01*
X157154842Y-119272486D01*
X157153195Y-119355174D01*
X157152222Y-119458545D01*
X157151916Y-119577370D01*
X157151916Y-119972666D01*
X157522013Y-119972666D01*
X157524819Y-119663104D01*
X157527625Y-119353541D01*
X157905662Y-119353541D01*
X158081768Y-119652004D01*
X158124608Y-119724374D01*
X158164373Y-119791104D01*
X158199704Y-119849947D01*
X158229242Y-119898656D01*
X158251627Y-119934985D01*
X158265500Y-119956686D01*
X158269217Y-119961796D01*
X158284880Y-119966213D01*
X158321375Y-119969164D01*
X158378420Y-119970639D01*
X158455730Y-119970627D01*
X158488867Y-119970250D01*
X158697175Y-119967375D01*
X158512169Y-119649875D01*
X158468853Y-119575242D01*
X158429141Y-119506249D01*
X158394253Y-119445058D01*
X158365409Y-119393836D01*
X158343830Y-119354746D01*
X158330736Y-119329954D01*
X158327187Y-119321791D01*
X158335320Y-119310665D01*
X158356404Y-119292529D01*
X158380069Y-119275351D01*
X158429062Y-119236938D01*
X158478385Y-119189411D01*
X158522775Y-119138541D01*
X158556970Y-119090095D01*
X158568482Y-119068833D01*
X158599593Y-118982709D01*
X158617732Y-118887812D01*
X158623008Y-118789166D01*
X158615529Y-118691793D01*
X158595404Y-118600718D01*
X158562741Y-118520964D01*
X158556382Y-118509629D01*
X158521659Y-118462304D01*
X158473931Y-118413094D01*
X158419831Y-118368012D01*
X158365992Y-118333066D01*
X158355583Y-118327697D01*
X158328477Y-118314996D01*
X158302002Y-118304267D01*
X158274156Y-118295343D01*
X158242938Y-118288060D01*
X158206348Y-118282251D01*
X158162384Y-118277750D01*
X158109046Y-118274391D01*
X158044331Y-118272009D01*
X157966240Y-118270438D01*
X157872771Y-118269511D01*
X157761922Y-118269063D01*
X157646687Y-118268933D01*
X157141333Y-118268750D01*
X158951083Y-118268750D01*
X158951083Y-119972666D01*
X159321500Y-119972666D01*
X159321500Y-118268750D01*
X159702500Y-118268750D01*
X159702656Y-118906395D01*
X159702744Y-119046763D01*
X159703010Y-119167690D01*
X159703568Y-119270903D01*
X159704533Y-119358129D01*
X159706019Y-119431093D01*
X159708140Y-119491522D01*
X159711010Y-119541143D01*
X159714743Y-119581681D01*
X159719454Y-119614864D01*
X159725257Y-119642417D01*
X159732265Y-119666066D01*
X159740594Y-119687539D01*
X159750358Y-119708561D01*
X159756540Y-119720869D01*
X159787597Y-119768730D01*
X159830948Y-119818874D01*
X159879835Y-119864381D01*
X159927501Y-119898328D01*
X159932572Y-119901164D01*
X159970946Y-119920288D01*
X160009794Y-119935670D01*
X160051851Y-119947649D01*
X160099847Y-119956563D01*
X160156516Y-119962753D01*
X160224590Y-119966556D01*
X160306802Y-119968311D01*
X160405884Y-119968356D01*
X160469791Y-119967761D01*
X160569778Y-119966131D01*
X160650461Y-119963770D01*
X160713695Y-119960573D01*
X160718996Y-119960113D01*
X161290000Y-119960113D01*
X161299908Y-119964882D01*
X161326987Y-119968609D01*
X161367267Y-119971302D01*
X161416777Y-119972966D01*
X161471547Y-119973609D01*
X161527608Y-119973237D01*
X161580988Y-119971856D01*
X161627718Y-119969475D01*
X161663828Y-119966098D01*
X161685348Y-119961734D01*
X161689223Y-119959437D01*
X161694577Y-119947462D01*
X161706613Y-119917314D01*
X161724693Y-119870680D01*
X161748179Y-119809246D01*
X161776433Y-119734700D01*
X161808815Y-119648728D01*
X161844688Y-119553017D01*
X161883413Y-119449254D01*
X161924351Y-119339126D01*
X161940588Y-119295333D01*
X161982110Y-119183261D01*
X162021512Y-119076921D01*
X162058172Y-118977996D01*
X162091464Y-118888169D01*
X162120766Y-118809122D01*
X162145454Y-118742537D01*
X162164903Y-118690098D01*
X162178491Y-118653486D01*
X162185593Y-118634386D01*
X162186470Y-118632047D01*
X162201865Y-118614964D01*
X162224006Y-118614095D01*
X162245053Y-118629108D01*
X162249309Y-118635607D01*
X162252866Y-118644885D01*
X162255786Y-118658752D01*
X162258131Y-118679021D01*
X162259963Y-118707503D01*
X162261344Y-118746009D01*
X162262337Y-118796353D01*
X162263003Y-118860344D01*
X162263405Y-118939795D01*
X162263605Y-119036517D01*
X162263665Y-119152323D01*
X162263666Y-119171457D01*
X162263683Y-119300050D01*
X162263909Y-119409358D01*
X162264607Y-119501262D01*
X162266040Y-119577644D01*
X162268471Y-119640383D01*
X162272163Y-119691362D01*
X162277379Y-119732462D01*
X162284383Y-119765565D01*
X162293437Y-119792550D01*
X162304805Y-119815300D01*
X162318749Y-119835697D01*
X162335533Y-119855620D01*
X162355419Y-119876952D01*
X162363505Y-119885461D01*
X162407026Y-119927184D01*
X162449184Y-119956959D01*
X162494930Y-119976616D01*
X162549216Y-119987983D01*
X162616994Y-119992889D01*
X162655974Y-119993487D01*
X162726797Y-119991500D01*
X162785992Y-119985398D01*
X162822063Y-119977726D01*
X162870898Y-119955307D01*
X162923145Y-119917963D01*
X162973624Y-119870112D01*
X163017152Y-119816173D01*
X163024618Y-119804966D01*
X163034572Y-119785466D01*
X163051143Y-119748181D01*
X163073510Y-119695146D01*
X163100853Y-119628392D01*
X163132352Y-119549953D01*
X163167186Y-119461861D01*
X163204537Y-119366151D01*
X163243583Y-119264854D01*
X163262598Y-119215075D01*
X163309483Y-119091977D01*
X163349437Y-118987162D01*
X163383074Y-118899137D01*
X163411012Y-118826411D01*
X163433864Y-118767491D01*
X163452247Y-118720884D01*
X163466777Y-118685098D01*
X163478067Y-118658640D01*
X163486735Y-118640018D01*
X163493395Y-118627740D01*
X163498663Y-118620313D01*
X163503155Y-118616245D01*
X163507486Y-118614043D01*
X163511008Y-118612714D01*
X163519627Y-118609945D01*
X163527035Y-118609706D01*
X163533325Y-118613451D01*
X163538587Y-118622630D01*
X163542913Y-118638696D01*
X163546395Y-118663100D01*
X163549124Y-118697293D01*
X163551191Y-118742727D01*
X163552689Y-118800855D01*
X163553708Y-118873127D01*
X163554341Y-118960995D01*
X163554678Y-119065912D01*
X163554811Y-119189327D01*
X163554833Y-119307939D01*
X163554833Y-119972666D01*
X163937045Y-119972666D01*
X163933342Y-119255645D01*
X163932591Y-119108479D01*
X163931861Y-118980887D01*
X163930997Y-118871280D01*
X163929846Y-118778067D01*
X163928251Y-118699656D01*
X163926183Y-118638144D01*
X164316833Y-118638144D01*
X164785145Y-118641301D01*
X164903993Y-118642120D01*
X165003541Y-118643033D01*
X165085657Y-118644334D01*
X165152209Y-118646316D01*
X165205062Y-118649275D01*
X165246084Y-118653503D01*
X165277141Y-118659294D01*
X165300101Y-118666944D01*
X165316830Y-118676745D01*
X165329195Y-118688992D01*
X165339063Y-118703979D01*
X165348301Y-118721999D01*
X165352494Y-118730650D01*
X165371503Y-118785174D01*
X165371743Y-118836097D01*
X165353170Y-118889688D01*
X165351354Y-118893327D01*
X165339915Y-118915317D01*
X165328619Y-118933379D01*
X165315358Y-118947933D01*
X165298026Y-118959396D01*
X165274517Y-118968186D01*
X165242723Y-118974723D01*
X165200540Y-118979423D01*
X165145859Y-118982706D01*
X165076575Y-118984989D01*
X164990581Y-118986692D01*
X164885770Y-118988231D01*
X164872458Y-118988416D01*
X164768579Y-118989866D01*
X164683584Y-118991300D01*
X164615193Y-118993103D01*
X164561128Y-118995658D01*
X164519108Y-118999347D01*
X164486855Y-119004553D01*
X164462089Y-119011661D01*
X164442532Y-119021052D01*
X164425903Y-119033110D01*
X164409924Y-119048219D01*
X164392315Y-119066760D01*
X164389673Y-119069565D01*
X164364603Y-119100695D01*
X164344918Y-119133129D01*
X164339402Y-119146100D01*
X164335689Y-119168191D01*
X164332672Y-119210239D01*
X164330342Y-119272486D01*
X164328695Y-119355174D01*
X164327722Y-119458545D01*
X164327416Y-119577370D01*
X164327416Y-119972666D01*
X164697513Y-119972666D01*
X164700319Y-119663104D01*
X164703125Y-119353541D01*
X165020625Y-119347465D01*
X165121820Y-119345290D01*
X165204536Y-119342751D01*
X165271459Y-119339436D01*
X165325277Y-119334934D01*
X165368677Y-119328833D01*
X165404345Y-119320723D01*
X165434969Y-119310191D01*
X165463236Y-119296826D01*
X165491833Y-119280216D01*
X165502166Y-119273720D01*
X165544800Y-119242001D01*
X165590676Y-119200504D01*
X165634454Y-119154768D01*
X165670792Y-119110333D01*
X165692656Y-119076158D01*
X165727279Y-118987668D01*
X165747226Y-118888854D01*
X165752294Y-118784834D01*
X165742281Y-118680728D01*
X165716985Y-118581655D01*
X165712637Y-118569607D01*
X165677058Y-118501784D01*
X165624336Y-118437571D01*
X165558489Y-118380035D01*
X165483533Y-118332243D01*
X165403487Y-118297262D01*
X165332833Y-118279637D01*
X165307087Y-118277290D01*
X165262561Y-118275135D01*
X165201643Y-118273219D01*
X165126718Y-118271589D01*
X165040173Y-118270294D01*
X164944396Y-118269380D01*
X164841771Y-118268896D01*
X164790437Y-118268829D01*
X164316833Y-118268750D01*
X166041916Y-118268750D01*
X166041916Y-119972666D01*
X166412036Y-119972666D01*
X166414830Y-119636645D01*
X166417625Y-119300625D01*
X167137291Y-119300625D01*
X167140086Y-119636645D01*
X167142880Y-119972666D01*
X167513000Y-119972666D01*
X167513000Y-118268750D01*
X167327944Y-118268749D01*
X167142889Y-118268749D01*
X167137291Y-118919625D01*
X166417625Y-118919625D01*
X166412027Y-118268749D01*
X166226972Y-118268749D01*
X166041916Y-118268750D01*
X164316833Y-118268750D01*
X164316833Y-118638144D01*
X163926183Y-118638144D01*
X163926059Y-118634458D01*
X163923115Y-118580880D01*
X163919265Y-118537333D01*
X163914353Y-118502226D01*
X163908226Y-118473968D01*
X163900729Y-118450967D01*
X163891706Y-118431634D01*
X163881004Y-118414377D01*
X163868468Y-118397606D01*
X163853943Y-118379730D01*
X163847446Y-118371798D01*
X163788129Y-118315439D01*
X163715377Y-118274216D01*
X163631165Y-118248752D01*
X163537462Y-118239667D01*
X163447840Y-118245839D01*
X163401801Y-118254256D01*
X163358505Y-118265396D01*
X163326727Y-118276973D01*
X163324763Y-118277941D01*
X163291234Y-118300538D01*
X163251532Y-118335358D01*
X163210988Y-118376860D01*
X163174936Y-118419499D01*
X163148709Y-118457735D01*
X163144783Y-118465013D01*
X163136954Y-118482948D01*
X163122455Y-118518627D01*
X163102086Y-118569991D01*
X163076648Y-118634979D01*
X163046944Y-118711533D01*
X163013775Y-118797592D01*
X162977942Y-118891096D01*
X162940247Y-118989987D01*
X162930791Y-119014875D01*
X162883495Y-119139398D01*
X162843092Y-119245602D01*
X162808985Y-119334962D01*
X162780574Y-119408956D01*
X162757260Y-119469060D01*
X162738444Y-119516749D01*
X162723527Y-119553501D01*
X162711909Y-119580791D01*
X162702992Y-119600097D01*
X162696177Y-119612894D01*
X162690864Y-119620658D01*
X162686455Y-119624867D01*
X162682416Y-119626971D01*
X162673158Y-119630108D01*
X162665323Y-119630762D01*
X162658770Y-119627328D01*
X162653362Y-119618199D01*
X162648957Y-119601770D01*
X162645418Y-119576436D01*
X162642604Y-119540591D01*
X162640376Y-119492630D01*
X162638595Y-119430947D01*
X162637122Y-119353937D01*
X162635816Y-119259994D01*
X162634539Y-119147512D01*
X162633678Y-119065541D01*
X162632355Y-118936452D01*
X162631092Y-118826671D01*
X162629604Y-118734344D01*
X162627605Y-118657614D01*
X162624810Y-118594626D01*
X162620933Y-118543525D01*
X162615687Y-118502455D01*
X162608789Y-118469561D01*
X162599951Y-118442987D01*
X162588888Y-118420878D01*
X162575314Y-118401379D01*
X162558945Y-118382634D01*
X162539493Y-118362788D01*
X162522942Y-118346297D01*
X162477970Y-118305887D01*
X162433158Y-118277094D01*
X162383637Y-118258223D01*
X162324536Y-118247581D01*
X162250983Y-118243475D01*
X162226625Y-118243265D01*
X162150430Y-118245797D01*
X162089637Y-118254837D01*
X162038988Y-118272294D01*
X161993224Y-118300077D01*
X161947086Y-118340096D01*
X161939597Y-118347483D01*
X161905360Y-118384905D01*
X161873853Y-118424870D01*
X161851041Y-118459713D01*
X161848324Y-118464839D01*
X161840649Y-118482593D01*
X161826598Y-118517710D01*
X161806880Y-118568291D01*
X161782203Y-118632437D01*
X161753276Y-118708253D01*
X161720808Y-118793839D01*
X161685507Y-118887297D01*
X161648081Y-118986731D01*
X161609240Y-119090242D01*
X161569692Y-119195931D01*
X161530146Y-119301903D01*
X161491310Y-119406258D01*
X161453892Y-119507098D01*
X161418603Y-119602527D01*
X161386150Y-119690645D01*
X161357241Y-119769556D01*
X161332587Y-119837361D01*
X161312894Y-119892163D01*
X161298872Y-119932063D01*
X161291230Y-119955164D01*
X161290000Y-119960113D01*
X160718996Y-119960113D01*
X160761335Y-119956439D01*
X160795235Y-119951264D01*
X160804042Y-119949228D01*
X160890409Y-119919757D01*
X160963774Y-119878147D01*
X161026741Y-119824605D01*
X161075701Y-119769896D01*
X161111419Y-119714154D01*
X161138732Y-119649133D01*
X161149233Y-119615801D01*
X161152997Y-119600982D01*
X161156236Y-119583061D01*
X161159003Y-119560342D01*
X161161351Y-119531129D01*
X161163331Y-119493728D01*
X161164997Y-119446443D01*
X161166401Y-119387578D01*
X161167595Y-119315439D01*
X161168631Y-119228329D01*
X161169562Y-119124553D01*
X161170441Y-119002416D01*
X161171014Y-118911687D01*
X161174912Y-118268749D01*
X160989454Y-118268749D01*
X160803997Y-118268750D01*
X160800936Y-118864062D01*
X160800267Y-118991304D01*
X160799628Y-119099129D01*
X160798945Y-119189288D01*
X160798148Y-119263529D01*
X160797164Y-119323603D01*
X160795920Y-119371260D01*
X160794346Y-119408250D01*
X160792369Y-119436321D01*
X160789916Y-119457225D01*
X160786916Y-119472710D01*
X160783298Y-119484527D01*
X160778987Y-119494426D01*
X160774638Y-119502802D01*
X160752150Y-119535097D01*
X160721282Y-119558056D01*
X160698593Y-119568948D01*
X160678529Y-119576862D01*
X160658057Y-119582703D01*
X160633629Y-119586783D01*
X160601697Y-119589409D01*
X160558713Y-119590891D01*
X160501128Y-119591540D01*
X160438041Y-119591666D01*
X160365124Y-119591477D01*
X160309837Y-119590705D01*
X160268647Y-119589049D01*
X160238019Y-119586203D01*
X160214418Y-119581865D01*
X160194312Y-119575731D01*
X160178461Y-119569366D01*
X160142913Y-119550676D01*
X160119420Y-119527394D01*
X160102416Y-119497929D01*
X160078208Y-119448791D01*
X160075066Y-118858770D01*
X160071925Y-118268750D01*
X159702500Y-118268750D01*
X159321500Y-118268750D01*
X158951083Y-118268750D01*
X157141333Y-118268750D01*
X157141333Y-118638182D01*
X156887333Y-118638182D01*
X156887333Y-118268750D01*
X155575000Y-118268750D01*
X154876500Y-118268750D01*
X154876500Y-117602000D01*
X168211500Y-117602000D01*
X168211500Y-120650000D01*
D13*
X141922500Y-101391000D02*
X140017500Y-101391000D01*
X140017500Y-99549500D02*
X140017500Y-101391000D01*
X141922500Y-101391000D02*
X141922500Y-99549500D01*
X140017500Y-96819000D02*
X140017500Y-98660500D01*
X141922500Y-96819000D02*
X140017500Y-96819000D01*
X141922500Y-98660500D02*
X141922500Y-96819000D01*
X140260000Y-98843748D02*
X140260000Y-99366252D01*
X141680000Y-98843748D02*
X141680000Y-99366252D01*
X133097225Y-104193000D02*
X133097225Y-104693000D01*
X132847225Y-104443000D02*
X133347225Y-104443000D01*
X138253000Y-105634000D02*
X138253000Y-106202000D01*
X138213000Y-105400000D02*
X138213000Y-106436000D01*
X138173000Y-105241000D02*
X138173000Y-106595000D01*
X138133000Y-105113000D02*
X138133000Y-106723000D01*
X138093000Y-105003000D02*
X138093000Y-106833000D01*
X138053000Y-104907000D02*
X138053000Y-106929000D01*
X138013000Y-104820000D02*
X138013000Y-107016000D01*
X137973000Y-104740000D02*
X137973000Y-107096000D01*
X137933000Y-104667000D02*
X137933000Y-107169000D01*
X137893000Y-104599000D02*
X137893000Y-107237000D01*
X137853000Y-104535000D02*
X137853000Y-107301000D01*
X137813000Y-104475000D02*
X137813000Y-107361000D01*
X137773000Y-104418000D02*
X137773000Y-107418000D01*
X137733000Y-104364000D02*
X137733000Y-107472000D01*
X137693000Y-104313000D02*
X137693000Y-107523000D01*
X137653000Y-106958000D02*
X137653000Y-107571000D01*
X137653000Y-104265000D02*
X137653000Y-104878000D01*
X137613000Y-106958000D02*
X137613000Y-107617000D01*
X137613000Y-104219000D02*
X137613000Y-104878000D01*
X137573000Y-106958000D02*
X137573000Y-107661000D01*
X137573000Y-104175000D02*
X137573000Y-104878000D01*
X137533000Y-106958000D02*
X137533000Y-107703000D01*
X137533000Y-104133000D02*
X137533000Y-104878000D01*
X137493000Y-106958000D02*
X137493000Y-107744000D01*
X137493000Y-104092000D02*
X137493000Y-104878000D01*
X137453000Y-106958000D02*
X137453000Y-107782000D01*
X137453000Y-104054000D02*
X137453000Y-104878000D01*
X137413000Y-106958000D02*
X137413000Y-107819000D01*
X137413000Y-104017000D02*
X137413000Y-104878000D01*
X137373000Y-106958000D02*
X137373000Y-107855000D01*
X137373000Y-103981000D02*
X137373000Y-104878000D01*
X137333000Y-106958000D02*
X137333000Y-107889000D01*
X137333000Y-103947000D02*
X137333000Y-104878000D01*
X137293000Y-106958000D02*
X137293000Y-107922000D01*
X137293000Y-103914000D02*
X137293000Y-104878000D01*
X137253000Y-106958000D02*
X137253000Y-107953000D01*
X137253000Y-103883000D02*
X137253000Y-104878000D01*
X137213000Y-106958000D02*
X137213000Y-107983000D01*
X137213000Y-103853000D02*
X137213000Y-104878000D01*
X137173000Y-106958000D02*
X137173000Y-108013000D01*
X137173000Y-103823000D02*
X137173000Y-104878000D01*
X137133000Y-106958000D02*
X137133000Y-108040000D01*
X137133000Y-103796000D02*
X137133000Y-104878000D01*
X137093000Y-106958000D02*
X137093000Y-108067000D01*
X137093000Y-103769000D02*
X137093000Y-104878000D01*
X137053000Y-106958000D02*
X137053000Y-108093000D01*
X137053000Y-103743000D02*
X137053000Y-104878000D01*
X137013000Y-106958000D02*
X137013000Y-108118000D01*
X137013000Y-103718000D02*
X137013000Y-104878000D01*
X136973000Y-106958000D02*
X136973000Y-108142000D01*
X136973000Y-103694000D02*
X136973000Y-104878000D01*
X136933000Y-106958000D02*
X136933000Y-108165000D01*
X136933000Y-103671000D02*
X136933000Y-104878000D01*
X136893000Y-106958000D02*
X136893000Y-108186000D01*
X136893000Y-103650000D02*
X136893000Y-104878000D01*
X136853000Y-106958000D02*
X136853000Y-108208000D01*
X136853000Y-103628000D02*
X136853000Y-104878000D01*
X136813000Y-106958000D02*
X136813000Y-108228000D01*
X136813000Y-103608000D02*
X136813000Y-104878000D01*
X136773000Y-106958000D02*
X136773000Y-108247000D01*
X136773000Y-103589000D02*
X136773000Y-104878000D01*
X136733000Y-106958000D02*
X136733000Y-108266000D01*
X136733000Y-103570000D02*
X136733000Y-104878000D01*
X136693000Y-106958000D02*
X136693000Y-108283000D01*
X136693000Y-103553000D02*
X136693000Y-104878000D01*
X136653000Y-106958000D02*
X136653000Y-108300000D01*
X136653000Y-103536000D02*
X136653000Y-104878000D01*
X136613000Y-106958000D02*
X136613000Y-108316000D01*
X136613000Y-103520000D02*
X136613000Y-104878000D01*
X136573000Y-106958000D02*
X136573000Y-108332000D01*
X136573000Y-103504000D02*
X136573000Y-104878000D01*
X136533000Y-106958000D02*
X136533000Y-108346000D01*
X136533000Y-103490000D02*
X136533000Y-104878000D01*
X136493000Y-106958000D02*
X136493000Y-108360000D01*
X136493000Y-103476000D02*
X136493000Y-104878000D01*
X136453000Y-106958000D02*
X136453000Y-108373000D01*
X136453000Y-103463000D02*
X136453000Y-104878000D01*
X136413000Y-106958000D02*
X136413000Y-108386000D01*
X136413000Y-103450000D02*
X136413000Y-104878000D01*
X136373000Y-106958000D02*
X136373000Y-108398000D01*
X136373000Y-103438000D02*
X136373000Y-104878000D01*
X136332000Y-106958000D02*
X136332000Y-108409000D01*
X136332000Y-103427000D02*
X136332000Y-104878000D01*
X136292000Y-106958000D02*
X136292000Y-108419000D01*
X136292000Y-103417000D02*
X136292000Y-104878000D01*
X136252000Y-106958000D02*
X136252000Y-108429000D01*
X136252000Y-103407000D02*
X136252000Y-104878000D01*
X136212000Y-106958000D02*
X136212000Y-108438000D01*
X136212000Y-103398000D02*
X136212000Y-104878000D01*
X136172000Y-106958000D02*
X136172000Y-108446000D01*
X136172000Y-103390000D02*
X136172000Y-104878000D01*
X136132000Y-106958000D02*
X136132000Y-108454000D01*
X136132000Y-103382000D02*
X136132000Y-104878000D01*
X136092000Y-106958000D02*
X136092000Y-108461000D01*
X136092000Y-103375000D02*
X136092000Y-104878000D01*
X136052000Y-106958000D02*
X136052000Y-108468000D01*
X136052000Y-103368000D02*
X136052000Y-104878000D01*
X136012000Y-106958000D02*
X136012000Y-108474000D01*
X136012000Y-103362000D02*
X136012000Y-104878000D01*
X135972000Y-106958000D02*
X135972000Y-108479000D01*
X135972000Y-103357000D02*
X135972000Y-104878000D01*
X135932000Y-106958000D02*
X135932000Y-108483000D01*
X135932000Y-103353000D02*
X135932000Y-104878000D01*
X135892000Y-106958000D02*
X135892000Y-108487000D01*
X135892000Y-103349000D02*
X135892000Y-104878000D01*
X135852000Y-106958000D02*
X135852000Y-108491000D01*
X135852000Y-103345000D02*
X135852000Y-104878000D01*
X135812000Y-106958000D02*
X135812000Y-108494000D01*
X135812000Y-103342000D02*
X135812000Y-104878000D01*
X135772000Y-106958000D02*
X135772000Y-108496000D01*
X135772000Y-103340000D02*
X135772000Y-104878000D01*
X135732000Y-106958000D02*
X135732000Y-108497000D01*
X135732000Y-103339000D02*
X135732000Y-104878000D01*
X135692000Y-103338000D02*
X135692000Y-104878000D01*
X135692000Y-106958000D02*
X135692000Y-108498000D01*
X135652000Y-103338000D02*
X135652000Y-104878000D01*
X135652000Y-106958000D02*
X135652000Y-108498000D01*
X138272000Y-105918000D02*
G75*
G03X138272000Y-105918000I-2620000J0D01*
G01*
X158432500Y-111461000D02*
X156527500Y-111461000D01*
X156527500Y-109619500D02*
X156527500Y-111461000D01*
X158432500Y-111461000D02*
X158432500Y-109619500D01*
X156527500Y-106889000D02*
X156527500Y-108730500D01*
X158432500Y-106889000D02*
X156527500Y-106889000D01*
X158432500Y-108730500D02*
X158432500Y-106889000D01*
X156770000Y-108913748D02*
X156770000Y-109436252D01*
X158190000Y-108913748D02*
X158190000Y-109436252D01*
X153065241Y-120264000D02*
X153065241Y-119634000D01*
X153380241Y-119949000D02*
X152750241Y-119949000D01*
X146639000Y-118512000D02*
X146639000Y-117708000D01*
X146679000Y-118743000D02*
X146679000Y-117477000D01*
X146719000Y-118912000D02*
X146719000Y-117308000D01*
X146759000Y-119050000D02*
X146759000Y-117170000D01*
X146799000Y-119169000D02*
X146799000Y-117051000D01*
X146839000Y-119275000D02*
X146839000Y-116945000D01*
X146879000Y-119372000D02*
X146879000Y-116848000D01*
X146919000Y-119460000D02*
X146919000Y-116760000D01*
X146959000Y-119542000D02*
X146959000Y-116678000D01*
X146999000Y-119619000D02*
X146999000Y-116601000D01*
X147039000Y-119691000D02*
X147039000Y-116529000D01*
X147079000Y-119760000D02*
X147079000Y-116460000D01*
X147119000Y-119824000D02*
X147119000Y-116396000D01*
X147159000Y-119886000D02*
X147159000Y-116334000D01*
X147199000Y-119944000D02*
X147199000Y-116276000D01*
X147239000Y-120000000D02*
X147239000Y-116220000D01*
X147279000Y-120054000D02*
X147279000Y-116166000D01*
X147319000Y-120105000D02*
X147319000Y-116115000D01*
X147359000Y-120154000D02*
X147359000Y-116066000D01*
X147399000Y-120202000D02*
X147399000Y-116018000D01*
X147439000Y-120247000D02*
X147439000Y-115973000D01*
X147479000Y-120292000D02*
X147479000Y-115928000D01*
X147519000Y-120334000D02*
X147519000Y-115886000D01*
X147559000Y-120375000D02*
X147559000Y-115845000D01*
X147599000Y-117070000D02*
X147599000Y-115805000D01*
X147599000Y-120415000D02*
X147599000Y-119150000D01*
X147639000Y-117070000D02*
X147639000Y-115767000D01*
X147639000Y-120453000D02*
X147639000Y-119150000D01*
X147679000Y-117070000D02*
X147679000Y-115730000D01*
X147679000Y-120490000D02*
X147679000Y-119150000D01*
X147719000Y-117070000D02*
X147719000Y-115694000D01*
X147719000Y-120526000D02*
X147719000Y-119150000D01*
X147759000Y-117070000D02*
X147759000Y-115660000D01*
X147759000Y-120560000D02*
X147759000Y-119150000D01*
X147799000Y-117070000D02*
X147799000Y-115626000D01*
X147799000Y-120594000D02*
X147799000Y-119150000D01*
X147839000Y-117070000D02*
X147839000Y-115594000D01*
X147839000Y-120626000D02*
X147839000Y-119150000D01*
X147879000Y-117070000D02*
X147879000Y-115562000D01*
X147879000Y-120658000D02*
X147879000Y-119150000D01*
X147919000Y-117070000D02*
X147919000Y-115532000D01*
X147919000Y-120688000D02*
X147919000Y-119150000D01*
X147959000Y-117070000D02*
X147959000Y-115503000D01*
X147959000Y-120717000D02*
X147959000Y-119150000D01*
X147999000Y-117070000D02*
X147999000Y-115474000D01*
X147999000Y-120746000D02*
X147999000Y-119150000D01*
X148039000Y-117070000D02*
X148039000Y-115446000D01*
X148039000Y-120774000D02*
X148039000Y-119150000D01*
X148079000Y-117070000D02*
X148079000Y-115420000D01*
X148079000Y-120800000D02*
X148079000Y-119150000D01*
X148119000Y-117070000D02*
X148119000Y-115394000D01*
X148119000Y-120826000D02*
X148119000Y-119150000D01*
X148159000Y-117070000D02*
X148159000Y-115368000D01*
X148159000Y-120852000D02*
X148159000Y-119150000D01*
X148199000Y-117070000D02*
X148199000Y-115344000D01*
X148199000Y-120876000D02*
X148199000Y-119150000D01*
X148239000Y-117070000D02*
X148239000Y-115320000D01*
X148239000Y-120900000D02*
X148239000Y-119150000D01*
X148279000Y-117070000D02*
X148279000Y-115298000D01*
X148279000Y-120922000D02*
X148279000Y-119150000D01*
X148319000Y-117070000D02*
X148319000Y-115276000D01*
X148319000Y-120944000D02*
X148319000Y-119150000D01*
X148359000Y-117070000D02*
X148359000Y-115254000D01*
X148359000Y-120966000D02*
X148359000Y-119150000D01*
X148399000Y-117070000D02*
X148399000Y-115234000D01*
X148399000Y-120986000D02*
X148399000Y-119150000D01*
X148439000Y-117070000D02*
X148439000Y-115214000D01*
X148439000Y-121006000D02*
X148439000Y-119150000D01*
X148479000Y-117070000D02*
X148479000Y-115194000D01*
X148479000Y-121026000D02*
X148479000Y-119150000D01*
X148519000Y-117070000D02*
X148519000Y-115176000D01*
X148519000Y-121044000D02*
X148519000Y-119150000D01*
X148559000Y-117070000D02*
X148559000Y-115158000D01*
X148559000Y-121062000D02*
X148559000Y-119150000D01*
X148599000Y-117070000D02*
X148599000Y-115140000D01*
X148599000Y-121080000D02*
X148599000Y-119150000D01*
X148639000Y-117070000D02*
X148639000Y-115124000D01*
X148639000Y-121096000D02*
X148639000Y-119150000D01*
X148679000Y-117070000D02*
X148679000Y-115108000D01*
X148679000Y-121112000D02*
X148679000Y-119150000D01*
X148719000Y-117070000D02*
X148719000Y-115092000D01*
X148719000Y-121128000D02*
X148719000Y-119150000D01*
X148759000Y-117070000D02*
X148759000Y-115077000D01*
X148759000Y-121143000D02*
X148759000Y-119150000D01*
X148799000Y-117070000D02*
X148799000Y-115063000D01*
X148799000Y-121157000D02*
X148799000Y-119150000D01*
X148839000Y-117070000D02*
X148839000Y-115049000D01*
X148839000Y-121171000D02*
X148839000Y-119150000D01*
X148879000Y-117070000D02*
X148879000Y-115036000D01*
X148879000Y-121184000D02*
X148879000Y-119150000D01*
X148919000Y-117070000D02*
X148919000Y-115024000D01*
X148919000Y-121196000D02*
X148919000Y-119150000D01*
X148959000Y-117070000D02*
X148959000Y-115012000D01*
X148959000Y-121208000D02*
X148959000Y-119150000D01*
X148999000Y-117070000D02*
X148999000Y-115000000D01*
X148999000Y-121220000D02*
X148999000Y-119150000D01*
X149039000Y-117070000D02*
X149039000Y-114989000D01*
X149039000Y-121231000D02*
X149039000Y-119150000D01*
X149079000Y-117070000D02*
X149079000Y-114979000D01*
X149079000Y-121241000D02*
X149079000Y-119150000D01*
X149119000Y-117070000D02*
X149119000Y-114969000D01*
X149119000Y-121251000D02*
X149119000Y-119150000D01*
X149159000Y-117070000D02*
X149159000Y-114960000D01*
X149159000Y-121260000D02*
X149159000Y-119150000D01*
X149200000Y-117070000D02*
X149200000Y-114951000D01*
X149200000Y-121269000D02*
X149200000Y-119150000D01*
X149240000Y-117070000D02*
X149240000Y-114943000D01*
X149240000Y-121277000D02*
X149240000Y-119150000D01*
X149280000Y-117070000D02*
X149280000Y-114935000D01*
X149280000Y-121285000D02*
X149280000Y-119150000D01*
X149320000Y-117070000D02*
X149320000Y-114928000D01*
X149320000Y-121292000D02*
X149320000Y-119150000D01*
X149360000Y-117070000D02*
X149360000Y-114921000D01*
X149360000Y-121299000D02*
X149360000Y-119150000D01*
X149400000Y-117070000D02*
X149400000Y-114915000D01*
X149400000Y-121305000D02*
X149400000Y-119150000D01*
X149440000Y-117070000D02*
X149440000Y-114909000D01*
X149440000Y-121311000D02*
X149440000Y-119150000D01*
X149480000Y-117070000D02*
X149480000Y-114904000D01*
X149480000Y-121316000D02*
X149480000Y-119150000D01*
X149520000Y-117070000D02*
X149520000Y-114899000D01*
X149520000Y-121321000D02*
X149520000Y-119150000D01*
X149560000Y-117070000D02*
X149560000Y-114895000D01*
X149560000Y-121325000D02*
X149560000Y-119150000D01*
X149600000Y-117070000D02*
X149600000Y-114892000D01*
X149600000Y-121328000D02*
X149600000Y-119150000D01*
X149640000Y-117070000D02*
X149640000Y-114888000D01*
X149640000Y-121332000D02*
X149640000Y-119150000D01*
X149680000Y-121334000D02*
X149680000Y-114886000D01*
X149720000Y-121337000D02*
X149720000Y-114883000D01*
X149760000Y-121338000D02*
X149760000Y-114882000D01*
X149800000Y-121340000D02*
X149800000Y-114880000D01*
X149840000Y-121340000D02*
X149840000Y-114880000D01*
X149880000Y-121340000D02*
X149880000Y-114880000D01*
X153150000Y-118110000D02*
G75*
G03X153150000Y-118110000I-3270000J0D01*
G01*
X141922500Y-121621000D02*
X140017500Y-121621000D01*
X140017500Y-119779500D02*
X140017500Y-121621000D01*
X141922500Y-121621000D02*
X141922500Y-119779500D01*
X140017500Y-117049000D02*
X140017500Y-118890500D01*
X141922500Y-117049000D02*
X140017500Y-117049000D01*
X141922500Y-118890500D02*
X141922500Y-117049000D01*
X140260000Y-119073748D02*
X140260000Y-119596252D01*
X141680000Y-119073748D02*
X141680000Y-119596252D01*
X138112500Y-101391000D02*
X136207500Y-101391000D01*
X136207500Y-99549500D02*
X136207500Y-101391000D01*
X138112500Y-101391000D02*
X138112500Y-99549500D01*
X136207500Y-96819000D02*
X136207500Y-98660500D01*
X138112500Y-96819000D02*
X136207500Y-96819000D01*
X138112500Y-98660500D02*
X138112500Y-96819000D01*
X136450000Y-98843748D02*
X136450000Y-99366252D01*
X137870000Y-98843748D02*
X137870000Y-99366252D01*
X138206775Y-114247000D02*
X138206775Y-113747000D01*
X138456775Y-113997000D02*
X137956775Y-113997000D01*
X133051000Y-112806000D02*
X133051000Y-112238000D01*
X133091000Y-113040000D02*
X133091000Y-112004000D01*
X133131000Y-113199000D02*
X133131000Y-111845000D01*
X133171000Y-113327000D02*
X133171000Y-111717000D01*
X133211000Y-113437000D02*
X133211000Y-111607000D01*
X133251000Y-113533000D02*
X133251000Y-111511000D01*
X133291000Y-113620000D02*
X133291000Y-111424000D01*
X133331000Y-113700000D02*
X133331000Y-111344000D01*
X133371000Y-113773000D02*
X133371000Y-111271000D01*
X133411000Y-113841000D02*
X133411000Y-111203000D01*
X133451000Y-113905000D02*
X133451000Y-111139000D01*
X133491000Y-113965000D02*
X133491000Y-111079000D01*
X133531000Y-114022000D02*
X133531000Y-111022000D01*
X133571000Y-114076000D02*
X133571000Y-110968000D01*
X133611000Y-114127000D02*
X133611000Y-110917000D01*
X133651000Y-111482000D02*
X133651000Y-110869000D01*
X133651000Y-114175000D02*
X133651000Y-113562000D01*
X133691000Y-111482000D02*
X133691000Y-110823000D01*
X133691000Y-114221000D02*
X133691000Y-113562000D01*
X133731000Y-111482000D02*
X133731000Y-110779000D01*
X133731000Y-114265000D02*
X133731000Y-113562000D01*
X133771000Y-111482000D02*
X133771000Y-110737000D01*
X133771000Y-114307000D02*
X133771000Y-113562000D01*
X133811000Y-111482000D02*
X133811000Y-110696000D01*
X133811000Y-114348000D02*
X133811000Y-113562000D01*
X133851000Y-111482000D02*
X133851000Y-110658000D01*
X133851000Y-114386000D02*
X133851000Y-113562000D01*
X133891000Y-111482000D02*
X133891000Y-110621000D01*
X133891000Y-114423000D02*
X133891000Y-113562000D01*
X133931000Y-111482000D02*
X133931000Y-110585000D01*
X133931000Y-114459000D02*
X133931000Y-113562000D01*
X133971000Y-111482000D02*
X133971000Y-110551000D01*
X133971000Y-114493000D02*
X133971000Y-113562000D01*
X134011000Y-111482000D02*
X134011000Y-110518000D01*
X134011000Y-114526000D02*
X134011000Y-113562000D01*
X134051000Y-111482000D02*
X134051000Y-110487000D01*
X134051000Y-114557000D02*
X134051000Y-113562000D01*
X134091000Y-111482000D02*
X134091000Y-110457000D01*
X134091000Y-114587000D02*
X134091000Y-113562000D01*
X134131000Y-111482000D02*
X134131000Y-110427000D01*
X134131000Y-114617000D02*
X134131000Y-113562000D01*
X134171000Y-111482000D02*
X134171000Y-110400000D01*
X134171000Y-114644000D02*
X134171000Y-113562000D01*
X134211000Y-111482000D02*
X134211000Y-110373000D01*
X134211000Y-114671000D02*
X134211000Y-113562000D01*
X134251000Y-111482000D02*
X134251000Y-110347000D01*
X134251000Y-114697000D02*
X134251000Y-113562000D01*
X134291000Y-111482000D02*
X134291000Y-110322000D01*
X134291000Y-114722000D02*
X134291000Y-113562000D01*
X134331000Y-111482000D02*
X134331000Y-110298000D01*
X134331000Y-114746000D02*
X134331000Y-113562000D01*
X134371000Y-111482000D02*
X134371000Y-110275000D01*
X134371000Y-114769000D02*
X134371000Y-113562000D01*
X134411000Y-111482000D02*
X134411000Y-110254000D01*
X134411000Y-114790000D02*
X134411000Y-113562000D01*
X134451000Y-111482000D02*
X134451000Y-110232000D01*
X134451000Y-114812000D02*
X134451000Y-113562000D01*
X134491000Y-111482000D02*
X134491000Y-110212000D01*
X134491000Y-114832000D02*
X134491000Y-113562000D01*
X134531000Y-111482000D02*
X134531000Y-110193000D01*
X134531000Y-114851000D02*
X134531000Y-113562000D01*
X134571000Y-111482000D02*
X134571000Y-110174000D01*
X134571000Y-114870000D02*
X134571000Y-113562000D01*
X134611000Y-111482000D02*
X134611000Y-110157000D01*
X134611000Y-114887000D02*
X134611000Y-113562000D01*
X134651000Y-111482000D02*
X134651000Y-110140000D01*
X134651000Y-114904000D02*
X134651000Y-113562000D01*
X134691000Y-111482000D02*
X134691000Y-110124000D01*
X134691000Y-114920000D02*
X134691000Y-113562000D01*
X134731000Y-111482000D02*
X134731000Y-110108000D01*
X134731000Y-114936000D02*
X134731000Y-113562000D01*
X134771000Y-111482000D02*
X134771000Y-110094000D01*
X134771000Y-114950000D02*
X134771000Y-113562000D01*
X134811000Y-111482000D02*
X134811000Y-110080000D01*
X134811000Y-114964000D02*
X134811000Y-113562000D01*
X134851000Y-111482000D02*
X134851000Y-110067000D01*
X134851000Y-114977000D02*
X134851000Y-113562000D01*
X134891000Y-111482000D02*
X134891000Y-110054000D01*
X134891000Y-114990000D02*
X134891000Y-113562000D01*
X134931000Y-111482000D02*
X134931000Y-110042000D01*
X134931000Y-115002000D02*
X134931000Y-113562000D01*
X134972000Y-111482000D02*
X134972000Y-110031000D01*
X134972000Y-115013000D02*
X134972000Y-113562000D01*
X135012000Y-111482000D02*
X135012000Y-110021000D01*
X135012000Y-115023000D02*
X135012000Y-113562000D01*
X135052000Y-111482000D02*
X135052000Y-110011000D01*
X135052000Y-115033000D02*
X135052000Y-113562000D01*
X135092000Y-111482000D02*
X135092000Y-110002000D01*
X135092000Y-115042000D02*
X135092000Y-113562000D01*
X135132000Y-111482000D02*
X135132000Y-109994000D01*
X135132000Y-115050000D02*
X135132000Y-113562000D01*
X135172000Y-111482000D02*
X135172000Y-109986000D01*
X135172000Y-115058000D02*
X135172000Y-113562000D01*
X135212000Y-111482000D02*
X135212000Y-109979000D01*
X135212000Y-115065000D02*
X135212000Y-113562000D01*
X135252000Y-111482000D02*
X135252000Y-109972000D01*
X135252000Y-115072000D02*
X135252000Y-113562000D01*
X135292000Y-111482000D02*
X135292000Y-109966000D01*
X135292000Y-115078000D02*
X135292000Y-113562000D01*
X135332000Y-111482000D02*
X135332000Y-109961000D01*
X135332000Y-115083000D02*
X135332000Y-113562000D01*
X135372000Y-111482000D02*
X135372000Y-109957000D01*
X135372000Y-115087000D02*
X135372000Y-113562000D01*
X135412000Y-111482000D02*
X135412000Y-109953000D01*
X135412000Y-115091000D02*
X135412000Y-113562000D01*
X135452000Y-111482000D02*
X135452000Y-109949000D01*
X135452000Y-115095000D02*
X135452000Y-113562000D01*
X135492000Y-111482000D02*
X135492000Y-109946000D01*
X135492000Y-115098000D02*
X135492000Y-113562000D01*
X135532000Y-111482000D02*
X135532000Y-109944000D01*
X135532000Y-115100000D02*
X135532000Y-113562000D01*
X135572000Y-111482000D02*
X135572000Y-109943000D01*
X135572000Y-115101000D02*
X135572000Y-113562000D01*
X135612000Y-115102000D02*
X135612000Y-113562000D01*
X135612000Y-111482000D02*
X135612000Y-109942000D01*
X135652000Y-115102000D02*
X135652000Y-113562000D01*
X135652000Y-111482000D02*
X135652000Y-109942000D01*
X138272000Y-112522000D02*
G75*
G03X138272000Y-112522000I-2620000J0D01*
G01*
X153065241Y-112644000D02*
X153065241Y-112014000D01*
X153380241Y-112329000D02*
X152750241Y-112329000D01*
X146639000Y-110892000D02*
X146639000Y-110088000D01*
X146679000Y-111123000D02*
X146679000Y-109857000D01*
X146719000Y-111292000D02*
X146719000Y-109688000D01*
X146759000Y-111430000D02*
X146759000Y-109550000D01*
X146799000Y-111549000D02*
X146799000Y-109431000D01*
X146839000Y-111655000D02*
X146839000Y-109325000D01*
X146879000Y-111752000D02*
X146879000Y-109228000D01*
X146919000Y-111840000D02*
X146919000Y-109140000D01*
X146959000Y-111922000D02*
X146959000Y-109058000D01*
X146999000Y-111999000D02*
X146999000Y-108981000D01*
X147039000Y-112071000D02*
X147039000Y-108909000D01*
X147079000Y-112140000D02*
X147079000Y-108840000D01*
X147119000Y-112204000D02*
X147119000Y-108776000D01*
X147159000Y-112266000D02*
X147159000Y-108714000D01*
X147199000Y-112324000D02*
X147199000Y-108656000D01*
X147239000Y-112380000D02*
X147239000Y-108600000D01*
X147279000Y-112434000D02*
X147279000Y-108546000D01*
X147319000Y-112485000D02*
X147319000Y-108495000D01*
X147359000Y-112534000D02*
X147359000Y-108446000D01*
X147399000Y-112582000D02*
X147399000Y-108398000D01*
X147439000Y-112627000D02*
X147439000Y-108353000D01*
X147479000Y-112672000D02*
X147479000Y-108308000D01*
X147519000Y-112714000D02*
X147519000Y-108266000D01*
X147559000Y-112755000D02*
X147559000Y-108225000D01*
X147599000Y-109450000D02*
X147599000Y-108185000D01*
X147599000Y-112795000D02*
X147599000Y-111530000D01*
X147639000Y-109450000D02*
X147639000Y-108147000D01*
X147639000Y-112833000D02*
X147639000Y-111530000D01*
X147679000Y-109450000D02*
X147679000Y-108110000D01*
X147679000Y-112870000D02*
X147679000Y-111530000D01*
X147719000Y-109450000D02*
X147719000Y-108074000D01*
X147719000Y-112906000D02*
X147719000Y-111530000D01*
X147759000Y-109450000D02*
X147759000Y-108040000D01*
X147759000Y-112940000D02*
X147759000Y-111530000D01*
X147799000Y-109450000D02*
X147799000Y-108006000D01*
X147799000Y-112974000D02*
X147799000Y-111530000D01*
X147839000Y-109450000D02*
X147839000Y-107974000D01*
X147839000Y-113006000D02*
X147839000Y-111530000D01*
X147879000Y-109450000D02*
X147879000Y-107942000D01*
X147879000Y-113038000D02*
X147879000Y-111530000D01*
X147919000Y-109450000D02*
X147919000Y-107912000D01*
X147919000Y-113068000D02*
X147919000Y-111530000D01*
X147959000Y-109450000D02*
X147959000Y-107883000D01*
X147959000Y-113097000D02*
X147959000Y-111530000D01*
X147999000Y-109450000D02*
X147999000Y-107854000D01*
X147999000Y-113126000D02*
X147999000Y-111530000D01*
X148039000Y-109450000D02*
X148039000Y-107826000D01*
X148039000Y-113154000D02*
X148039000Y-111530000D01*
X148079000Y-109450000D02*
X148079000Y-107800000D01*
X148079000Y-113180000D02*
X148079000Y-111530000D01*
X148119000Y-109450000D02*
X148119000Y-107774000D01*
X148119000Y-113206000D02*
X148119000Y-111530000D01*
X148159000Y-109450000D02*
X148159000Y-107748000D01*
X148159000Y-113232000D02*
X148159000Y-111530000D01*
X148199000Y-109450000D02*
X148199000Y-107724000D01*
X148199000Y-113256000D02*
X148199000Y-111530000D01*
X148239000Y-109450000D02*
X148239000Y-107700000D01*
X148239000Y-113280000D02*
X148239000Y-111530000D01*
X148279000Y-109450000D02*
X148279000Y-107678000D01*
X148279000Y-113302000D02*
X148279000Y-111530000D01*
X148319000Y-109450000D02*
X148319000Y-107656000D01*
X148319000Y-113324000D02*
X148319000Y-111530000D01*
X148359000Y-109450000D02*
X148359000Y-107634000D01*
X148359000Y-113346000D02*
X148359000Y-111530000D01*
X148399000Y-109450000D02*
X148399000Y-107614000D01*
X148399000Y-113366000D02*
X148399000Y-111530000D01*
X148439000Y-109450000D02*
X148439000Y-107594000D01*
X148439000Y-113386000D02*
X148439000Y-111530000D01*
X148479000Y-109450000D02*
X148479000Y-107574000D01*
X148479000Y-113406000D02*
X148479000Y-111530000D01*
X148519000Y-109450000D02*
X148519000Y-107556000D01*
X148519000Y-113424000D02*
X148519000Y-111530000D01*
X148559000Y-109450000D02*
X148559000Y-107538000D01*
X148559000Y-113442000D02*
X148559000Y-111530000D01*
X148599000Y-109450000D02*
X148599000Y-107520000D01*
X148599000Y-113460000D02*
X148599000Y-111530000D01*
X148639000Y-109450000D02*
X148639000Y-107504000D01*
X148639000Y-113476000D02*
X148639000Y-111530000D01*
X148679000Y-109450000D02*
X148679000Y-107488000D01*
X148679000Y-113492000D02*
X148679000Y-111530000D01*
X148719000Y-109450000D02*
X148719000Y-107472000D01*
X148719000Y-113508000D02*
X148719000Y-111530000D01*
X148759000Y-109450000D02*
X148759000Y-107457000D01*
X148759000Y-113523000D02*
X148759000Y-111530000D01*
X148799000Y-109450000D02*
X148799000Y-107443000D01*
X148799000Y-113537000D02*
X148799000Y-111530000D01*
X148839000Y-109450000D02*
X148839000Y-107429000D01*
X148839000Y-113551000D02*
X148839000Y-111530000D01*
X148879000Y-109450000D02*
X148879000Y-107416000D01*
X148879000Y-113564000D02*
X148879000Y-111530000D01*
X148919000Y-109450000D02*
X148919000Y-107404000D01*
X148919000Y-113576000D02*
X148919000Y-111530000D01*
X148959000Y-109450000D02*
X148959000Y-107392000D01*
X148959000Y-113588000D02*
X148959000Y-111530000D01*
X148999000Y-109450000D02*
X148999000Y-107380000D01*
X148999000Y-113600000D02*
X148999000Y-111530000D01*
X149039000Y-109450000D02*
X149039000Y-107369000D01*
X149039000Y-113611000D02*
X149039000Y-111530000D01*
X149079000Y-109450000D02*
X149079000Y-107359000D01*
X149079000Y-113621000D02*
X149079000Y-111530000D01*
X149119000Y-109450000D02*
X149119000Y-107349000D01*
X149119000Y-113631000D02*
X149119000Y-111530000D01*
X149159000Y-109450000D02*
X149159000Y-107340000D01*
X149159000Y-113640000D02*
X149159000Y-111530000D01*
X149200000Y-109450000D02*
X149200000Y-107331000D01*
X149200000Y-113649000D02*
X149200000Y-111530000D01*
X149240000Y-109450000D02*
X149240000Y-107323000D01*
X149240000Y-113657000D02*
X149240000Y-111530000D01*
X149280000Y-109450000D02*
X149280000Y-107315000D01*
X149280000Y-113665000D02*
X149280000Y-111530000D01*
X149320000Y-109450000D02*
X149320000Y-107308000D01*
X149320000Y-113672000D02*
X149320000Y-111530000D01*
X149360000Y-109450000D02*
X149360000Y-107301000D01*
X149360000Y-113679000D02*
X149360000Y-111530000D01*
X149400000Y-109450000D02*
X149400000Y-107295000D01*
X149400000Y-113685000D02*
X149400000Y-111530000D01*
X149440000Y-109450000D02*
X149440000Y-107289000D01*
X149440000Y-113691000D02*
X149440000Y-111530000D01*
X149480000Y-109450000D02*
X149480000Y-107284000D01*
X149480000Y-113696000D02*
X149480000Y-111530000D01*
X149520000Y-109450000D02*
X149520000Y-107279000D01*
X149520000Y-113701000D02*
X149520000Y-111530000D01*
X149560000Y-109450000D02*
X149560000Y-107275000D01*
X149560000Y-113705000D02*
X149560000Y-111530000D01*
X149600000Y-109450000D02*
X149600000Y-107272000D01*
X149600000Y-113708000D02*
X149600000Y-111530000D01*
X149640000Y-109450000D02*
X149640000Y-107268000D01*
X149640000Y-113712000D02*
X149640000Y-111530000D01*
X149680000Y-113714000D02*
X149680000Y-107266000D01*
X149720000Y-113717000D02*
X149720000Y-107263000D01*
X149760000Y-113718000D02*
X149760000Y-107262000D01*
X149800000Y-113720000D02*
X149800000Y-107260000D01*
X149840000Y-113720000D02*
X149840000Y-107260000D01*
X149880000Y-113720000D02*
X149880000Y-107260000D01*
X153150000Y-110490000D02*
G75*
G03X153150000Y-110490000I-3270000J0D01*
G01*
X138112500Y-121621000D02*
X136207500Y-121621000D01*
X136207500Y-119779500D02*
X136207500Y-121621000D01*
X138112500Y-121621000D02*
X138112500Y-119779500D01*
X136207500Y-117049000D02*
X136207500Y-118890500D01*
X138112500Y-117049000D02*
X136207500Y-117049000D01*
X138112500Y-118890500D02*
X138112500Y-117049000D01*
X136450000Y-119073748D02*
X136450000Y-119596252D01*
X137870000Y-119073748D02*
X137870000Y-119596252D01*
X134302500Y-101391000D02*
X132397500Y-101391000D01*
X132397500Y-99549500D02*
X132397500Y-101391000D01*
X134302500Y-101391000D02*
X134302500Y-99549500D01*
X132397500Y-96819000D02*
X132397500Y-98660500D01*
X134302500Y-96819000D02*
X132397500Y-96819000D01*
X134302500Y-98660500D02*
X134302500Y-96819000D01*
X132640000Y-98843748D02*
X132640000Y-99366252D01*
X134060000Y-98843748D02*
X134060000Y-99366252D01*
X134302500Y-121621000D02*
X132397500Y-121621000D01*
X132397500Y-119779500D02*
X132397500Y-121621000D01*
X134302500Y-121621000D02*
X134302500Y-119779500D01*
X132397500Y-117049000D02*
X132397500Y-118890500D01*
X134302500Y-117049000D02*
X132397500Y-117049000D01*
X134302500Y-118890500D02*
X134302500Y-117049000D01*
X132640000Y-119073748D02*
X132640000Y-119596252D01*
X134060000Y-119073748D02*
X134060000Y-119596252D01*
X164680000Y-107390000D02*
X164680000Y-116130000D01*
X164680000Y-107390000D02*
X160440000Y-107390000D01*
X160440000Y-116130000D02*
X164680000Y-116130000D01*
X160440000Y-116130000D02*
X160440000Y-107390000D01*
X166190000Y-95250000D02*
X166190000Y-105150000D01*
X166190000Y-105150000D02*
X143690000Y-105150000D01*
X166190000Y-95250000D02*
X143690000Y-95250000D01*
X143690000Y-95250000D02*
X143690000Y-105150000D01*
X165890000Y-95550000D02*
X165890000Y-104850000D01*
X165890000Y-104850000D02*
X143990000Y-104850000D01*
X165890000Y-95550000D02*
X143990000Y-95550000D01*
X143990000Y-95550000D02*
X143990000Y-104850000D01*
X124250000Y-115800000D02*
X125500000Y-115800000D01*
X124250000Y-114550000D02*
X124250000Y-115800000D01*
X129750000Y-103650000D02*
X129750000Y-109200000D01*
X126800000Y-103650000D02*
X129750000Y-103650000D01*
X126800000Y-102900000D02*
X126800000Y-103650000D01*
X129750000Y-114750000D02*
X129750000Y-109200000D01*
X126800000Y-114750000D02*
X129750000Y-114750000D01*
X126800000Y-115500000D02*
X126800000Y-114750000D01*
X124550000Y-102900000D02*
X124550000Y-104700000D01*
X125300000Y-102900000D02*
X124550000Y-102900000D01*
X125300000Y-104700000D02*
X125300000Y-102900000D01*
X124550000Y-104700000D02*
X125300000Y-104700000D01*
X124550000Y-113700000D02*
X124550000Y-115500000D01*
X125300000Y-113700000D02*
X124550000Y-113700000D01*
X125300000Y-115500000D02*
X125300000Y-113700000D01*
X124550000Y-115500000D02*
X125300000Y-115500000D01*
X124550000Y-106200000D02*
X124550000Y-112200000D01*
X125300000Y-106200000D02*
X124550000Y-106200000D01*
X125300000Y-112200000D02*
X125300000Y-106200000D01*
X124550000Y-112200000D02*
X125300000Y-112200000D01*
X124540000Y-102890000D02*
X124540000Y-115510000D01*
X130510000Y-102890000D02*
X124540000Y-102890000D01*
X130510000Y-115510000D02*
X130510000Y-102890000D01*
X124540000Y-115510000D02*
X130510000Y-115510000D01*
X175470000Y-102640000D02*
X174220000Y-102640000D01*
X175470000Y-103890000D02*
X175470000Y-102640000D01*
X169970000Y-114790000D02*
X169970000Y-109240000D01*
X172920000Y-114790000D02*
X169970000Y-114790000D01*
X172920000Y-115540000D02*
X172920000Y-114790000D01*
X169970000Y-103690000D02*
X169970000Y-109240000D01*
X172920000Y-103690000D02*
X169970000Y-103690000D01*
X172920000Y-102940000D02*
X172920000Y-103690000D01*
X175170000Y-115540000D02*
X175170000Y-113740000D01*
X174420000Y-115540000D02*
X175170000Y-115540000D01*
X174420000Y-113740000D02*
X174420000Y-115540000D01*
X175170000Y-113740000D02*
X174420000Y-113740000D01*
X175170000Y-104740000D02*
X175170000Y-102940000D01*
X174420000Y-104740000D02*
X175170000Y-104740000D01*
X174420000Y-102940000D02*
X174420000Y-104740000D01*
X175170000Y-102940000D02*
X174420000Y-102940000D01*
X175170000Y-112240000D02*
X175170000Y-106240000D01*
X174420000Y-112240000D02*
X175170000Y-112240000D01*
X174420000Y-106240000D02*
X174420000Y-112240000D01*
X175170000Y-106240000D02*
X174420000Y-106240000D01*
X175180000Y-115550000D02*
X175180000Y-102930000D01*
X169210000Y-115550000D02*
X175180000Y-115550000D01*
X169210000Y-102930000D02*
X169210000Y-115550000D01*
X175180000Y-102930000D02*
X169210000Y-102930000D01*
D10*
X141327142Y-95892857D02*
X141374761Y-95940476D01*
X141422380Y-96083333D01*
X141422380Y-96178571D01*
X141374761Y-96321428D01*
X141279523Y-96416666D01*
X141184285Y-96464285D01*
X140993809Y-96511904D01*
X140850952Y-96511904D01*
X140660476Y-96464285D01*
X140565238Y-96416666D01*
X140470000Y-96321428D01*
X140422380Y-96178571D01*
X140422380Y-96083333D01*
X140470000Y-95940476D01*
X140517619Y-95892857D01*
X141422380Y-94940476D02*
X141422380Y-95511904D01*
X141422380Y-95226190D02*
X140422380Y-95226190D01*
X140565238Y-95321428D01*
X140660476Y-95416666D01*
X140708095Y-95511904D01*
X141422380Y-93988095D02*
X141422380Y-94559523D01*
X141422380Y-94273809D02*
X140422380Y-94273809D01*
X140565238Y-94369047D01*
X140660476Y-94464285D01*
X140708095Y-94559523D01*
X138517333Y-103227142D02*
X138469714Y-103274761D01*
X138326857Y-103322380D01*
X138231619Y-103322380D01*
X138088761Y-103274761D01*
X137993523Y-103179523D01*
X137945904Y-103084285D01*
X137898285Y-102893809D01*
X137898285Y-102750952D01*
X137945904Y-102560476D01*
X137993523Y-102465238D01*
X138088761Y-102370000D01*
X138231619Y-102322380D01*
X138326857Y-102322380D01*
X138469714Y-102370000D01*
X138517333Y-102417619D01*
X139422095Y-102322380D02*
X138945904Y-102322380D01*
X138898285Y-102798571D01*
X138945904Y-102750952D01*
X139041142Y-102703333D01*
X139279238Y-102703333D01*
X139374476Y-102750952D01*
X139422095Y-102798571D01*
X139469714Y-102893809D01*
X139469714Y-103131904D01*
X139422095Y-103227142D01*
X139374476Y-103274761D01*
X139279238Y-103322380D01*
X139041142Y-103322380D01*
X138945904Y-103274761D01*
X138898285Y-103227142D01*
X156059142Y-112434666D02*
X156106761Y-112482285D01*
X156154380Y-112625142D01*
X156154380Y-112720380D01*
X156106761Y-112863238D01*
X156011523Y-112958476D01*
X155916285Y-113006095D01*
X155725809Y-113053714D01*
X155582952Y-113053714D01*
X155392476Y-113006095D01*
X155297238Y-112958476D01*
X155202000Y-112863238D01*
X155154380Y-112720380D01*
X155154380Y-112625142D01*
X155202000Y-112482285D01*
X155249619Y-112434666D01*
X155154380Y-112101333D02*
X155154380Y-111482285D01*
X155535333Y-111815619D01*
X155535333Y-111672761D01*
X155582952Y-111577523D01*
X155630571Y-111529904D01*
X155725809Y-111482285D01*
X155963904Y-111482285D01*
X156059142Y-111529904D01*
X156106761Y-111577523D01*
X156154380Y-111672761D01*
X156154380Y-111958476D01*
X156106761Y-112053714D01*
X156059142Y-112101333D01*
X152995333Y-114911142D02*
X152947714Y-114958761D01*
X152804857Y-115006380D01*
X152709619Y-115006380D01*
X152566761Y-114958761D01*
X152471523Y-114863523D01*
X152423904Y-114768285D01*
X152376285Y-114577809D01*
X152376285Y-114434952D01*
X152423904Y-114244476D01*
X152471523Y-114149238D01*
X152566761Y-114054000D01*
X152709619Y-114006380D01*
X152804857Y-114006380D01*
X152947714Y-114054000D01*
X152995333Y-114101619D01*
X153376285Y-114101619D02*
X153423904Y-114054000D01*
X153519142Y-114006380D01*
X153757238Y-114006380D01*
X153852476Y-114054000D01*
X153900095Y-114101619D01*
X153947714Y-114196857D01*
X153947714Y-114292095D01*
X153900095Y-114434952D01*
X153328666Y-115006380D01*
X153947714Y-115006380D01*
X141327142Y-123832857D02*
X141374761Y-123880476D01*
X141422380Y-124023333D01*
X141422380Y-124118571D01*
X141374761Y-124261428D01*
X141279523Y-124356666D01*
X141184285Y-124404285D01*
X140993809Y-124451904D01*
X140850952Y-124451904D01*
X140660476Y-124404285D01*
X140565238Y-124356666D01*
X140470000Y-124261428D01*
X140422380Y-124118571D01*
X140422380Y-124023333D01*
X140470000Y-123880476D01*
X140517619Y-123832857D01*
X141422380Y-122880476D02*
X141422380Y-123451904D01*
X141422380Y-123166190D02*
X140422380Y-123166190D01*
X140565238Y-123261428D01*
X140660476Y-123356666D01*
X140708095Y-123451904D01*
X140422380Y-122261428D02*
X140422380Y-122166190D01*
X140470000Y-122070952D01*
X140517619Y-122023333D01*
X140612857Y-121975714D01*
X140803333Y-121928095D01*
X141041428Y-121928095D01*
X141231904Y-121975714D01*
X141327142Y-122023333D01*
X141374761Y-122070952D01*
X141422380Y-122166190D01*
X141422380Y-122261428D01*
X141374761Y-122356666D01*
X141327142Y-122404285D01*
X141231904Y-122451904D01*
X141041428Y-122499523D01*
X140803333Y-122499523D01*
X140612857Y-122451904D01*
X140517619Y-122404285D01*
X140470000Y-122356666D01*
X140422380Y-122261428D01*
X137517142Y-95416666D02*
X137564761Y-95464285D01*
X137612380Y-95607142D01*
X137612380Y-95702380D01*
X137564761Y-95845238D01*
X137469523Y-95940476D01*
X137374285Y-95988095D01*
X137183809Y-96035714D01*
X137040952Y-96035714D01*
X136850476Y-95988095D01*
X136755238Y-95940476D01*
X136660000Y-95845238D01*
X136612380Y-95702380D01*
X136612380Y-95607142D01*
X136660000Y-95464285D01*
X136707619Y-95416666D01*
X137612380Y-94940476D02*
X137612380Y-94750000D01*
X137564761Y-94654761D01*
X137517142Y-94607142D01*
X137374285Y-94511904D01*
X137183809Y-94464285D01*
X136802857Y-94464285D01*
X136707619Y-94511904D01*
X136660000Y-94559523D01*
X136612380Y-94654761D01*
X136612380Y-94845238D01*
X136660000Y-94940476D01*
X136707619Y-94988095D01*
X136802857Y-95035714D01*
X137040952Y-95035714D01*
X137136190Y-94988095D01*
X137183809Y-94940476D01*
X137231428Y-94845238D01*
X137231428Y-94654761D01*
X137183809Y-94559523D01*
X137136190Y-94511904D01*
X137040952Y-94464285D01*
X138517333Y-115927142D02*
X138469714Y-115974761D01*
X138326857Y-116022380D01*
X138231619Y-116022380D01*
X138088761Y-115974761D01*
X137993523Y-115879523D01*
X137945904Y-115784285D01*
X137898285Y-115593809D01*
X137898285Y-115450952D01*
X137945904Y-115260476D01*
X137993523Y-115165238D01*
X138088761Y-115070000D01*
X138231619Y-115022380D01*
X138326857Y-115022380D01*
X138469714Y-115070000D01*
X138517333Y-115117619D01*
X139374476Y-115355714D02*
X139374476Y-116022380D01*
X139136380Y-114974761D02*
X138898285Y-115689047D01*
X139517333Y-115689047D01*
X152995333Y-107291142D02*
X152947714Y-107338761D01*
X152804857Y-107386380D01*
X152709619Y-107386380D01*
X152566761Y-107338761D01*
X152471523Y-107243523D01*
X152423904Y-107148285D01*
X152376285Y-106957809D01*
X152376285Y-106814952D01*
X152423904Y-106624476D01*
X152471523Y-106529238D01*
X152566761Y-106434000D01*
X152709619Y-106386380D01*
X152804857Y-106386380D01*
X152947714Y-106434000D01*
X152995333Y-106481619D01*
X153947714Y-107386380D02*
X153376285Y-107386380D01*
X153662000Y-107386380D02*
X153662000Y-106386380D01*
X153566761Y-106529238D01*
X153471523Y-106624476D01*
X153376285Y-106672095D01*
X137517142Y-123356666D02*
X137564761Y-123404285D01*
X137612380Y-123547142D01*
X137612380Y-123642380D01*
X137564761Y-123785238D01*
X137469523Y-123880476D01*
X137374285Y-123928095D01*
X137183809Y-123975714D01*
X137040952Y-123975714D01*
X136850476Y-123928095D01*
X136755238Y-123880476D01*
X136660000Y-123785238D01*
X136612380Y-123642380D01*
X136612380Y-123547142D01*
X136660000Y-123404285D01*
X136707619Y-123356666D01*
X137040952Y-122785238D02*
X136993333Y-122880476D01*
X136945714Y-122928095D01*
X136850476Y-122975714D01*
X136802857Y-122975714D01*
X136707619Y-122928095D01*
X136660000Y-122880476D01*
X136612380Y-122785238D01*
X136612380Y-122594761D01*
X136660000Y-122499523D01*
X136707619Y-122451904D01*
X136802857Y-122404285D01*
X136850476Y-122404285D01*
X136945714Y-122451904D01*
X136993333Y-122499523D01*
X137040952Y-122594761D01*
X137040952Y-122785238D01*
X137088571Y-122880476D01*
X137136190Y-122928095D01*
X137231428Y-122975714D01*
X137421904Y-122975714D01*
X137517142Y-122928095D01*
X137564761Y-122880476D01*
X137612380Y-122785238D01*
X137612380Y-122594761D01*
X137564761Y-122499523D01*
X137517142Y-122451904D01*
X137421904Y-122404285D01*
X137231428Y-122404285D01*
X137136190Y-122451904D01*
X137088571Y-122499523D01*
X137040952Y-122594761D01*
X133707142Y-95416666D02*
X133754761Y-95464285D01*
X133802380Y-95607142D01*
X133802380Y-95702380D01*
X133754761Y-95845238D01*
X133659523Y-95940476D01*
X133564285Y-95988095D01*
X133373809Y-96035714D01*
X133230952Y-96035714D01*
X133040476Y-95988095D01*
X132945238Y-95940476D01*
X132850000Y-95845238D01*
X132802380Y-95702380D01*
X132802380Y-95607142D01*
X132850000Y-95464285D01*
X132897619Y-95416666D01*
X132802380Y-95083333D02*
X132802380Y-94416666D01*
X133802380Y-94845238D01*
X133707142Y-123356666D02*
X133754761Y-123404285D01*
X133802380Y-123547142D01*
X133802380Y-123642380D01*
X133754761Y-123785238D01*
X133659523Y-123880476D01*
X133564285Y-123928095D01*
X133373809Y-123975714D01*
X133230952Y-123975714D01*
X133040476Y-123928095D01*
X132945238Y-123880476D01*
X132850000Y-123785238D01*
X132802380Y-123642380D01*
X132802380Y-123547142D01*
X132850000Y-123404285D01*
X132897619Y-123356666D01*
X132802380Y-122499523D02*
X132802380Y-122690000D01*
X132850000Y-122785238D01*
X132897619Y-122832857D01*
X133040476Y-122928095D01*
X133230952Y-122975714D01*
X133611904Y-122975714D01*
X133707142Y-122928095D01*
X133754761Y-122880476D01*
X133802380Y-122785238D01*
X133802380Y-122594761D01*
X133754761Y-122499523D01*
X133707142Y-122451904D01*
X133611904Y-122404285D01*
X133373809Y-122404285D01*
X133278571Y-122451904D01*
X133230952Y-122499523D01*
X133183333Y-122594761D01*
X133183333Y-122785238D01*
X133230952Y-122880476D01*
X133278571Y-122928095D01*
X133373809Y-122975714D01*
X158670666Y-115244571D02*
X158337333Y-115244571D01*
X158337333Y-115768380D02*
X158337333Y-114768380D01*
X158813523Y-114768380D01*
X159718285Y-115768380D02*
X159146857Y-115768380D01*
X159432571Y-115768380D02*
X159432571Y-114768380D01*
X159337333Y-114911238D01*
X159242095Y-115006476D01*
X159146857Y-115054095D01*
X141478095Y-103592380D02*
X141478095Y-104401904D01*
X141525714Y-104497142D01*
X141573333Y-104544761D01*
X141668571Y-104592380D01*
X141859047Y-104592380D01*
X141954285Y-104544761D01*
X142001904Y-104497142D01*
X142049523Y-104401904D01*
X142049523Y-103592380D01*
X143049523Y-104592380D02*
X142478095Y-104592380D01*
X142763809Y-104592380D02*
X142763809Y-103592380D01*
X142668571Y-103735238D01*
X142573333Y-103830476D01*
X142478095Y-103878095D01*
X129460666Y-116292380D02*
X129460666Y-117006666D01*
X129413047Y-117149523D01*
X129317809Y-117244761D01*
X129174952Y-117292380D01*
X129079714Y-117292380D01*
X129889238Y-116387619D02*
X129936857Y-116340000D01*
X130032095Y-116292380D01*
X130270190Y-116292380D01*
X130365428Y-116340000D01*
X130413047Y-116387619D01*
X130460666Y-116482857D01*
X130460666Y-116578095D01*
X130413047Y-116720952D01*
X129841619Y-117292380D01*
X130460666Y-117292380D01*
X169846666Y-116372380D02*
X169846666Y-117086666D01*
X169799047Y-117229523D01*
X169703809Y-117324761D01*
X169560952Y-117372380D01*
X169465714Y-117372380D01*
X170846666Y-117372380D02*
X170275238Y-117372380D01*
X170560952Y-117372380D02*
X170560952Y-116372380D01*
X170465714Y-116515238D01*
X170370476Y-116610476D01*
X170275238Y-116658095D01*
M02*
