G04 #@! TF.GenerationSoftware,KiCad,Pcbnew,(5.1.2)-1*
G04 #@! TF.CreationDate,2019-05-13T11:07:23-07:00*
G04 #@! TF.ProjectId,triumph_power,74726975-6d70-4685-9f70-6f7765722e6b,A*
G04 #@! TF.SameCoordinates,Original*
G04 #@! TF.FileFunction,Copper,L2,Bot*
G04 #@! TF.FilePolarity,Positive*
%FSLAX46Y46*%
G04 Gerber Fmt 4.6, Leading zero omitted, Abs format (unit mm)*
G04 Created by KiCad (PCBNEW (5.1.2)-1) date 2019-05-13 11:07:23*
%MOMM*%
%LPD*%
G04 APERTURE LIST*
%ADD10C,1.600000*%
%ADD11R,1.600000X1.600000*%
%ADD12C,2.000000*%
%ADD13O,1.700000X1.700000*%
%ADD14R,1.700000X1.700000*%
%ADD15C,5.500000*%
%ADD16O,1.950000X1.700000*%
%ADD17C,0.100000*%
%ADD18C,1.700000*%
%ADD19C,1.270000*%
%ADD20C,0.254000*%
G04 APERTURE END LIST*
D10*
X136652000Y-105918000D03*
D11*
X134652000Y-105918000D03*
D10*
X148630000Y-118110000D03*
D11*
X151130000Y-118110000D03*
D10*
X134652000Y-112522000D03*
D11*
X136652000Y-112522000D03*
D10*
X148630000Y-110490000D03*
D11*
X151130000Y-110490000D03*
D12*
X162570000Y-109220000D03*
X162560000Y-114300000D03*
D13*
X146050000Y-101600000D03*
X148590000Y-101600000D03*
X151130000Y-101600000D03*
X153670000Y-101600000D03*
X158750000Y-101600000D03*
X161290000Y-101600000D03*
D14*
X163830000Y-101600000D03*
D15*
X127000000Y-121920000D03*
X172720000Y-121920000D03*
X172720000Y-96520000D03*
X127000000Y-96520000D03*
D16*
X127000000Y-105450000D03*
X127000000Y-107950000D03*
X127000000Y-110450000D03*
D17*
G36*
X127749504Y-112101204D02*
G01*
X127773773Y-112104804D01*
X127797571Y-112110765D01*
X127820671Y-112119030D01*
X127842849Y-112129520D01*
X127863893Y-112142133D01*
X127883598Y-112156747D01*
X127901777Y-112173223D01*
X127918253Y-112191402D01*
X127932867Y-112211107D01*
X127945480Y-112232151D01*
X127955970Y-112254329D01*
X127964235Y-112277429D01*
X127970196Y-112301227D01*
X127973796Y-112325496D01*
X127975000Y-112350000D01*
X127975000Y-113550000D01*
X127973796Y-113574504D01*
X127970196Y-113598773D01*
X127964235Y-113622571D01*
X127955970Y-113645671D01*
X127945480Y-113667849D01*
X127932867Y-113688893D01*
X127918253Y-113708598D01*
X127901777Y-113726777D01*
X127883598Y-113743253D01*
X127863893Y-113757867D01*
X127842849Y-113770480D01*
X127820671Y-113780970D01*
X127797571Y-113789235D01*
X127773773Y-113795196D01*
X127749504Y-113798796D01*
X127725000Y-113800000D01*
X126275000Y-113800000D01*
X126250496Y-113798796D01*
X126226227Y-113795196D01*
X126202429Y-113789235D01*
X126179329Y-113780970D01*
X126157151Y-113770480D01*
X126136107Y-113757867D01*
X126116402Y-113743253D01*
X126098223Y-113726777D01*
X126081747Y-113708598D01*
X126067133Y-113688893D01*
X126054520Y-113667849D01*
X126044030Y-113645671D01*
X126035765Y-113622571D01*
X126029804Y-113598773D01*
X126026204Y-113574504D01*
X126025000Y-113550000D01*
X126025000Y-112350000D01*
X126026204Y-112325496D01*
X126029804Y-112301227D01*
X126035765Y-112277429D01*
X126044030Y-112254329D01*
X126054520Y-112232151D01*
X126067133Y-112211107D01*
X126081747Y-112191402D01*
X126098223Y-112173223D01*
X126116402Y-112156747D01*
X126136107Y-112142133D01*
X126157151Y-112129520D01*
X126179329Y-112119030D01*
X126202429Y-112110765D01*
X126226227Y-112104804D01*
X126250496Y-112101204D01*
X126275000Y-112100000D01*
X127725000Y-112100000D01*
X127749504Y-112101204D01*
X127749504Y-112101204D01*
G37*
D18*
X127000000Y-112950000D03*
D16*
X172720000Y-112990000D03*
X172720000Y-110490000D03*
X172720000Y-107990000D03*
D17*
G36*
X173469504Y-104641204D02*
G01*
X173493773Y-104644804D01*
X173517571Y-104650765D01*
X173540671Y-104659030D01*
X173562849Y-104669520D01*
X173583893Y-104682133D01*
X173603598Y-104696747D01*
X173621777Y-104713223D01*
X173638253Y-104731402D01*
X173652867Y-104751107D01*
X173665480Y-104772151D01*
X173675970Y-104794329D01*
X173684235Y-104817429D01*
X173690196Y-104841227D01*
X173693796Y-104865496D01*
X173695000Y-104890000D01*
X173695000Y-106090000D01*
X173693796Y-106114504D01*
X173690196Y-106138773D01*
X173684235Y-106162571D01*
X173675970Y-106185671D01*
X173665480Y-106207849D01*
X173652867Y-106228893D01*
X173638253Y-106248598D01*
X173621777Y-106266777D01*
X173603598Y-106283253D01*
X173583893Y-106297867D01*
X173562849Y-106310480D01*
X173540671Y-106320970D01*
X173517571Y-106329235D01*
X173493773Y-106335196D01*
X173469504Y-106338796D01*
X173445000Y-106340000D01*
X171995000Y-106340000D01*
X171970496Y-106338796D01*
X171946227Y-106335196D01*
X171922429Y-106329235D01*
X171899329Y-106320970D01*
X171877151Y-106310480D01*
X171856107Y-106297867D01*
X171836402Y-106283253D01*
X171818223Y-106266777D01*
X171801747Y-106248598D01*
X171787133Y-106228893D01*
X171774520Y-106207849D01*
X171764030Y-106185671D01*
X171755765Y-106162571D01*
X171749804Y-106138773D01*
X171746204Y-106114504D01*
X171745000Y-106090000D01*
X171745000Y-104890000D01*
X171746204Y-104865496D01*
X171749804Y-104841227D01*
X171755765Y-104817429D01*
X171764030Y-104794329D01*
X171774520Y-104772151D01*
X171787133Y-104751107D01*
X171801747Y-104731402D01*
X171818223Y-104713223D01*
X171836402Y-104696747D01*
X171856107Y-104682133D01*
X171877151Y-104669520D01*
X171899329Y-104659030D01*
X171922429Y-104650765D01*
X171946227Y-104644804D01*
X171970496Y-104641204D01*
X171995000Y-104640000D01*
X173445000Y-104640000D01*
X173469504Y-104641204D01*
X173469504Y-104641204D01*
G37*
D18*
X172720000Y-105490000D03*
D19*
X157480000Y-113030000D03*
X135217994Y-97880000D03*
X139102000Y-97880010D03*
X135217993Y-120560007D03*
X139102004Y-120560004D03*
D20*
G36*
X154813000Y-100651931D02*
G01*
X154725134Y-100544866D01*
X154499014Y-100359294D01*
X154241034Y-100221401D01*
X153961111Y-100136487D01*
X153742950Y-100115000D01*
X153597050Y-100115000D01*
X153378889Y-100136487D01*
X153098966Y-100221401D01*
X152840986Y-100359294D01*
X152614866Y-100544866D01*
X152429294Y-100770986D01*
X152400000Y-100825791D01*
X152370706Y-100770986D01*
X152185134Y-100544866D01*
X151959014Y-100359294D01*
X151701034Y-100221401D01*
X151421111Y-100136487D01*
X151202950Y-100115000D01*
X151057050Y-100115000D01*
X150838889Y-100136487D01*
X150558966Y-100221401D01*
X150300986Y-100359294D01*
X150074866Y-100544866D01*
X149889294Y-100770986D01*
X149854799Y-100835523D01*
X149785178Y-100718645D01*
X149590269Y-100502412D01*
X149356920Y-100328359D01*
X149094099Y-100203175D01*
X148946890Y-100158524D01*
X148717000Y-100279845D01*
X148717000Y-101473000D01*
X148737000Y-101473000D01*
X148737000Y-101727000D01*
X148717000Y-101727000D01*
X148717000Y-102920155D01*
X148946890Y-103041476D01*
X149094099Y-102996825D01*
X149356920Y-102871641D01*
X149590269Y-102697588D01*
X149785178Y-102481355D01*
X149854799Y-102364477D01*
X149889294Y-102429014D01*
X150074866Y-102655134D01*
X150300986Y-102840706D01*
X150558966Y-102978599D01*
X150838889Y-103063513D01*
X151057050Y-103085000D01*
X151202950Y-103085000D01*
X151421111Y-103063513D01*
X151701034Y-102978599D01*
X151959014Y-102840706D01*
X152185134Y-102655134D01*
X152370706Y-102429014D01*
X152400000Y-102374209D01*
X152429294Y-102429014D01*
X152614866Y-102655134D01*
X152840986Y-102840706D01*
X153098966Y-102978599D01*
X153378889Y-103063513D01*
X153597050Y-103085000D01*
X153742950Y-103085000D01*
X153961111Y-103063513D01*
X154241034Y-102978599D01*
X154499014Y-102840706D01*
X154725134Y-102655134D01*
X154813000Y-102548069D01*
X154813000Y-104013000D01*
X143510000Y-104013000D01*
X143485224Y-104015440D01*
X143461399Y-104022667D01*
X143439443Y-104034403D01*
X143420197Y-104050197D01*
X143404403Y-104069443D01*
X143392667Y-104091399D01*
X143385440Y-104115224D01*
X143383000Y-104140000D01*
X143383000Y-124333000D01*
X132207000Y-124333000D01*
X132207000Y-116840000D01*
X132204560Y-116815224D01*
X132197333Y-116791399D01*
X132185597Y-116769443D01*
X132169803Y-116750197D01*
X132150557Y-116734403D01*
X132128601Y-116722667D01*
X132104776Y-116715440D01*
X132080000Y-116713000D01*
X124587000Y-116713000D01*
X124587000Y-112350000D01*
X125386928Y-112350000D01*
X125386928Y-113550000D01*
X125403992Y-113723254D01*
X125454528Y-113889850D01*
X125536595Y-114043386D01*
X125647038Y-114177962D01*
X125781614Y-114288405D01*
X125935150Y-114370472D01*
X126101746Y-114421008D01*
X126275000Y-114438072D01*
X127725000Y-114438072D01*
X127898254Y-114421008D01*
X128064850Y-114370472D01*
X128218386Y-114288405D01*
X128352962Y-114177962D01*
X128463405Y-114043386D01*
X128545472Y-113889850D01*
X128596008Y-113723254D01*
X128613072Y-113550000D01*
X128613072Y-112592512D01*
X133211783Y-112592512D01*
X133253213Y-112872130D01*
X133348397Y-113138292D01*
X133415329Y-113263514D01*
X133659298Y-113335097D01*
X134472395Y-112522000D01*
X133659298Y-111708903D01*
X133415329Y-111780486D01*
X133294429Y-112035996D01*
X133225700Y-112310184D01*
X133211783Y-112592512D01*
X128613072Y-112592512D01*
X128613072Y-112350000D01*
X128596008Y-112176746D01*
X128545472Y-112010150D01*
X128463405Y-111856614D01*
X128352962Y-111722038D01*
X128218386Y-111611595D01*
X128113039Y-111555286D01*
X128134429Y-111539049D01*
X128143070Y-111529298D01*
X133838903Y-111529298D01*
X134652000Y-112342395D01*
X134666143Y-112328253D01*
X134845748Y-112507858D01*
X134831605Y-112522000D01*
X134845748Y-112536143D01*
X134666143Y-112715748D01*
X134652000Y-112701605D01*
X133838903Y-113514702D01*
X133910486Y-113758671D01*
X134165996Y-113879571D01*
X134440184Y-113948300D01*
X134722512Y-113962217D01*
X135002130Y-113920787D01*
X135268292Y-113825603D01*
X135390309Y-113760384D01*
X135400815Y-113773185D01*
X135497506Y-113852537D01*
X135607820Y-113911502D01*
X135727518Y-113947812D01*
X135852000Y-113960072D01*
X137452000Y-113960072D01*
X137576482Y-113947812D01*
X137696180Y-113911502D01*
X137806494Y-113852537D01*
X137903185Y-113773185D01*
X137982537Y-113676494D01*
X138041502Y-113566180D01*
X138077812Y-113446482D01*
X138090072Y-113322000D01*
X138090072Y-111722000D01*
X138077812Y-111597518D01*
X138041502Y-111477820D01*
X137982537Y-111367506D01*
X137903185Y-111270815D01*
X137806494Y-111191463D01*
X137696180Y-111132498D01*
X137576482Y-111096188D01*
X137452000Y-111083928D01*
X135852000Y-111083928D01*
X135727518Y-111096188D01*
X135607820Y-111132498D01*
X135497506Y-111191463D01*
X135400815Y-111270815D01*
X135390193Y-111283758D01*
X135138004Y-111164429D01*
X134863816Y-111095700D01*
X134581488Y-111081783D01*
X134301870Y-111123213D01*
X134035708Y-111218397D01*
X133910486Y-111285329D01*
X133838903Y-111529298D01*
X128143070Y-111529298D01*
X128327496Y-111321193D01*
X128474352Y-111069858D01*
X128566476Y-110806890D01*
X128445155Y-110577000D01*
X127127000Y-110577000D01*
X127127000Y-110597000D01*
X126873000Y-110597000D01*
X126873000Y-110577000D01*
X125554845Y-110577000D01*
X125433524Y-110806890D01*
X125525648Y-111069858D01*
X125672504Y-111321193D01*
X125865571Y-111539049D01*
X125886961Y-111555286D01*
X125781614Y-111611595D01*
X125647038Y-111722038D01*
X125536595Y-111856614D01*
X125454528Y-112010150D01*
X125403992Y-112176746D01*
X125386928Y-112350000D01*
X124587000Y-112350000D01*
X124587000Y-108306890D01*
X125433524Y-108306890D01*
X125525648Y-108569858D01*
X125672504Y-108821193D01*
X125865571Y-109039049D01*
X126077600Y-109200000D01*
X125865571Y-109360951D01*
X125672504Y-109578807D01*
X125525648Y-109830142D01*
X125433524Y-110093110D01*
X125554845Y-110323000D01*
X126873000Y-110323000D01*
X126873000Y-108077000D01*
X127127000Y-108077000D01*
X127127000Y-110323000D01*
X128445155Y-110323000D01*
X128566476Y-110093110D01*
X128474352Y-109830142D01*
X128327496Y-109578807D01*
X128134429Y-109360951D01*
X127922400Y-109200000D01*
X128134429Y-109039049D01*
X128327496Y-108821193D01*
X128474352Y-108569858D01*
X128566476Y-108306890D01*
X128445155Y-108077000D01*
X127127000Y-108077000D01*
X126873000Y-108077000D01*
X125554845Y-108077000D01*
X125433524Y-108306890D01*
X124587000Y-108306890D01*
X124587000Y-105450000D01*
X125382815Y-105450000D01*
X125411487Y-105741111D01*
X125496401Y-106021034D01*
X125634294Y-106279014D01*
X125819866Y-106505134D01*
X126045986Y-106690706D01*
X126071722Y-106704462D01*
X125865571Y-106860951D01*
X125672504Y-107078807D01*
X125525648Y-107330142D01*
X125433524Y-107593110D01*
X125554845Y-107823000D01*
X126873000Y-107823000D01*
X126873000Y-107803000D01*
X127127000Y-107803000D01*
X127127000Y-107823000D01*
X128445155Y-107823000D01*
X128566476Y-107593110D01*
X128474352Y-107330142D01*
X128327496Y-107078807D01*
X128134429Y-106860951D01*
X127946113Y-106718000D01*
X133213928Y-106718000D01*
X133226188Y-106842482D01*
X133262498Y-106962180D01*
X133321463Y-107072494D01*
X133400815Y-107169185D01*
X133497506Y-107248537D01*
X133607820Y-107307502D01*
X133727518Y-107343812D01*
X133852000Y-107356072D01*
X134366250Y-107353000D01*
X134525000Y-107194250D01*
X134525000Y-106045000D01*
X133375750Y-106045000D01*
X133217000Y-106203750D01*
X133213928Y-106718000D01*
X127946113Y-106718000D01*
X127928278Y-106704462D01*
X127954014Y-106690706D01*
X128180134Y-106505134D01*
X128365706Y-106279014D01*
X128503599Y-106021034D01*
X128588513Y-105741111D01*
X128617185Y-105450000D01*
X128588513Y-105158889D01*
X128576110Y-105118000D01*
X133213928Y-105118000D01*
X133217000Y-105632250D01*
X133375750Y-105791000D01*
X134525000Y-105791000D01*
X134525000Y-104641750D01*
X134779000Y-104641750D01*
X134779000Y-105791000D01*
X134799000Y-105791000D01*
X134799000Y-106045000D01*
X134779000Y-106045000D01*
X134779000Y-107194250D01*
X134937750Y-107353000D01*
X135452000Y-107356072D01*
X135576482Y-107343812D01*
X135696180Y-107307502D01*
X135806494Y-107248537D01*
X135903185Y-107169185D01*
X135916790Y-107152607D01*
X135972273Y-107189680D01*
X136233426Y-107297853D01*
X136510665Y-107353000D01*
X136793335Y-107353000D01*
X137070574Y-107297853D01*
X137331727Y-107189680D01*
X137566759Y-107032637D01*
X137766637Y-106832759D01*
X137923680Y-106597727D01*
X138031853Y-106336574D01*
X138087000Y-106059335D01*
X138087000Y-105776665D01*
X138031853Y-105499426D01*
X137923680Y-105238273D01*
X137766637Y-105003241D01*
X137566759Y-104803363D01*
X137331727Y-104646320D01*
X137070574Y-104538147D01*
X136793335Y-104483000D01*
X136510665Y-104483000D01*
X136233426Y-104538147D01*
X135972273Y-104646320D01*
X135916790Y-104683393D01*
X135903185Y-104666815D01*
X135806494Y-104587463D01*
X135696180Y-104528498D01*
X135576482Y-104492188D01*
X135452000Y-104479928D01*
X134937750Y-104483000D01*
X134779000Y-104641750D01*
X134525000Y-104641750D01*
X134366250Y-104483000D01*
X133852000Y-104479928D01*
X133727518Y-104492188D01*
X133607820Y-104528498D01*
X133497506Y-104587463D01*
X133400815Y-104666815D01*
X133321463Y-104763506D01*
X133262498Y-104873820D01*
X133226188Y-104993518D01*
X133213928Y-105118000D01*
X128576110Y-105118000D01*
X128503599Y-104878966D01*
X128365706Y-104620986D01*
X128180134Y-104394866D01*
X127954014Y-104209294D01*
X127696034Y-104071401D01*
X127416111Y-103986487D01*
X127197950Y-103965000D01*
X126802050Y-103965000D01*
X126583889Y-103986487D01*
X126303966Y-104071401D01*
X126045986Y-104209294D01*
X125819866Y-104394866D01*
X125634294Y-104620986D01*
X125496401Y-104878966D01*
X125411487Y-105158889D01*
X125382815Y-105450000D01*
X124587000Y-105450000D01*
X124587000Y-101727000D01*
X132080000Y-101727000D01*
X132104776Y-101724560D01*
X132128601Y-101717333D01*
X132150557Y-101705597D01*
X132169803Y-101689803D01*
X132185597Y-101670557D01*
X132197333Y-101648601D01*
X132204560Y-101624776D01*
X132207000Y-101600000D01*
X144557815Y-101600000D01*
X144586487Y-101891111D01*
X144671401Y-102171034D01*
X144809294Y-102429014D01*
X144994866Y-102655134D01*
X145220986Y-102840706D01*
X145478966Y-102978599D01*
X145758889Y-103063513D01*
X145977050Y-103085000D01*
X146122950Y-103085000D01*
X146341111Y-103063513D01*
X146621034Y-102978599D01*
X146879014Y-102840706D01*
X147105134Y-102655134D01*
X147290706Y-102429014D01*
X147325201Y-102364477D01*
X147394822Y-102481355D01*
X147589731Y-102697588D01*
X147823080Y-102871641D01*
X148085901Y-102996825D01*
X148233110Y-103041476D01*
X148463000Y-102920155D01*
X148463000Y-101727000D01*
X148443000Y-101727000D01*
X148443000Y-101473000D01*
X148463000Y-101473000D01*
X148463000Y-100279845D01*
X148233110Y-100158524D01*
X148085901Y-100203175D01*
X147823080Y-100328359D01*
X147589731Y-100502412D01*
X147394822Y-100718645D01*
X147325201Y-100835523D01*
X147290706Y-100770986D01*
X147105134Y-100544866D01*
X146879014Y-100359294D01*
X146621034Y-100221401D01*
X146341111Y-100136487D01*
X146122950Y-100115000D01*
X145977050Y-100115000D01*
X145758889Y-100136487D01*
X145478966Y-100221401D01*
X145220986Y-100359294D01*
X144994866Y-100544866D01*
X144809294Y-100770986D01*
X144671401Y-101028966D01*
X144586487Y-101308889D01*
X144557815Y-101600000D01*
X132207000Y-101600000D01*
X132207000Y-94107000D01*
X154813000Y-94107000D01*
X154813000Y-100651931D01*
X154813000Y-100651931D01*
G37*
X154813000Y-100651931D02*
X154725134Y-100544866D01*
X154499014Y-100359294D01*
X154241034Y-100221401D01*
X153961111Y-100136487D01*
X153742950Y-100115000D01*
X153597050Y-100115000D01*
X153378889Y-100136487D01*
X153098966Y-100221401D01*
X152840986Y-100359294D01*
X152614866Y-100544866D01*
X152429294Y-100770986D01*
X152400000Y-100825791D01*
X152370706Y-100770986D01*
X152185134Y-100544866D01*
X151959014Y-100359294D01*
X151701034Y-100221401D01*
X151421111Y-100136487D01*
X151202950Y-100115000D01*
X151057050Y-100115000D01*
X150838889Y-100136487D01*
X150558966Y-100221401D01*
X150300986Y-100359294D01*
X150074866Y-100544866D01*
X149889294Y-100770986D01*
X149854799Y-100835523D01*
X149785178Y-100718645D01*
X149590269Y-100502412D01*
X149356920Y-100328359D01*
X149094099Y-100203175D01*
X148946890Y-100158524D01*
X148717000Y-100279845D01*
X148717000Y-101473000D01*
X148737000Y-101473000D01*
X148737000Y-101727000D01*
X148717000Y-101727000D01*
X148717000Y-102920155D01*
X148946890Y-103041476D01*
X149094099Y-102996825D01*
X149356920Y-102871641D01*
X149590269Y-102697588D01*
X149785178Y-102481355D01*
X149854799Y-102364477D01*
X149889294Y-102429014D01*
X150074866Y-102655134D01*
X150300986Y-102840706D01*
X150558966Y-102978599D01*
X150838889Y-103063513D01*
X151057050Y-103085000D01*
X151202950Y-103085000D01*
X151421111Y-103063513D01*
X151701034Y-102978599D01*
X151959014Y-102840706D01*
X152185134Y-102655134D01*
X152370706Y-102429014D01*
X152400000Y-102374209D01*
X152429294Y-102429014D01*
X152614866Y-102655134D01*
X152840986Y-102840706D01*
X153098966Y-102978599D01*
X153378889Y-103063513D01*
X153597050Y-103085000D01*
X153742950Y-103085000D01*
X153961111Y-103063513D01*
X154241034Y-102978599D01*
X154499014Y-102840706D01*
X154725134Y-102655134D01*
X154813000Y-102548069D01*
X154813000Y-104013000D01*
X143510000Y-104013000D01*
X143485224Y-104015440D01*
X143461399Y-104022667D01*
X143439443Y-104034403D01*
X143420197Y-104050197D01*
X143404403Y-104069443D01*
X143392667Y-104091399D01*
X143385440Y-104115224D01*
X143383000Y-104140000D01*
X143383000Y-124333000D01*
X132207000Y-124333000D01*
X132207000Y-116840000D01*
X132204560Y-116815224D01*
X132197333Y-116791399D01*
X132185597Y-116769443D01*
X132169803Y-116750197D01*
X132150557Y-116734403D01*
X132128601Y-116722667D01*
X132104776Y-116715440D01*
X132080000Y-116713000D01*
X124587000Y-116713000D01*
X124587000Y-112350000D01*
X125386928Y-112350000D01*
X125386928Y-113550000D01*
X125403992Y-113723254D01*
X125454528Y-113889850D01*
X125536595Y-114043386D01*
X125647038Y-114177962D01*
X125781614Y-114288405D01*
X125935150Y-114370472D01*
X126101746Y-114421008D01*
X126275000Y-114438072D01*
X127725000Y-114438072D01*
X127898254Y-114421008D01*
X128064850Y-114370472D01*
X128218386Y-114288405D01*
X128352962Y-114177962D01*
X128463405Y-114043386D01*
X128545472Y-113889850D01*
X128596008Y-113723254D01*
X128613072Y-113550000D01*
X128613072Y-112592512D01*
X133211783Y-112592512D01*
X133253213Y-112872130D01*
X133348397Y-113138292D01*
X133415329Y-113263514D01*
X133659298Y-113335097D01*
X134472395Y-112522000D01*
X133659298Y-111708903D01*
X133415329Y-111780486D01*
X133294429Y-112035996D01*
X133225700Y-112310184D01*
X133211783Y-112592512D01*
X128613072Y-112592512D01*
X128613072Y-112350000D01*
X128596008Y-112176746D01*
X128545472Y-112010150D01*
X128463405Y-111856614D01*
X128352962Y-111722038D01*
X128218386Y-111611595D01*
X128113039Y-111555286D01*
X128134429Y-111539049D01*
X128143070Y-111529298D01*
X133838903Y-111529298D01*
X134652000Y-112342395D01*
X134666143Y-112328253D01*
X134845748Y-112507858D01*
X134831605Y-112522000D01*
X134845748Y-112536143D01*
X134666143Y-112715748D01*
X134652000Y-112701605D01*
X133838903Y-113514702D01*
X133910486Y-113758671D01*
X134165996Y-113879571D01*
X134440184Y-113948300D01*
X134722512Y-113962217D01*
X135002130Y-113920787D01*
X135268292Y-113825603D01*
X135390309Y-113760384D01*
X135400815Y-113773185D01*
X135497506Y-113852537D01*
X135607820Y-113911502D01*
X135727518Y-113947812D01*
X135852000Y-113960072D01*
X137452000Y-113960072D01*
X137576482Y-113947812D01*
X137696180Y-113911502D01*
X137806494Y-113852537D01*
X137903185Y-113773185D01*
X137982537Y-113676494D01*
X138041502Y-113566180D01*
X138077812Y-113446482D01*
X138090072Y-113322000D01*
X138090072Y-111722000D01*
X138077812Y-111597518D01*
X138041502Y-111477820D01*
X137982537Y-111367506D01*
X137903185Y-111270815D01*
X137806494Y-111191463D01*
X137696180Y-111132498D01*
X137576482Y-111096188D01*
X137452000Y-111083928D01*
X135852000Y-111083928D01*
X135727518Y-111096188D01*
X135607820Y-111132498D01*
X135497506Y-111191463D01*
X135400815Y-111270815D01*
X135390193Y-111283758D01*
X135138004Y-111164429D01*
X134863816Y-111095700D01*
X134581488Y-111081783D01*
X134301870Y-111123213D01*
X134035708Y-111218397D01*
X133910486Y-111285329D01*
X133838903Y-111529298D01*
X128143070Y-111529298D01*
X128327496Y-111321193D01*
X128474352Y-111069858D01*
X128566476Y-110806890D01*
X128445155Y-110577000D01*
X127127000Y-110577000D01*
X127127000Y-110597000D01*
X126873000Y-110597000D01*
X126873000Y-110577000D01*
X125554845Y-110577000D01*
X125433524Y-110806890D01*
X125525648Y-111069858D01*
X125672504Y-111321193D01*
X125865571Y-111539049D01*
X125886961Y-111555286D01*
X125781614Y-111611595D01*
X125647038Y-111722038D01*
X125536595Y-111856614D01*
X125454528Y-112010150D01*
X125403992Y-112176746D01*
X125386928Y-112350000D01*
X124587000Y-112350000D01*
X124587000Y-108306890D01*
X125433524Y-108306890D01*
X125525648Y-108569858D01*
X125672504Y-108821193D01*
X125865571Y-109039049D01*
X126077600Y-109200000D01*
X125865571Y-109360951D01*
X125672504Y-109578807D01*
X125525648Y-109830142D01*
X125433524Y-110093110D01*
X125554845Y-110323000D01*
X126873000Y-110323000D01*
X126873000Y-108077000D01*
X127127000Y-108077000D01*
X127127000Y-110323000D01*
X128445155Y-110323000D01*
X128566476Y-110093110D01*
X128474352Y-109830142D01*
X128327496Y-109578807D01*
X128134429Y-109360951D01*
X127922400Y-109200000D01*
X128134429Y-109039049D01*
X128327496Y-108821193D01*
X128474352Y-108569858D01*
X128566476Y-108306890D01*
X128445155Y-108077000D01*
X127127000Y-108077000D01*
X126873000Y-108077000D01*
X125554845Y-108077000D01*
X125433524Y-108306890D01*
X124587000Y-108306890D01*
X124587000Y-105450000D01*
X125382815Y-105450000D01*
X125411487Y-105741111D01*
X125496401Y-106021034D01*
X125634294Y-106279014D01*
X125819866Y-106505134D01*
X126045986Y-106690706D01*
X126071722Y-106704462D01*
X125865571Y-106860951D01*
X125672504Y-107078807D01*
X125525648Y-107330142D01*
X125433524Y-107593110D01*
X125554845Y-107823000D01*
X126873000Y-107823000D01*
X126873000Y-107803000D01*
X127127000Y-107803000D01*
X127127000Y-107823000D01*
X128445155Y-107823000D01*
X128566476Y-107593110D01*
X128474352Y-107330142D01*
X128327496Y-107078807D01*
X128134429Y-106860951D01*
X127946113Y-106718000D01*
X133213928Y-106718000D01*
X133226188Y-106842482D01*
X133262498Y-106962180D01*
X133321463Y-107072494D01*
X133400815Y-107169185D01*
X133497506Y-107248537D01*
X133607820Y-107307502D01*
X133727518Y-107343812D01*
X133852000Y-107356072D01*
X134366250Y-107353000D01*
X134525000Y-107194250D01*
X134525000Y-106045000D01*
X133375750Y-106045000D01*
X133217000Y-106203750D01*
X133213928Y-106718000D01*
X127946113Y-106718000D01*
X127928278Y-106704462D01*
X127954014Y-106690706D01*
X128180134Y-106505134D01*
X128365706Y-106279014D01*
X128503599Y-106021034D01*
X128588513Y-105741111D01*
X128617185Y-105450000D01*
X128588513Y-105158889D01*
X128576110Y-105118000D01*
X133213928Y-105118000D01*
X133217000Y-105632250D01*
X133375750Y-105791000D01*
X134525000Y-105791000D01*
X134525000Y-104641750D01*
X134779000Y-104641750D01*
X134779000Y-105791000D01*
X134799000Y-105791000D01*
X134799000Y-106045000D01*
X134779000Y-106045000D01*
X134779000Y-107194250D01*
X134937750Y-107353000D01*
X135452000Y-107356072D01*
X135576482Y-107343812D01*
X135696180Y-107307502D01*
X135806494Y-107248537D01*
X135903185Y-107169185D01*
X135916790Y-107152607D01*
X135972273Y-107189680D01*
X136233426Y-107297853D01*
X136510665Y-107353000D01*
X136793335Y-107353000D01*
X137070574Y-107297853D01*
X137331727Y-107189680D01*
X137566759Y-107032637D01*
X137766637Y-106832759D01*
X137923680Y-106597727D01*
X138031853Y-106336574D01*
X138087000Y-106059335D01*
X138087000Y-105776665D01*
X138031853Y-105499426D01*
X137923680Y-105238273D01*
X137766637Y-105003241D01*
X137566759Y-104803363D01*
X137331727Y-104646320D01*
X137070574Y-104538147D01*
X136793335Y-104483000D01*
X136510665Y-104483000D01*
X136233426Y-104538147D01*
X135972273Y-104646320D01*
X135916790Y-104683393D01*
X135903185Y-104666815D01*
X135806494Y-104587463D01*
X135696180Y-104528498D01*
X135576482Y-104492188D01*
X135452000Y-104479928D01*
X134937750Y-104483000D01*
X134779000Y-104641750D01*
X134525000Y-104641750D01*
X134366250Y-104483000D01*
X133852000Y-104479928D01*
X133727518Y-104492188D01*
X133607820Y-104528498D01*
X133497506Y-104587463D01*
X133400815Y-104666815D01*
X133321463Y-104763506D01*
X133262498Y-104873820D01*
X133226188Y-104993518D01*
X133213928Y-105118000D01*
X128576110Y-105118000D01*
X128503599Y-104878966D01*
X128365706Y-104620986D01*
X128180134Y-104394866D01*
X127954014Y-104209294D01*
X127696034Y-104071401D01*
X127416111Y-103986487D01*
X127197950Y-103965000D01*
X126802050Y-103965000D01*
X126583889Y-103986487D01*
X126303966Y-104071401D01*
X126045986Y-104209294D01*
X125819866Y-104394866D01*
X125634294Y-104620986D01*
X125496401Y-104878966D01*
X125411487Y-105158889D01*
X125382815Y-105450000D01*
X124587000Y-105450000D01*
X124587000Y-101727000D01*
X132080000Y-101727000D01*
X132104776Y-101724560D01*
X132128601Y-101717333D01*
X132150557Y-101705597D01*
X132169803Y-101689803D01*
X132185597Y-101670557D01*
X132197333Y-101648601D01*
X132204560Y-101624776D01*
X132207000Y-101600000D01*
X144557815Y-101600000D01*
X144586487Y-101891111D01*
X144671401Y-102171034D01*
X144809294Y-102429014D01*
X144994866Y-102655134D01*
X145220986Y-102840706D01*
X145478966Y-102978599D01*
X145758889Y-103063513D01*
X145977050Y-103085000D01*
X146122950Y-103085000D01*
X146341111Y-103063513D01*
X146621034Y-102978599D01*
X146879014Y-102840706D01*
X147105134Y-102655134D01*
X147290706Y-102429014D01*
X147325201Y-102364477D01*
X147394822Y-102481355D01*
X147589731Y-102697588D01*
X147823080Y-102871641D01*
X148085901Y-102996825D01*
X148233110Y-103041476D01*
X148463000Y-102920155D01*
X148463000Y-101727000D01*
X148443000Y-101727000D01*
X148443000Y-101473000D01*
X148463000Y-101473000D01*
X148463000Y-100279845D01*
X148233110Y-100158524D01*
X148085901Y-100203175D01*
X147823080Y-100328359D01*
X147589731Y-100502412D01*
X147394822Y-100718645D01*
X147325201Y-100835523D01*
X147290706Y-100770986D01*
X147105134Y-100544866D01*
X146879014Y-100359294D01*
X146621034Y-100221401D01*
X146341111Y-100136487D01*
X146122950Y-100115000D01*
X145977050Y-100115000D01*
X145758889Y-100136487D01*
X145478966Y-100221401D01*
X145220986Y-100359294D01*
X144994866Y-100544866D01*
X144809294Y-100770986D01*
X144671401Y-101028966D01*
X144586487Y-101308889D01*
X144557815Y-101600000D01*
X132207000Y-101600000D01*
X132207000Y-94107000D01*
X154813000Y-94107000D01*
X154813000Y-100651931D01*
G36*
X167513000Y-101600000D02*
G01*
X167515440Y-101624776D01*
X167522667Y-101648601D01*
X167534403Y-101670557D01*
X167550197Y-101689803D01*
X167569443Y-101705597D01*
X167591399Y-101717333D01*
X167615224Y-101724560D01*
X167640000Y-101727000D01*
X175133000Y-101727000D01*
X175133000Y-116713000D01*
X167640000Y-116713000D01*
X167615224Y-116715440D01*
X167591399Y-116722667D01*
X167569443Y-116734403D01*
X167550197Y-116750197D01*
X167534403Y-116769443D01*
X167522667Y-116791399D01*
X167515440Y-116815224D01*
X167513000Y-116840000D01*
X167513000Y-124333000D01*
X146177000Y-124333000D01*
X146177000Y-119102702D01*
X147816903Y-119102702D01*
X147888486Y-119346671D01*
X148143996Y-119467571D01*
X148418184Y-119536300D01*
X148700512Y-119550217D01*
X148980130Y-119508787D01*
X149246292Y-119413603D01*
X149371514Y-119346671D01*
X149443097Y-119102702D01*
X148630000Y-118289605D01*
X147816903Y-119102702D01*
X146177000Y-119102702D01*
X146177000Y-118180512D01*
X147189783Y-118180512D01*
X147231213Y-118460130D01*
X147326397Y-118726292D01*
X147393329Y-118851514D01*
X147637298Y-118923097D01*
X148450395Y-118110000D01*
X148809605Y-118110000D01*
X149622702Y-118923097D01*
X149691928Y-118902785D01*
X149691928Y-118910000D01*
X149704188Y-119034482D01*
X149740498Y-119154180D01*
X149799463Y-119264494D01*
X149878815Y-119361185D01*
X149975506Y-119440537D01*
X150085820Y-119499502D01*
X150205518Y-119535812D01*
X150330000Y-119548072D01*
X151930000Y-119548072D01*
X152054482Y-119535812D01*
X152174180Y-119499502D01*
X152284494Y-119440537D01*
X152381185Y-119361185D01*
X152460537Y-119264494D01*
X152519502Y-119154180D01*
X152555812Y-119034482D01*
X152568072Y-118910000D01*
X152568072Y-117310000D01*
X152555812Y-117185518D01*
X152519502Y-117065820D01*
X152460537Y-116955506D01*
X152381185Y-116858815D01*
X152284494Y-116779463D01*
X152174180Y-116720498D01*
X152054482Y-116684188D01*
X151930000Y-116671928D01*
X150330000Y-116671928D01*
X150205518Y-116684188D01*
X150085820Y-116720498D01*
X149975506Y-116779463D01*
X149878815Y-116858815D01*
X149799463Y-116955506D01*
X149740498Y-117065820D01*
X149704188Y-117185518D01*
X149691928Y-117310000D01*
X149691928Y-117317215D01*
X149622702Y-117296903D01*
X148809605Y-118110000D01*
X148450395Y-118110000D01*
X147637298Y-117296903D01*
X147393329Y-117368486D01*
X147272429Y-117623996D01*
X147203700Y-117898184D01*
X147189783Y-118180512D01*
X146177000Y-118180512D01*
X146177000Y-117117298D01*
X147816903Y-117117298D01*
X148630000Y-117930395D01*
X149443097Y-117117298D01*
X149371514Y-116873329D01*
X149116004Y-116752429D01*
X148841816Y-116683700D01*
X148559488Y-116669783D01*
X148279870Y-116711213D01*
X148013708Y-116806397D01*
X147888486Y-116873329D01*
X147816903Y-117117298D01*
X146177000Y-117117298D01*
X146177000Y-114138967D01*
X160925000Y-114138967D01*
X160925000Y-114461033D01*
X160987832Y-114776912D01*
X161111082Y-115074463D01*
X161290013Y-115342252D01*
X161517748Y-115569987D01*
X161785537Y-115748918D01*
X162083088Y-115872168D01*
X162398967Y-115935000D01*
X162721033Y-115935000D01*
X163036912Y-115872168D01*
X163334463Y-115748918D01*
X163602252Y-115569987D01*
X163829987Y-115342252D01*
X164008918Y-115074463D01*
X164132168Y-114776912D01*
X164195000Y-114461033D01*
X164195000Y-114138967D01*
X164132168Y-113823088D01*
X164008918Y-113525537D01*
X163829987Y-113257748D01*
X163602252Y-113030013D01*
X163542369Y-112990000D01*
X171102815Y-112990000D01*
X171131487Y-113281111D01*
X171216401Y-113561034D01*
X171354294Y-113819014D01*
X171539866Y-114045134D01*
X171765986Y-114230706D01*
X172023966Y-114368599D01*
X172303889Y-114453513D01*
X172522050Y-114475000D01*
X172917950Y-114475000D01*
X173136111Y-114453513D01*
X173416034Y-114368599D01*
X173674014Y-114230706D01*
X173900134Y-114045134D01*
X174085706Y-113819014D01*
X174223599Y-113561034D01*
X174308513Y-113281111D01*
X174337185Y-112990000D01*
X174308513Y-112698889D01*
X174223599Y-112418966D01*
X174085706Y-112160986D01*
X173900134Y-111934866D01*
X173674014Y-111749294D01*
X173648278Y-111735538D01*
X173854429Y-111579049D01*
X174047496Y-111361193D01*
X174194352Y-111109858D01*
X174286476Y-110846890D01*
X174165155Y-110617000D01*
X172847000Y-110617000D01*
X172847000Y-110637000D01*
X172593000Y-110637000D01*
X172593000Y-110617000D01*
X171274845Y-110617000D01*
X171153524Y-110846890D01*
X171245648Y-111109858D01*
X171392504Y-111361193D01*
X171585571Y-111579049D01*
X171791722Y-111735538D01*
X171765986Y-111749294D01*
X171539866Y-111934866D01*
X171354294Y-112160986D01*
X171216401Y-112418966D01*
X171131487Y-112698889D01*
X171102815Y-112990000D01*
X163542369Y-112990000D01*
X163334463Y-112851082D01*
X163036912Y-112727832D01*
X162721033Y-112665000D01*
X162398967Y-112665000D01*
X162083088Y-112727832D01*
X161785537Y-112851082D01*
X161517748Y-113030013D01*
X161290013Y-113257748D01*
X161111082Y-113525537D01*
X160987832Y-113823088D01*
X160925000Y-114138967D01*
X146177000Y-114138967D01*
X146177000Y-111482702D01*
X147816903Y-111482702D01*
X147888486Y-111726671D01*
X148143996Y-111847571D01*
X148418184Y-111916300D01*
X148700512Y-111930217D01*
X148980130Y-111888787D01*
X149246292Y-111793603D01*
X149371514Y-111726671D01*
X149443097Y-111482702D01*
X148630000Y-110669605D01*
X147816903Y-111482702D01*
X146177000Y-111482702D01*
X146177000Y-110560512D01*
X147189783Y-110560512D01*
X147231213Y-110840130D01*
X147326397Y-111106292D01*
X147393329Y-111231514D01*
X147637298Y-111303097D01*
X148450395Y-110490000D01*
X148809605Y-110490000D01*
X149622702Y-111303097D01*
X149691928Y-111282785D01*
X149691928Y-111290000D01*
X149704188Y-111414482D01*
X149740498Y-111534180D01*
X149799463Y-111644494D01*
X149878815Y-111741185D01*
X149975506Y-111820537D01*
X150085820Y-111879502D01*
X150205518Y-111915812D01*
X150330000Y-111928072D01*
X151930000Y-111928072D01*
X152054482Y-111915812D01*
X152174180Y-111879502D01*
X152284494Y-111820537D01*
X152381185Y-111741185D01*
X152460537Y-111644494D01*
X152519502Y-111534180D01*
X152555812Y-111414482D01*
X152568072Y-111290000D01*
X152568072Y-109690000D01*
X152555812Y-109565518D01*
X152519502Y-109445820D01*
X152460537Y-109335506D01*
X152381185Y-109238815D01*
X152284494Y-109159463D01*
X152174180Y-109100498D01*
X152054482Y-109064188D01*
X152001471Y-109058967D01*
X160935000Y-109058967D01*
X160935000Y-109381033D01*
X160997832Y-109696912D01*
X161121082Y-109994463D01*
X161300013Y-110262252D01*
X161527748Y-110489987D01*
X161795537Y-110668918D01*
X162093088Y-110792168D01*
X162408967Y-110855000D01*
X162731033Y-110855000D01*
X163046912Y-110792168D01*
X163344463Y-110668918D01*
X163612252Y-110489987D01*
X163839987Y-110262252D01*
X164018918Y-109994463D01*
X164142168Y-109696912D01*
X164205000Y-109381033D01*
X164205000Y-109058967D01*
X164142168Y-108743088D01*
X164018918Y-108445537D01*
X163953005Y-108346890D01*
X171153524Y-108346890D01*
X171245648Y-108609858D01*
X171392504Y-108861193D01*
X171585571Y-109079049D01*
X171797600Y-109240000D01*
X171585571Y-109400951D01*
X171392504Y-109618807D01*
X171245648Y-109870142D01*
X171153524Y-110133110D01*
X171274845Y-110363000D01*
X172593000Y-110363000D01*
X172593000Y-108117000D01*
X172847000Y-108117000D01*
X172847000Y-110363000D01*
X174165155Y-110363000D01*
X174286476Y-110133110D01*
X174194352Y-109870142D01*
X174047496Y-109618807D01*
X173854429Y-109400951D01*
X173642400Y-109240000D01*
X173854429Y-109079049D01*
X174047496Y-108861193D01*
X174194352Y-108609858D01*
X174286476Y-108346890D01*
X174165155Y-108117000D01*
X172847000Y-108117000D01*
X172593000Y-108117000D01*
X171274845Y-108117000D01*
X171153524Y-108346890D01*
X163953005Y-108346890D01*
X163839987Y-108177748D01*
X163612252Y-107950013D01*
X163344463Y-107771082D01*
X163046912Y-107647832D01*
X162731033Y-107585000D01*
X162408967Y-107585000D01*
X162093088Y-107647832D01*
X161795537Y-107771082D01*
X161527748Y-107950013D01*
X161300013Y-108177748D01*
X161121082Y-108445537D01*
X160997832Y-108743088D01*
X160935000Y-109058967D01*
X152001471Y-109058967D01*
X151930000Y-109051928D01*
X150330000Y-109051928D01*
X150205518Y-109064188D01*
X150085820Y-109100498D01*
X149975506Y-109159463D01*
X149878815Y-109238815D01*
X149799463Y-109335506D01*
X149740498Y-109445820D01*
X149704188Y-109565518D01*
X149691928Y-109690000D01*
X149691928Y-109697215D01*
X149622702Y-109676903D01*
X148809605Y-110490000D01*
X148450395Y-110490000D01*
X147637298Y-109676903D01*
X147393329Y-109748486D01*
X147272429Y-110003996D01*
X147203700Y-110278184D01*
X147189783Y-110560512D01*
X146177000Y-110560512D01*
X146177000Y-109497298D01*
X147816903Y-109497298D01*
X148630000Y-110310395D01*
X149443097Y-109497298D01*
X149371514Y-109253329D01*
X149116004Y-109132429D01*
X148841816Y-109063700D01*
X148559488Y-109049783D01*
X148279870Y-109091213D01*
X148013708Y-109186397D01*
X147888486Y-109253329D01*
X147816903Y-109497298D01*
X146177000Y-109497298D01*
X146177000Y-106807000D01*
X157480000Y-106807000D01*
X157504776Y-106804560D01*
X157528601Y-106797333D01*
X157550557Y-106785597D01*
X157569803Y-106769803D01*
X157585597Y-106750557D01*
X157597333Y-106728601D01*
X157604560Y-106704776D01*
X157607000Y-106680000D01*
X157607000Y-104890000D01*
X171106928Y-104890000D01*
X171106928Y-106090000D01*
X171123992Y-106263254D01*
X171174528Y-106429850D01*
X171256595Y-106583386D01*
X171367038Y-106717962D01*
X171501614Y-106828405D01*
X171606961Y-106884714D01*
X171585571Y-106900951D01*
X171392504Y-107118807D01*
X171245648Y-107370142D01*
X171153524Y-107633110D01*
X171274845Y-107863000D01*
X172593000Y-107863000D01*
X172593000Y-107843000D01*
X172847000Y-107843000D01*
X172847000Y-107863000D01*
X174165155Y-107863000D01*
X174286476Y-107633110D01*
X174194352Y-107370142D01*
X174047496Y-107118807D01*
X173854429Y-106900951D01*
X173833039Y-106884714D01*
X173938386Y-106828405D01*
X174072962Y-106717962D01*
X174183405Y-106583386D01*
X174265472Y-106429850D01*
X174316008Y-106263254D01*
X174333072Y-106090000D01*
X174333072Y-104890000D01*
X174316008Y-104716746D01*
X174265472Y-104550150D01*
X174183405Y-104396614D01*
X174072962Y-104262038D01*
X173938386Y-104151595D01*
X173784850Y-104069528D01*
X173618254Y-104018992D01*
X173445000Y-104001928D01*
X171995000Y-104001928D01*
X171821746Y-104018992D01*
X171655150Y-104069528D01*
X171501614Y-104151595D01*
X171367038Y-104262038D01*
X171256595Y-104396614D01*
X171174528Y-104550150D01*
X171123992Y-104716746D01*
X171106928Y-104890000D01*
X157607000Y-104890000D01*
X157607000Y-102548069D01*
X157694866Y-102655134D01*
X157920986Y-102840706D01*
X158178966Y-102978599D01*
X158458889Y-103063513D01*
X158677050Y-103085000D01*
X158822950Y-103085000D01*
X159041111Y-103063513D01*
X159321034Y-102978599D01*
X159579014Y-102840706D01*
X159805134Y-102655134D01*
X159990706Y-102429014D01*
X160020000Y-102374209D01*
X160049294Y-102429014D01*
X160234866Y-102655134D01*
X160460986Y-102840706D01*
X160718966Y-102978599D01*
X160998889Y-103063513D01*
X161217050Y-103085000D01*
X161362950Y-103085000D01*
X161581111Y-103063513D01*
X161861034Y-102978599D01*
X162119014Y-102840706D01*
X162345134Y-102655134D01*
X162369607Y-102625313D01*
X162390498Y-102694180D01*
X162449463Y-102804494D01*
X162528815Y-102901185D01*
X162625506Y-102980537D01*
X162735820Y-103039502D01*
X162855518Y-103075812D01*
X162980000Y-103088072D01*
X163544250Y-103085000D01*
X163703000Y-102926250D01*
X163703000Y-101727000D01*
X163957000Y-101727000D01*
X163957000Y-102926250D01*
X164115750Y-103085000D01*
X164680000Y-103088072D01*
X164804482Y-103075812D01*
X164924180Y-103039502D01*
X165034494Y-102980537D01*
X165131185Y-102901185D01*
X165210537Y-102804494D01*
X165269502Y-102694180D01*
X165305812Y-102574482D01*
X165318072Y-102450000D01*
X165315000Y-101885750D01*
X165156250Y-101727000D01*
X163957000Y-101727000D01*
X163703000Y-101727000D01*
X163683000Y-101727000D01*
X163683000Y-101473000D01*
X163703000Y-101473000D01*
X163703000Y-100273750D01*
X163957000Y-100273750D01*
X163957000Y-101473000D01*
X165156250Y-101473000D01*
X165315000Y-101314250D01*
X165318072Y-100750000D01*
X165305812Y-100625518D01*
X165269502Y-100505820D01*
X165210537Y-100395506D01*
X165131185Y-100298815D01*
X165034494Y-100219463D01*
X164924180Y-100160498D01*
X164804482Y-100124188D01*
X164680000Y-100111928D01*
X164115750Y-100115000D01*
X163957000Y-100273750D01*
X163703000Y-100273750D01*
X163544250Y-100115000D01*
X162980000Y-100111928D01*
X162855518Y-100124188D01*
X162735820Y-100160498D01*
X162625506Y-100219463D01*
X162528815Y-100298815D01*
X162449463Y-100395506D01*
X162390498Y-100505820D01*
X162369607Y-100574687D01*
X162345134Y-100544866D01*
X162119014Y-100359294D01*
X161861034Y-100221401D01*
X161581111Y-100136487D01*
X161362950Y-100115000D01*
X161217050Y-100115000D01*
X160998889Y-100136487D01*
X160718966Y-100221401D01*
X160460986Y-100359294D01*
X160234866Y-100544866D01*
X160049294Y-100770986D01*
X160020000Y-100825791D01*
X159990706Y-100770986D01*
X159805134Y-100544866D01*
X159579014Y-100359294D01*
X159321034Y-100221401D01*
X159041111Y-100136487D01*
X158822950Y-100115000D01*
X158677050Y-100115000D01*
X158458889Y-100136487D01*
X158178966Y-100221401D01*
X157920986Y-100359294D01*
X157694866Y-100544866D01*
X157607000Y-100651931D01*
X157607000Y-94107000D01*
X167513000Y-94107000D01*
X167513000Y-101600000D01*
X167513000Y-101600000D01*
G37*
X167513000Y-101600000D02*
X167515440Y-101624776D01*
X167522667Y-101648601D01*
X167534403Y-101670557D01*
X167550197Y-101689803D01*
X167569443Y-101705597D01*
X167591399Y-101717333D01*
X167615224Y-101724560D01*
X167640000Y-101727000D01*
X175133000Y-101727000D01*
X175133000Y-116713000D01*
X167640000Y-116713000D01*
X167615224Y-116715440D01*
X167591399Y-116722667D01*
X167569443Y-116734403D01*
X167550197Y-116750197D01*
X167534403Y-116769443D01*
X167522667Y-116791399D01*
X167515440Y-116815224D01*
X167513000Y-116840000D01*
X167513000Y-124333000D01*
X146177000Y-124333000D01*
X146177000Y-119102702D01*
X147816903Y-119102702D01*
X147888486Y-119346671D01*
X148143996Y-119467571D01*
X148418184Y-119536300D01*
X148700512Y-119550217D01*
X148980130Y-119508787D01*
X149246292Y-119413603D01*
X149371514Y-119346671D01*
X149443097Y-119102702D01*
X148630000Y-118289605D01*
X147816903Y-119102702D01*
X146177000Y-119102702D01*
X146177000Y-118180512D01*
X147189783Y-118180512D01*
X147231213Y-118460130D01*
X147326397Y-118726292D01*
X147393329Y-118851514D01*
X147637298Y-118923097D01*
X148450395Y-118110000D01*
X148809605Y-118110000D01*
X149622702Y-118923097D01*
X149691928Y-118902785D01*
X149691928Y-118910000D01*
X149704188Y-119034482D01*
X149740498Y-119154180D01*
X149799463Y-119264494D01*
X149878815Y-119361185D01*
X149975506Y-119440537D01*
X150085820Y-119499502D01*
X150205518Y-119535812D01*
X150330000Y-119548072D01*
X151930000Y-119548072D01*
X152054482Y-119535812D01*
X152174180Y-119499502D01*
X152284494Y-119440537D01*
X152381185Y-119361185D01*
X152460537Y-119264494D01*
X152519502Y-119154180D01*
X152555812Y-119034482D01*
X152568072Y-118910000D01*
X152568072Y-117310000D01*
X152555812Y-117185518D01*
X152519502Y-117065820D01*
X152460537Y-116955506D01*
X152381185Y-116858815D01*
X152284494Y-116779463D01*
X152174180Y-116720498D01*
X152054482Y-116684188D01*
X151930000Y-116671928D01*
X150330000Y-116671928D01*
X150205518Y-116684188D01*
X150085820Y-116720498D01*
X149975506Y-116779463D01*
X149878815Y-116858815D01*
X149799463Y-116955506D01*
X149740498Y-117065820D01*
X149704188Y-117185518D01*
X149691928Y-117310000D01*
X149691928Y-117317215D01*
X149622702Y-117296903D01*
X148809605Y-118110000D01*
X148450395Y-118110000D01*
X147637298Y-117296903D01*
X147393329Y-117368486D01*
X147272429Y-117623996D01*
X147203700Y-117898184D01*
X147189783Y-118180512D01*
X146177000Y-118180512D01*
X146177000Y-117117298D01*
X147816903Y-117117298D01*
X148630000Y-117930395D01*
X149443097Y-117117298D01*
X149371514Y-116873329D01*
X149116004Y-116752429D01*
X148841816Y-116683700D01*
X148559488Y-116669783D01*
X148279870Y-116711213D01*
X148013708Y-116806397D01*
X147888486Y-116873329D01*
X147816903Y-117117298D01*
X146177000Y-117117298D01*
X146177000Y-114138967D01*
X160925000Y-114138967D01*
X160925000Y-114461033D01*
X160987832Y-114776912D01*
X161111082Y-115074463D01*
X161290013Y-115342252D01*
X161517748Y-115569987D01*
X161785537Y-115748918D01*
X162083088Y-115872168D01*
X162398967Y-115935000D01*
X162721033Y-115935000D01*
X163036912Y-115872168D01*
X163334463Y-115748918D01*
X163602252Y-115569987D01*
X163829987Y-115342252D01*
X164008918Y-115074463D01*
X164132168Y-114776912D01*
X164195000Y-114461033D01*
X164195000Y-114138967D01*
X164132168Y-113823088D01*
X164008918Y-113525537D01*
X163829987Y-113257748D01*
X163602252Y-113030013D01*
X163542369Y-112990000D01*
X171102815Y-112990000D01*
X171131487Y-113281111D01*
X171216401Y-113561034D01*
X171354294Y-113819014D01*
X171539866Y-114045134D01*
X171765986Y-114230706D01*
X172023966Y-114368599D01*
X172303889Y-114453513D01*
X172522050Y-114475000D01*
X172917950Y-114475000D01*
X173136111Y-114453513D01*
X173416034Y-114368599D01*
X173674014Y-114230706D01*
X173900134Y-114045134D01*
X174085706Y-113819014D01*
X174223599Y-113561034D01*
X174308513Y-113281111D01*
X174337185Y-112990000D01*
X174308513Y-112698889D01*
X174223599Y-112418966D01*
X174085706Y-112160986D01*
X173900134Y-111934866D01*
X173674014Y-111749294D01*
X173648278Y-111735538D01*
X173854429Y-111579049D01*
X174047496Y-111361193D01*
X174194352Y-111109858D01*
X174286476Y-110846890D01*
X174165155Y-110617000D01*
X172847000Y-110617000D01*
X172847000Y-110637000D01*
X172593000Y-110637000D01*
X172593000Y-110617000D01*
X171274845Y-110617000D01*
X171153524Y-110846890D01*
X171245648Y-111109858D01*
X171392504Y-111361193D01*
X171585571Y-111579049D01*
X171791722Y-111735538D01*
X171765986Y-111749294D01*
X171539866Y-111934866D01*
X171354294Y-112160986D01*
X171216401Y-112418966D01*
X171131487Y-112698889D01*
X171102815Y-112990000D01*
X163542369Y-112990000D01*
X163334463Y-112851082D01*
X163036912Y-112727832D01*
X162721033Y-112665000D01*
X162398967Y-112665000D01*
X162083088Y-112727832D01*
X161785537Y-112851082D01*
X161517748Y-113030013D01*
X161290013Y-113257748D01*
X161111082Y-113525537D01*
X160987832Y-113823088D01*
X160925000Y-114138967D01*
X146177000Y-114138967D01*
X146177000Y-111482702D01*
X147816903Y-111482702D01*
X147888486Y-111726671D01*
X148143996Y-111847571D01*
X148418184Y-111916300D01*
X148700512Y-111930217D01*
X148980130Y-111888787D01*
X149246292Y-111793603D01*
X149371514Y-111726671D01*
X149443097Y-111482702D01*
X148630000Y-110669605D01*
X147816903Y-111482702D01*
X146177000Y-111482702D01*
X146177000Y-110560512D01*
X147189783Y-110560512D01*
X147231213Y-110840130D01*
X147326397Y-111106292D01*
X147393329Y-111231514D01*
X147637298Y-111303097D01*
X148450395Y-110490000D01*
X148809605Y-110490000D01*
X149622702Y-111303097D01*
X149691928Y-111282785D01*
X149691928Y-111290000D01*
X149704188Y-111414482D01*
X149740498Y-111534180D01*
X149799463Y-111644494D01*
X149878815Y-111741185D01*
X149975506Y-111820537D01*
X150085820Y-111879502D01*
X150205518Y-111915812D01*
X150330000Y-111928072D01*
X151930000Y-111928072D01*
X152054482Y-111915812D01*
X152174180Y-111879502D01*
X152284494Y-111820537D01*
X152381185Y-111741185D01*
X152460537Y-111644494D01*
X152519502Y-111534180D01*
X152555812Y-111414482D01*
X152568072Y-111290000D01*
X152568072Y-109690000D01*
X152555812Y-109565518D01*
X152519502Y-109445820D01*
X152460537Y-109335506D01*
X152381185Y-109238815D01*
X152284494Y-109159463D01*
X152174180Y-109100498D01*
X152054482Y-109064188D01*
X152001471Y-109058967D01*
X160935000Y-109058967D01*
X160935000Y-109381033D01*
X160997832Y-109696912D01*
X161121082Y-109994463D01*
X161300013Y-110262252D01*
X161527748Y-110489987D01*
X161795537Y-110668918D01*
X162093088Y-110792168D01*
X162408967Y-110855000D01*
X162731033Y-110855000D01*
X163046912Y-110792168D01*
X163344463Y-110668918D01*
X163612252Y-110489987D01*
X163839987Y-110262252D01*
X164018918Y-109994463D01*
X164142168Y-109696912D01*
X164205000Y-109381033D01*
X164205000Y-109058967D01*
X164142168Y-108743088D01*
X164018918Y-108445537D01*
X163953005Y-108346890D01*
X171153524Y-108346890D01*
X171245648Y-108609858D01*
X171392504Y-108861193D01*
X171585571Y-109079049D01*
X171797600Y-109240000D01*
X171585571Y-109400951D01*
X171392504Y-109618807D01*
X171245648Y-109870142D01*
X171153524Y-110133110D01*
X171274845Y-110363000D01*
X172593000Y-110363000D01*
X172593000Y-108117000D01*
X172847000Y-108117000D01*
X172847000Y-110363000D01*
X174165155Y-110363000D01*
X174286476Y-110133110D01*
X174194352Y-109870142D01*
X174047496Y-109618807D01*
X173854429Y-109400951D01*
X173642400Y-109240000D01*
X173854429Y-109079049D01*
X174047496Y-108861193D01*
X174194352Y-108609858D01*
X174286476Y-108346890D01*
X174165155Y-108117000D01*
X172847000Y-108117000D01*
X172593000Y-108117000D01*
X171274845Y-108117000D01*
X171153524Y-108346890D01*
X163953005Y-108346890D01*
X163839987Y-108177748D01*
X163612252Y-107950013D01*
X163344463Y-107771082D01*
X163046912Y-107647832D01*
X162731033Y-107585000D01*
X162408967Y-107585000D01*
X162093088Y-107647832D01*
X161795537Y-107771082D01*
X161527748Y-107950013D01*
X161300013Y-108177748D01*
X161121082Y-108445537D01*
X160997832Y-108743088D01*
X160935000Y-109058967D01*
X152001471Y-109058967D01*
X151930000Y-109051928D01*
X150330000Y-109051928D01*
X150205518Y-109064188D01*
X150085820Y-109100498D01*
X149975506Y-109159463D01*
X149878815Y-109238815D01*
X149799463Y-109335506D01*
X149740498Y-109445820D01*
X149704188Y-109565518D01*
X149691928Y-109690000D01*
X149691928Y-109697215D01*
X149622702Y-109676903D01*
X148809605Y-110490000D01*
X148450395Y-110490000D01*
X147637298Y-109676903D01*
X147393329Y-109748486D01*
X147272429Y-110003996D01*
X147203700Y-110278184D01*
X147189783Y-110560512D01*
X146177000Y-110560512D01*
X146177000Y-109497298D01*
X147816903Y-109497298D01*
X148630000Y-110310395D01*
X149443097Y-109497298D01*
X149371514Y-109253329D01*
X149116004Y-109132429D01*
X148841816Y-109063700D01*
X148559488Y-109049783D01*
X148279870Y-109091213D01*
X148013708Y-109186397D01*
X147888486Y-109253329D01*
X147816903Y-109497298D01*
X146177000Y-109497298D01*
X146177000Y-106807000D01*
X157480000Y-106807000D01*
X157504776Y-106804560D01*
X157528601Y-106797333D01*
X157550557Y-106785597D01*
X157569803Y-106769803D01*
X157585597Y-106750557D01*
X157597333Y-106728601D01*
X157604560Y-106704776D01*
X157607000Y-106680000D01*
X157607000Y-104890000D01*
X171106928Y-104890000D01*
X171106928Y-106090000D01*
X171123992Y-106263254D01*
X171174528Y-106429850D01*
X171256595Y-106583386D01*
X171367038Y-106717962D01*
X171501614Y-106828405D01*
X171606961Y-106884714D01*
X171585571Y-106900951D01*
X171392504Y-107118807D01*
X171245648Y-107370142D01*
X171153524Y-107633110D01*
X171274845Y-107863000D01*
X172593000Y-107863000D01*
X172593000Y-107843000D01*
X172847000Y-107843000D01*
X172847000Y-107863000D01*
X174165155Y-107863000D01*
X174286476Y-107633110D01*
X174194352Y-107370142D01*
X174047496Y-107118807D01*
X173854429Y-106900951D01*
X173833039Y-106884714D01*
X173938386Y-106828405D01*
X174072962Y-106717962D01*
X174183405Y-106583386D01*
X174265472Y-106429850D01*
X174316008Y-106263254D01*
X174333072Y-106090000D01*
X174333072Y-104890000D01*
X174316008Y-104716746D01*
X174265472Y-104550150D01*
X174183405Y-104396614D01*
X174072962Y-104262038D01*
X173938386Y-104151595D01*
X173784850Y-104069528D01*
X173618254Y-104018992D01*
X173445000Y-104001928D01*
X171995000Y-104001928D01*
X171821746Y-104018992D01*
X171655150Y-104069528D01*
X171501614Y-104151595D01*
X171367038Y-104262038D01*
X171256595Y-104396614D01*
X171174528Y-104550150D01*
X171123992Y-104716746D01*
X171106928Y-104890000D01*
X157607000Y-104890000D01*
X157607000Y-102548069D01*
X157694866Y-102655134D01*
X157920986Y-102840706D01*
X158178966Y-102978599D01*
X158458889Y-103063513D01*
X158677050Y-103085000D01*
X158822950Y-103085000D01*
X159041111Y-103063513D01*
X159321034Y-102978599D01*
X159579014Y-102840706D01*
X159805134Y-102655134D01*
X159990706Y-102429014D01*
X160020000Y-102374209D01*
X160049294Y-102429014D01*
X160234866Y-102655134D01*
X160460986Y-102840706D01*
X160718966Y-102978599D01*
X160998889Y-103063513D01*
X161217050Y-103085000D01*
X161362950Y-103085000D01*
X161581111Y-103063513D01*
X161861034Y-102978599D01*
X162119014Y-102840706D01*
X162345134Y-102655134D01*
X162369607Y-102625313D01*
X162390498Y-102694180D01*
X162449463Y-102804494D01*
X162528815Y-102901185D01*
X162625506Y-102980537D01*
X162735820Y-103039502D01*
X162855518Y-103075812D01*
X162980000Y-103088072D01*
X163544250Y-103085000D01*
X163703000Y-102926250D01*
X163703000Y-101727000D01*
X163957000Y-101727000D01*
X163957000Y-102926250D01*
X164115750Y-103085000D01*
X164680000Y-103088072D01*
X164804482Y-103075812D01*
X164924180Y-103039502D01*
X165034494Y-102980537D01*
X165131185Y-102901185D01*
X165210537Y-102804494D01*
X165269502Y-102694180D01*
X165305812Y-102574482D01*
X165318072Y-102450000D01*
X165315000Y-101885750D01*
X165156250Y-101727000D01*
X163957000Y-101727000D01*
X163703000Y-101727000D01*
X163683000Y-101727000D01*
X163683000Y-101473000D01*
X163703000Y-101473000D01*
X163703000Y-100273750D01*
X163957000Y-100273750D01*
X163957000Y-101473000D01*
X165156250Y-101473000D01*
X165315000Y-101314250D01*
X165318072Y-100750000D01*
X165305812Y-100625518D01*
X165269502Y-100505820D01*
X165210537Y-100395506D01*
X165131185Y-100298815D01*
X165034494Y-100219463D01*
X164924180Y-100160498D01*
X164804482Y-100124188D01*
X164680000Y-100111928D01*
X164115750Y-100115000D01*
X163957000Y-100273750D01*
X163703000Y-100273750D01*
X163544250Y-100115000D01*
X162980000Y-100111928D01*
X162855518Y-100124188D01*
X162735820Y-100160498D01*
X162625506Y-100219463D01*
X162528815Y-100298815D01*
X162449463Y-100395506D01*
X162390498Y-100505820D01*
X162369607Y-100574687D01*
X162345134Y-100544866D01*
X162119014Y-100359294D01*
X161861034Y-100221401D01*
X161581111Y-100136487D01*
X161362950Y-100115000D01*
X161217050Y-100115000D01*
X160998889Y-100136487D01*
X160718966Y-100221401D01*
X160460986Y-100359294D01*
X160234866Y-100544866D01*
X160049294Y-100770986D01*
X160020000Y-100825791D01*
X159990706Y-100770986D01*
X159805134Y-100544866D01*
X159579014Y-100359294D01*
X159321034Y-100221401D01*
X159041111Y-100136487D01*
X158822950Y-100115000D01*
X158677050Y-100115000D01*
X158458889Y-100136487D01*
X158178966Y-100221401D01*
X157920986Y-100359294D01*
X157694866Y-100544866D01*
X157607000Y-100651931D01*
X157607000Y-94107000D01*
X167513000Y-94107000D01*
X167513000Y-101600000D01*
M02*
