G04 #@! TF.GenerationSoftware,KiCad,Pcbnew,(5.1.2)-1*
G04 #@! TF.CreationDate,2019-05-13T04:19:41-07:00*
G04 #@! TF.ProjectId,triumph_power,74726975-6d70-4685-9f70-6f7765722e6b,A*
G04 #@! TF.SameCoordinates,Original*
G04 #@! TF.FileFunction,Legend,Bot*
G04 #@! TF.FilePolarity,Positive*
%FSLAX46Y46*%
G04 Gerber Fmt 4.6, Leading zero omitted, Abs format (unit mm)*
G04 Created by KiCad (PCBNEW (5.1.2)-1) date 2019-05-13 04:19:41*
%MOMM*%
%LPD*%
G04 APERTURE LIST*
%ADD10C,0.300000*%
%ADD11C,0.010000*%
G04 APERTURE END LIST*
D10*
X176020000Y-96520000D02*
G75*
G03X176020000Y-96520000I-3300000J0D01*
G01*
X176020000Y-121920000D02*
G75*
G03X176020000Y-121920000I-3300000J0D01*
G01*
X130300000Y-121920000D02*
G75*
G03X130300000Y-121920000I-3300000J0D01*
G01*
X130300000Y-96520000D02*
G75*
G03X130300000Y-96520000I-3300000J0D01*
G01*
D11*
G36*
X136972770Y-118619916D02*
G01*
X136975142Y-118636742D01*
X136983511Y-118674193D01*
X136996923Y-118728463D01*
X137014428Y-118795746D01*
X137035072Y-118872235D01*
X137043771Y-118903750D01*
X137117853Y-119170450D01*
X136364227Y-119173724D01*
X135610600Y-119176999D01*
X135610600Y-120103900D01*
X137820400Y-120103900D01*
X137820400Y-120992900D01*
X138207750Y-120992900D01*
X138304017Y-120992685D01*
X138391561Y-120992076D01*
X138467303Y-120991128D01*
X138528165Y-120989895D01*
X138571067Y-120988432D01*
X138592931Y-120986791D01*
X138595100Y-120986069D01*
X138588128Y-120973840D01*
X138567944Y-120942505D01*
X138535643Y-120893665D01*
X138492325Y-120828919D01*
X138439087Y-120749868D01*
X138377025Y-120658114D01*
X138307237Y-120555255D01*
X138230820Y-120442893D01*
X138148873Y-120322629D01*
X138062491Y-120196062D01*
X137972773Y-120064793D01*
X137880816Y-119930422D01*
X137787717Y-119794551D01*
X137694573Y-119658779D01*
X137602482Y-119524708D01*
X137512542Y-119393936D01*
X137425848Y-119268066D01*
X137343500Y-119148697D01*
X137266595Y-119037430D01*
X137196228Y-118935865D01*
X137133499Y-118845603D01*
X137079504Y-118768244D01*
X137035341Y-118705389D01*
X137002106Y-118658639D01*
X136980898Y-118629593D01*
X136972814Y-118619852D01*
X136972770Y-118619916D01*
X136972770Y-118619916D01*
G37*
X136972770Y-118619916D02*
X136975142Y-118636742D01*
X136983511Y-118674193D01*
X136996923Y-118728463D01*
X137014428Y-118795746D01*
X137035072Y-118872235D01*
X137043771Y-118903750D01*
X137117853Y-119170450D01*
X136364227Y-119173724D01*
X135610600Y-119176999D01*
X135610600Y-120103900D01*
X137820400Y-120103900D01*
X137820400Y-120992900D01*
X138207750Y-120992900D01*
X138304017Y-120992685D01*
X138391561Y-120992076D01*
X138467303Y-120991128D01*
X138528165Y-120989895D01*
X138571067Y-120988432D01*
X138592931Y-120986791D01*
X138595100Y-120986069D01*
X138588128Y-120973840D01*
X138567944Y-120942505D01*
X138535643Y-120893665D01*
X138492325Y-120828919D01*
X138439087Y-120749868D01*
X138377025Y-120658114D01*
X138307237Y-120555255D01*
X138230820Y-120442893D01*
X138148873Y-120322629D01*
X138062491Y-120196062D01*
X137972773Y-120064793D01*
X137880816Y-119930422D01*
X137787717Y-119794551D01*
X137694573Y-119658779D01*
X137602482Y-119524708D01*
X137512542Y-119393936D01*
X137425848Y-119268066D01*
X137343500Y-119148697D01*
X137266595Y-119037430D01*
X137196228Y-118935865D01*
X137133499Y-118845603D01*
X137079504Y-118768244D01*
X137035341Y-118705389D01*
X137002106Y-118658639D01*
X136980898Y-118629593D01*
X136972814Y-118619852D01*
X136972770Y-118619916D01*
G36*
X145961100Y-120895871D02*
G01*
X145915519Y-120842620D01*
X145846302Y-120775496D01*
X145757309Y-120710531D01*
X145654142Y-120650940D01*
X145542404Y-120599939D01*
X145427696Y-120560743D01*
X145421350Y-120558976D01*
X145381035Y-120548775D01*
X145341932Y-120541325D01*
X145298887Y-120536199D01*
X145246747Y-120532965D01*
X145180357Y-120531195D01*
X145094564Y-120530460D01*
X145078450Y-120530409D01*
X144989805Y-120530510D01*
X144921181Y-120531637D01*
X144867209Y-120534229D01*
X144822518Y-120538723D01*
X144781735Y-120545558D01*
X144739492Y-120555171D01*
X144722850Y-120559407D01*
X144562917Y-120611694D01*
X144422114Y-120680677D01*
X144300387Y-120766401D01*
X144197683Y-120868913D01*
X144113950Y-120988260D01*
X144049134Y-121124489D01*
X144036142Y-121160418D01*
X144024532Y-121194886D01*
X144014305Y-121227165D01*
X144005372Y-121259029D01*
X143997646Y-121292252D01*
X143991040Y-121328609D01*
X143985466Y-121369873D01*
X143980836Y-121417818D01*
X143977063Y-121474219D01*
X143974058Y-121540849D01*
X143971736Y-121619483D01*
X143970007Y-121711894D01*
X143968785Y-121819856D01*
X143967981Y-121945145D01*
X143967508Y-122089533D01*
X143967279Y-122254794D01*
X143967206Y-122442703D01*
X143967200Y-122556663D01*
X143967200Y-123647200D01*
X144716500Y-123647200D01*
X144716500Y-122659268D01*
X144716556Y-122473520D01*
X144716743Y-122311434D01*
X144717095Y-122171275D01*
X144717643Y-122051303D01*
X144718418Y-121949784D01*
X144719454Y-121864978D01*
X144720782Y-121795150D01*
X144722433Y-121738562D01*
X144724441Y-121693477D01*
X144726836Y-121658157D01*
X144729652Y-121630867D01*
X144732919Y-121609868D01*
X144736082Y-121595643D01*
X144771388Y-121492772D01*
X144819753Y-121410166D01*
X144883233Y-121345198D01*
X144963884Y-121295240D01*
X144975249Y-121289932D01*
X145012904Y-121274215D01*
X145048196Y-121263535D01*
X145088171Y-121256653D01*
X145139877Y-121252332D01*
X145205450Y-121249500D01*
X145331768Y-121250927D01*
X145439982Y-121265608D01*
X145534544Y-121295119D01*
X145619906Y-121341034D01*
X145700519Y-121404928D01*
X145732500Y-121435942D01*
X145804329Y-121520829D01*
X145861503Y-121616053D01*
X145907137Y-121727290D01*
X145926030Y-121788657D01*
X145931470Y-121808572D01*
X145936167Y-121828111D01*
X145940186Y-121849243D01*
X145943590Y-121873935D01*
X145946444Y-121904154D01*
X145948814Y-121941869D01*
X145950762Y-121989045D01*
X145952355Y-122047652D01*
X145953656Y-122119656D01*
X145954729Y-122207026D01*
X145955640Y-122311728D01*
X145956452Y-122435731D01*
X145957231Y-122581001D01*
X145958041Y-122749507D01*
X145958126Y-122767725D01*
X145962235Y-123647200D01*
X146710472Y-123647200D01*
X146704050Y-119233950D01*
X145961100Y-119227216D01*
X145961100Y-120895871D01*
X145961100Y-120895871D01*
G37*
X145961100Y-120895871D02*
X145915519Y-120842620D01*
X145846302Y-120775496D01*
X145757309Y-120710531D01*
X145654142Y-120650940D01*
X145542404Y-120599939D01*
X145427696Y-120560743D01*
X145421350Y-120558976D01*
X145381035Y-120548775D01*
X145341932Y-120541325D01*
X145298887Y-120536199D01*
X145246747Y-120532965D01*
X145180357Y-120531195D01*
X145094564Y-120530460D01*
X145078450Y-120530409D01*
X144989805Y-120530510D01*
X144921181Y-120531637D01*
X144867209Y-120534229D01*
X144822518Y-120538723D01*
X144781735Y-120545558D01*
X144739492Y-120555171D01*
X144722850Y-120559407D01*
X144562917Y-120611694D01*
X144422114Y-120680677D01*
X144300387Y-120766401D01*
X144197683Y-120868913D01*
X144113950Y-120988260D01*
X144049134Y-121124489D01*
X144036142Y-121160418D01*
X144024532Y-121194886D01*
X144014305Y-121227165D01*
X144005372Y-121259029D01*
X143997646Y-121292252D01*
X143991040Y-121328609D01*
X143985466Y-121369873D01*
X143980836Y-121417818D01*
X143977063Y-121474219D01*
X143974058Y-121540849D01*
X143971736Y-121619483D01*
X143970007Y-121711894D01*
X143968785Y-121819856D01*
X143967981Y-121945145D01*
X143967508Y-122089533D01*
X143967279Y-122254794D01*
X143967206Y-122442703D01*
X143967200Y-122556663D01*
X143967200Y-123647200D01*
X144716500Y-123647200D01*
X144716500Y-122659268D01*
X144716556Y-122473520D01*
X144716743Y-122311434D01*
X144717095Y-122171275D01*
X144717643Y-122051303D01*
X144718418Y-121949784D01*
X144719454Y-121864978D01*
X144720782Y-121795150D01*
X144722433Y-121738562D01*
X144724441Y-121693477D01*
X144726836Y-121658157D01*
X144729652Y-121630867D01*
X144732919Y-121609868D01*
X144736082Y-121595643D01*
X144771388Y-121492772D01*
X144819753Y-121410166D01*
X144883233Y-121345198D01*
X144963884Y-121295240D01*
X144975249Y-121289932D01*
X145012904Y-121274215D01*
X145048196Y-121263535D01*
X145088171Y-121256653D01*
X145139877Y-121252332D01*
X145205450Y-121249500D01*
X145331768Y-121250927D01*
X145439982Y-121265608D01*
X145534544Y-121295119D01*
X145619906Y-121341034D01*
X145700519Y-121404928D01*
X145732500Y-121435942D01*
X145804329Y-121520829D01*
X145861503Y-121616053D01*
X145907137Y-121727290D01*
X145926030Y-121788657D01*
X145931470Y-121808572D01*
X145936167Y-121828111D01*
X145940186Y-121849243D01*
X145943590Y-121873935D01*
X145946444Y-121904154D01*
X145948814Y-121941869D01*
X145950762Y-121989045D01*
X145952355Y-122047652D01*
X145953656Y-122119656D01*
X145954729Y-122207026D01*
X145955640Y-122311728D01*
X145956452Y-122435731D01*
X145957231Y-122581001D01*
X145958041Y-122749507D01*
X145958126Y-122767725D01*
X145962235Y-123647200D01*
X146710472Y-123647200D01*
X146704050Y-119233950D01*
X145961100Y-119227216D01*
X145961100Y-120895871D01*
G36*
X154952700Y-123647200D02*
G01*
X155702072Y-123647200D01*
X155695650Y-119233950D01*
X154952700Y-119227216D01*
X154952700Y-123647200D01*
X154952700Y-123647200D01*
G37*
X154952700Y-123647200D02*
X155702072Y-123647200D01*
X155695650Y-119233950D01*
X154952700Y-119227216D01*
X154952700Y-123647200D01*
G36*
X135826500Y-121856500D02*
G01*
X137807700Y-121856500D01*
X137807700Y-122758200D01*
X135610600Y-122758200D01*
X135610600Y-123685300D01*
X137388600Y-123685300D01*
X137598934Y-123685226D01*
X137802186Y-123685009D01*
X137996920Y-123684660D01*
X138181698Y-123684185D01*
X138355083Y-123683593D01*
X138515640Y-123682894D01*
X138661929Y-123682095D01*
X138792516Y-123681205D01*
X138905961Y-123680232D01*
X139000830Y-123679186D01*
X139075684Y-123678074D01*
X139129086Y-123676905D01*
X139159600Y-123675687D01*
X139166600Y-123674751D01*
X139159605Y-123663122D01*
X139139186Y-123631749D01*
X139106196Y-123581897D01*
X139061484Y-123514830D01*
X139005903Y-123431814D01*
X138940303Y-123334114D01*
X138865536Y-123222994D01*
X138782453Y-123099720D01*
X138691905Y-122965556D01*
X138594744Y-122821768D01*
X138491820Y-122669621D01*
X138383984Y-122510380D01*
X138272089Y-122345309D01*
X138267183Y-122338076D01*
X137367766Y-121011950D01*
X136597133Y-121008676D01*
X135826500Y-121005403D01*
X135826500Y-121856500D01*
X135826500Y-121856500D01*
G37*
X135826500Y-121856500D02*
X137807700Y-121856500D01*
X137807700Y-122758200D01*
X135610600Y-122758200D01*
X135610600Y-123685300D01*
X137388600Y-123685300D01*
X137598934Y-123685226D01*
X137802186Y-123685009D01*
X137996920Y-123684660D01*
X138181698Y-123684185D01*
X138355083Y-123683593D01*
X138515640Y-123682894D01*
X138661929Y-123682095D01*
X138792516Y-123681205D01*
X138905961Y-123680232D01*
X139000830Y-123679186D01*
X139075684Y-123678074D01*
X139129086Y-123676905D01*
X139159600Y-123675687D01*
X139166600Y-123674751D01*
X139159605Y-123663122D01*
X139139186Y-123631749D01*
X139106196Y-123581897D01*
X139061484Y-123514830D01*
X139005903Y-123431814D01*
X138940303Y-123334114D01*
X138865536Y-123222994D01*
X138782453Y-123099720D01*
X138691905Y-122965556D01*
X138594744Y-122821768D01*
X138491820Y-122669621D01*
X138383984Y-122510380D01*
X138272089Y-122345309D01*
X138267183Y-122338076D01*
X137367766Y-121011950D01*
X136597133Y-121008676D01*
X135826500Y-121005403D01*
X135826500Y-121856500D01*
G36*
X153728604Y-119214516D02*
G01*
X153726911Y-119249928D01*
X153725360Y-119306135D01*
X153723983Y-119380832D01*
X153722813Y-119471716D01*
X153721880Y-119576484D01*
X153721218Y-119692833D01*
X153720858Y-119818461D01*
X153720800Y-119894350D01*
X153720800Y-120586500D01*
X153073100Y-120586500D01*
X153073100Y-121132600D01*
X153397294Y-121132600D01*
X153721488Y-121132599D01*
X153717969Y-121986675D01*
X153714450Y-122840750D01*
X153684974Y-122900596D01*
X153653810Y-122948898D01*
X153612263Y-122985764D01*
X153558240Y-123011574D01*
X153489649Y-123026712D01*
X153404397Y-123031560D01*
X153300392Y-123026500D01*
X153175542Y-123011915D01*
X153120725Y-123003724D01*
X153073100Y-122996253D01*
X153073100Y-123301821D01*
X153073230Y-123398104D01*
X153073761Y-123472012D01*
X153074910Y-123526568D01*
X153076890Y-123564799D01*
X153079918Y-123589726D01*
X153084208Y-123604375D01*
X153089975Y-123611770D01*
X153095325Y-123614351D01*
X153160628Y-123630527D01*
X153245405Y-123645168D01*
X153343754Y-123657823D01*
X153449770Y-123668041D01*
X153557552Y-123675372D01*
X153661197Y-123679365D01*
X153754801Y-123679569D01*
X153832463Y-123675534D01*
X153858051Y-123672589D01*
X153995820Y-123644042D01*
X154117265Y-123600052D01*
X154220945Y-123541489D01*
X154305413Y-123469225D01*
X154369226Y-123384130D01*
X154384756Y-123354937D01*
X154396048Y-123332125D01*
X154406205Y-123311792D01*
X154415290Y-123292550D01*
X154423365Y-123273009D01*
X154430494Y-123251779D01*
X154436739Y-123227471D01*
X154442163Y-123198694D01*
X154446828Y-123164059D01*
X154450798Y-123122175D01*
X154454135Y-123071654D01*
X154456902Y-123011106D01*
X154459162Y-122939141D01*
X154460978Y-122854368D01*
X154462412Y-122755399D01*
X154463527Y-122640843D01*
X154464386Y-122509311D01*
X154465053Y-122359413D01*
X154465589Y-122189759D01*
X154466057Y-121998960D01*
X154466520Y-121785626D01*
X154467042Y-121548366D01*
X154467077Y-121533062D01*
X154470764Y-119933275D01*
X154105389Y-119567737D01*
X154026023Y-119488564D01*
X153952127Y-119415287D01*
X153885644Y-119349801D01*
X153828516Y-119293999D01*
X153782686Y-119249774D01*
X153750096Y-119219020D01*
X153732688Y-119203630D01*
X153730408Y-119202200D01*
X153728604Y-119214516D01*
X153728604Y-119214516D01*
G37*
X153728604Y-119214516D02*
X153726911Y-119249928D01*
X153725360Y-119306135D01*
X153723983Y-119380832D01*
X153722813Y-119471716D01*
X153721880Y-119576484D01*
X153721218Y-119692833D01*
X153720858Y-119818461D01*
X153720800Y-119894350D01*
X153720800Y-120586500D01*
X153073100Y-120586500D01*
X153073100Y-121132600D01*
X153397294Y-121132600D01*
X153721488Y-121132599D01*
X153717969Y-121986675D01*
X153714450Y-122840750D01*
X153684974Y-122900596D01*
X153653810Y-122948898D01*
X153612263Y-122985764D01*
X153558240Y-123011574D01*
X153489649Y-123026712D01*
X153404397Y-123031560D01*
X153300392Y-123026500D01*
X153175542Y-123011915D01*
X153120725Y-123003724D01*
X153073100Y-122996253D01*
X153073100Y-123301821D01*
X153073230Y-123398104D01*
X153073761Y-123472012D01*
X153074910Y-123526568D01*
X153076890Y-123564799D01*
X153079918Y-123589726D01*
X153084208Y-123604375D01*
X153089975Y-123611770D01*
X153095325Y-123614351D01*
X153160628Y-123630527D01*
X153245405Y-123645168D01*
X153343754Y-123657823D01*
X153449770Y-123668041D01*
X153557552Y-123675372D01*
X153661197Y-123679365D01*
X153754801Y-123679569D01*
X153832463Y-123675534D01*
X153858051Y-123672589D01*
X153995820Y-123644042D01*
X154117265Y-123600052D01*
X154220945Y-123541489D01*
X154305413Y-123469225D01*
X154369226Y-123384130D01*
X154384756Y-123354937D01*
X154396048Y-123332125D01*
X154406205Y-123311792D01*
X154415290Y-123292550D01*
X154423365Y-123273009D01*
X154430494Y-123251779D01*
X154436739Y-123227471D01*
X154442163Y-123198694D01*
X154446828Y-123164059D01*
X154450798Y-123122175D01*
X154454135Y-123071654D01*
X154456902Y-123011106D01*
X154459162Y-122939141D01*
X154460978Y-122854368D01*
X154462412Y-122755399D01*
X154463527Y-122640843D01*
X154464386Y-122509311D01*
X154465053Y-122359413D01*
X154465589Y-122189759D01*
X154466057Y-121998960D01*
X154466520Y-121785626D01*
X154467042Y-121548366D01*
X154467077Y-121533062D01*
X154470764Y-119933275D01*
X154105389Y-119567737D01*
X154026023Y-119488564D01*
X153952127Y-119415287D01*
X153885644Y-119349801D01*
X153828516Y-119293999D01*
X153782686Y-119249774D01*
X153750096Y-119219020D01*
X153732688Y-119203630D01*
X153730408Y-119202200D01*
X153728604Y-119214516D01*
G36*
X148145500Y-120526590D02*
G01*
X148051348Y-120531012D01*
X147975156Y-120537463D01*
X147909513Y-120546839D01*
X147847004Y-120560034D01*
X147827358Y-120564974D01*
X147655362Y-120619997D01*
X147501713Y-120691546D01*
X147364441Y-120780901D01*
X147241575Y-120889343D01*
X147131896Y-121017158D01*
X147101149Y-121060978D01*
X147067029Y-121114486D01*
X147031992Y-121173204D01*
X146998494Y-121232653D01*
X146968988Y-121288354D01*
X146945931Y-121335828D01*
X146931776Y-121370597D01*
X146928789Y-121387715D01*
X146940453Y-121394961D01*
X146971574Y-121411152D01*
X147018552Y-121434579D01*
X147077788Y-121463532D01*
X147145682Y-121496303D01*
X147218632Y-121531181D01*
X147293040Y-121566459D01*
X147365306Y-121600427D01*
X147431828Y-121631375D01*
X147489008Y-121657595D01*
X147533245Y-121677377D01*
X147560939Y-121689012D01*
X147568448Y-121691400D01*
X147574731Y-121680786D01*
X147589116Y-121652490D01*
X147608926Y-121611829D01*
X147616963Y-121594995D01*
X147680344Y-121488746D01*
X147762065Y-121394946D01*
X147858126Y-121316976D01*
X147964528Y-121258217D01*
X148050778Y-121228246D01*
X148155041Y-121211741D01*
X148269576Y-121211793D01*
X148386305Y-121227397D01*
X148497149Y-121257548D01*
X148581422Y-121294247D01*
X148656606Y-121344552D01*
X148732092Y-121412908D01*
X148801805Y-121492779D01*
X148859673Y-121577627D01*
X148880352Y-121615937D01*
X148920051Y-121702568D01*
X148949114Y-121781905D01*
X148968972Y-121860787D01*
X148981057Y-121946055D01*
X148986798Y-122044550D01*
X148987805Y-122129550D01*
X148987044Y-122214940D01*
X148984677Y-122281142D01*
X148980145Y-122334345D01*
X148972887Y-122380741D01*
X148962345Y-122426520D01*
X148960277Y-122434350D01*
X148911759Y-122576757D01*
X148847643Y-122701879D01*
X148768961Y-122808532D01*
X148676748Y-122895535D01*
X148572037Y-122961704D01*
X148462458Y-123004042D01*
X148328478Y-123029100D01*
X148192484Y-123030553D01*
X148059355Y-123008588D01*
X147987110Y-122985843D01*
X147887039Y-122935315D01*
X147792008Y-122861134D01*
X147703452Y-122764791D01*
X147622806Y-122647775D01*
X147572122Y-122554955D01*
X147516850Y-122443523D01*
X147205700Y-122608742D01*
X147124473Y-122651930D01*
X147050833Y-122691193D01*
X146987687Y-122724972D01*
X146937945Y-122751707D01*
X146904516Y-122769838D01*
X146890307Y-122777807D01*
X146890045Y-122777994D01*
X146893813Y-122790107D01*
X146907396Y-122820134D01*
X146928659Y-122863573D01*
X146955465Y-122915924D01*
X146955936Y-122916827D01*
X147059345Y-123092889D01*
X147174098Y-123246342D01*
X147300734Y-123377561D01*
X147439788Y-123486923D01*
X147591799Y-123574804D01*
X147757304Y-123641579D01*
X147936839Y-123687626D01*
X148087827Y-123709482D01*
X148177714Y-123717402D01*
X148253125Y-123720901D01*
X148324600Y-123719975D01*
X148402675Y-123714622D01*
X148456477Y-123709345D01*
X148650601Y-123677076D01*
X148832522Y-123622934D01*
X149001344Y-123547793D01*
X149156172Y-123452525D01*
X149296109Y-123338004D01*
X149420261Y-123205101D01*
X149527729Y-123054689D01*
X149617620Y-122887642D01*
X149689036Y-122704831D01*
X149741082Y-122507130D01*
X149752440Y-122447050D01*
X149763390Y-122362730D01*
X149770743Y-122262073D01*
X149774401Y-122152996D01*
X149774268Y-122043415D01*
X149770250Y-121941247D01*
X149762248Y-121854409D01*
X149759836Y-121837450D01*
X149717321Y-121633448D01*
X149655204Y-121443663D01*
X149573946Y-121269059D01*
X149474009Y-121110600D01*
X149355854Y-120969253D01*
X149334442Y-120947445D01*
X149251122Y-120869689D01*
X149168557Y-120804591D01*
X149078987Y-120746777D01*
X148974653Y-120690873D01*
X148938836Y-120673442D01*
X148783823Y-120609575D01*
X148623012Y-120564063D01*
X148452498Y-120536183D01*
X148268376Y-120525211D01*
X148145500Y-120526590D01*
X148145500Y-120526590D01*
G37*
X148145500Y-120526590D02*
X148051348Y-120531012D01*
X147975156Y-120537463D01*
X147909513Y-120546839D01*
X147847004Y-120560034D01*
X147827358Y-120564974D01*
X147655362Y-120619997D01*
X147501713Y-120691546D01*
X147364441Y-120780901D01*
X147241575Y-120889343D01*
X147131896Y-121017158D01*
X147101149Y-121060978D01*
X147067029Y-121114486D01*
X147031992Y-121173204D01*
X146998494Y-121232653D01*
X146968988Y-121288354D01*
X146945931Y-121335828D01*
X146931776Y-121370597D01*
X146928789Y-121387715D01*
X146940453Y-121394961D01*
X146971574Y-121411152D01*
X147018552Y-121434579D01*
X147077788Y-121463532D01*
X147145682Y-121496303D01*
X147218632Y-121531181D01*
X147293040Y-121566459D01*
X147365306Y-121600427D01*
X147431828Y-121631375D01*
X147489008Y-121657595D01*
X147533245Y-121677377D01*
X147560939Y-121689012D01*
X147568448Y-121691400D01*
X147574731Y-121680786D01*
X147589116Y-121652490D01*
X147608926Y-121611829D01*
X147616963Y-121594995D01*
X147680344Y-121488746D01*
X147762065Y-121394946D01*
X147858126Y-121316976D01*
X147964528Y-121258217D01*
X148050778Y-121228246D01*
X148155041Y-121211741D01*
X148269576Y-121211793D01*
X148386305Y-121227397D01*
X148497149Y-121257548D01*
X148581422Y-121294247D01*
X148656606Y-121344552D01*
X148732092Y-121412908D01*
X148801805Y-121492779D01*
X148859673Y-121577627D01*
X148880352Y-121615937D01*
X148920051Y-121702568D01*
X148949114Y-121781905D01*
X148968972Y-121860787D01*
X148981057Y-121946055D01*
X148986798Y-122044550D01*
X148987805Y-122129550D01*
X148987044Y-122214940D01*
X148984677Y-122281142D01*
X148980145Y-122334345D01*
X148972887Y-122380741D01*
X148962345Y-122426520D01*
X148960277Y-122434350D01*
X148911759Y-122576757D01*
X148847643Y-122701879D01*
X148768961Y-122808532D01*
X148676748Y-122895535D01*
X148572037Y-122961704D01*
X148462458Y-123004042D01*
X148328478Y-123029100D01*
X148192484Y-123030553D01*
X148059355Y-123008588D01*
X147987110Y-122985843D01*
X147887039Y-122935315D01*
X147792008Y-122861134D01*
X147703452Y-122764791D01*
X147622806Y-122647775D01*
X147572122Y-122554955D01*
X147516850Y-122443523D01*
X147205700Y-122608742D01*
X147124473Y-122651930D01*
X147050833Y-122691193D01*
X146987687Y-122724972D01*
X146937945Y-122751707D01*
X146904516Y-122769838D01*
X146890307Y-122777807D01*
X146890045Y-122777994D01*
X146893813Y-122790107D01*
X146907396Y-122820134D01*
X146928659Y-122863573D01*
X146955465Y-122915924D01*
X146955936Y-122916827D01*
X147059345Y-123092889D01*
X147174098Y-123246342D01*
X147300734Y-123377561D01*
X147439788Y-123486923D01*
X147591799Y-123574804D01*
X147757304Y-123641579D01*
X147936839Y-123687626D01*
X148087827Y-123709482D01*
X148177714Y-123717402D01*
X148253125Y-123720901D01*
X148324600Y-123719975D01*
X148402675Y-123714622D01*
X148456477Y-123709345D01*
X148650601Y-123677076D01*
X148832522Y-123622934D01*
X149001344Y-123547793D01*
X149156172Y-123452525D01*
X149296109Y-123338004D01*
X149420261Y-123205101D01*
X149527729Y-123054689D01*
X149617620Y-122887642D01*
X149689036Y-122704831D01*
X149741082Y-122507130D01*
X149752440Y-122447050D01*
X149763390Y-122362730D01*
X149770743Y-122262073D01*
X149774401Y-122152996D01*
X149774268Y-122043415D01*
X149770250Y-121941247D01*
X149762248Y-121854409D01*
X149759836Y-121837450D01*
X149717321Y-121633448D01*
X149655204Y-121443663D01*
X149573946Y-121269059D01*
X149474009Y-121110600D01*
X149355854Y-120969253D01*
X149334442Y-120947445D01*
X149251122Y-120869689D01*
X149168557Y-120804591D01*
X149078987Y-120746777D01*
X148974653Y-120690873D01*
X148938836Y-120673442D01*
X148783823Y-120609575D01*
X148623012Y-120564063D01*
X148452498Y-120536183D01*
X148268376Y-120525211D01*
X148145500Y-120526590D01*
G36*
X151462301Y-120525767D02*
G01*
X151361805Y-120528955D01*
X151265187Y-120534833D01*
X151179328Y-120543172D01*
X151111107Y-120553743D01*
X151104600Y-120555113D01*
X150922497Y-120606237D01*
X150757064Y-120676402D01*
X150608280Y-120765640D01*
X150476124Y-120873981D01*
X150360575Y-121001457D01*
X150261610Y-121148098D01*
X150179208Y-121313935D01*
X150113348Y-121499000D01*
X150064008Y-121703323D01*
X150031166Y-121926936D01*
X150016744Y-122120025D01*
X150008446Y-122301000D01*
X152262684Y-122301000D01*
X152253627Y-122367675D01*
X152222968Y-122503290D01*
X152170211Y-122627802D01*
X152096905Y-122739379D01*
X152004597Y-122836193D01*
X151894836Y-122916411D01*
X151769170Y-122978203D01*
X151723275Y-122994632D01*
X151673851Y-123009668D01*
X151630282Y-123019561D01*
X151584652Y-123025332D01*
X151529042Y-123028005D01*
X151460200Y-123028605D01*
X151291471Y-123017777D01*
X151134451Y-122985795D01*
X150990257Y-122933154D01*
X150860009Y-122860345D01*
X150744824Y-122767863D01*
X150660993Y-122675924D01*
X150626899Y-122636856D01*
X150600656Y-122614977D01*
X150587078Y-122611610D01*
X150571772Y-122619577D01*
X150537569Y-122638606D01*
X150487515Y-122666962D01*
X150424654Y-122702912D01*
X150352031Y-122744720D01*
X150272691Y-122790653D01*
X150271392Y-122791407D01*
X149973364Y-122964429D01*
X149994817Y-122997839D01*
X150098795Y-123137475D01*
X150223788Y-123266935D01*
X150366643Y-123383851D01*
X150524203Y-123485855D01*
X150693315Y-123570577D01*
X150824816Y-123621014D01*
X150952961Y-123656811D01*
X151097951Y-123685200D01*
X151252105Y-123705374D01*
X151407742Y-123716528D01*
X151557179Y-123717853D01*
X151675989Y-123710403D01*
X151877355Y-123677540D01*
X152069456Y-123622120D01*
X152250364Y-123544812D01*
X152400000Y-123458404D01*
X152464896Y-123410010D01*
X152537428Y-123346504D01*
X152611422Y-123274091D01*
X152680703Y-123198975D01*
X152739094Y-123127359D01*
X152763058Y-123093633D01*
X152859830Y-122928248D01*
X152935040Y-122754610D01*
X152989245Y-122570736D01*
X153023003Y-122374644D01*
X153036869Y-122164351D01*
X153037306Y-122116850D01*
X153035674Y-122005263D01*
X153030154Y-121909912D01*
X153019708Y-121821796D01*
X153003302Y-121731911D01*
X152999819Y-121716800D01*
X152259174Y-121716800D01*
X150796456Y-121716800D01*
X150803539Y-121663992D01*
X150817587Y-121609833D01*
X150844767Y-121544448D01*
X150881151Y-121475426D01*
X150922811Y-121410358D01*
X150958116Y-121365320D01*
X151042056Y-121286389D01*
X151141811Y-121219458D01*
X151248544Y-121170407D01*
X151253619Y-121168629D01*
X151296964Y-121155135D01*
X151338230Y-121146448D01*
X151384991Y-121141649D01*
X151444825Y-121139823D01*
X151491950Y-121139782D01*
X151561675Y-121140859D01*
X151614285Y-121144026D01*
X151658051Y-121150515D01*
X151701245Y-121161559D01*
X151752138Y-121178389D01*
X151752861Y-121178643D01*
X151813123Y-121202486D01*
X151874428Y-121231182D01*
X151925249Y-121259252D01*
X151933254Y-121264384D01*
X152030130Y-121342474D01*
X152116792Y-121439440D01*
X152188727Y-121549404D01*
X152240895Y-121664993D01*
X152259174Y-121716800D01*
X152999819Y-121716800D01*
X152982716Y-121642605D01*
X152924060Y-121454561D01*
X152845023Y-121281116D01*
X152746586Y-121123130D01*
X152629733Y-120981465D01*
X152495445Y-120856982D01*
X152344706Y-120750542D01*
X152178497Y-120663005D01*
X151997802Y-120595232D01*
X151803603Y-120548084D01*
X151718257Y-120534641D01*
X151647407Y-120528381D01*
X151559795Y-120525499D01*
X151462301Y-120525767D01*
X151462301Y-120525767D01*
G37*
X151462301Y-120525767D02*
X151361805Y-120528955D01*
X151265187Y-120534833D01*
X151179328Y-120543172D01*
X151111107Y-120553743D01*
X151104600Y-120555113D01*
X150922497Y-120606237D01*
X150757064Y-120676402D01*
X150608280Y-120765640D01*
X150476124Y-120873981D01*
X150360575Y-121001457D01*
X150261610Y-121148098D01*
X150179208Y-121313935D01*
X150113348Y-121499000D01*
X150064008Y-121703323D01*
X150031166Y-121926936D01*
X150016744Y-122120025D01*
X150008446Y-122301000D01*
X152262684Y-122301000D01*
X152253627Y-122367675D01*
X152222968Y-122503290D01*
X152170211Y-122627802D01*
X152096905Y-122739379D01*
X152004597Y-122836193D01*
X151894836Y-122916411D01*
X151769170Y-122978203D01*
X151723275Y-122994632D01*
X151673851Y-123009668D01*
X151630282Y-123019561D01*
X151584652Y-123025332D01*
X151529042Y-123028005D01*
X151460200Y-123028605D01*
X151291471Y-123017777D01*
X151134451Y-122985795D01*
X150990257Y-122933154D01*
X150860009Y-122860345D01*
X150744824Y-122767863D01*
X150660993Y-122675924D01*
X150626899Y-122636856D01*
X150600656Y-122614977D01*
X150587078Y-122611610D01*
X150571772Y-122619577D01*
X150537569Y-122638606D01*
X150487515Y-122666962D01*
X150424654Y-122702912D01*
X150352031Y-122744720D01*
X150272691Y-122790653D01*
X150271392Y-122791407D01*
X149973364Y-122964429D01*
X149994817Y-122997839D01*
X150098795Y-123137475D01*
X150223788Y-123266935D01*
X150366643Y-123383851D01*
X150524203Y-123485855D01*
X150693315Y-123570577D01*
X150824816Y-123621014D01*
X150952961Y-123656811D01*
X151097951Y-123685200D01*
X151252105Y-123705374D01*
X151407742Y-123716528D01*
X151557179Y-123717853D01*
X151675989Y-123710403D01*
X151877355Y-123677540D01*
X152069456Y-123622120D01*
X152250364Y-123544812D01*
X152400000Y-123458404D01*
X152464896Y-123410010D01*
X152537428Y-123346504D01*
X152611422Y-123274091D01*
X152680703Y-123198975D01*
X152739094Y-123127359D01*
X152763058Y-123093633D01*
X152859830Y-122928248D01*
X152935040Y-122754610D01*
X152989245Y-122570736D01*
X153023003Y-122374644D01*
X153036869Y-122164351D01*
X153037306Y-122116850D01*
X153035674Y-122005263D01*
X153030154Y-121909912D01*
X153019708Y-121821796D01*
X153003302Y-121731911D01*
X152999819Y-121716800D01*
X152259174Y-121716800D01*
X150796456Y-121716800D01*
X150803539Y-121663992D01*
X150817587Y-121609833D01*
X150844767Y-121544448D01*
X150881151Y-121475426D01*
X150922811Y-121410358D01*
X150958116Y-121365320D01*
X151042056Y-121286389D01*
X151141811Y-121219458D01*
X151248544Y-121170407D01*
X151253619Y-121168629D01*
X151296964Y-121155135D01*
X151338230Y-121146448D01*
X151384991Y-121141649D01*
X151444825Y-121139823D01*
X151491950Y-121139782D01*
X151561675Y-121140859D01*
X151614285Y-121144026D01*
X151658051Y-121150515D01*
X151701245Y-121161559D01*
X151752138Y-121178389D01*
X151752861Y-121178643D01*
X151813123Y-121202486D01*
X151874428Y-121231182D01*
X151925249Y-121259252D01*
X151933254Y-121264384D01*
X152030130Y-121342474D01*
X152116792Y-121439440D01*
X152188727Y-121549404D01*
X152240895Y-121664993D01*
X152259174Y-121716800D01*
X152999819Y-121716800D01*
X152982716Y-121642605D01*
X152924060Y-121454561D01*
X152845023Y-121281116D01*
X152746586Y-121123130D01*
X152629733Y-120981465D01*
X152495445Y-120856982D01*
X152344706Y-120750542D01*
X152178497Y-120663005D01*
X151997802Y-120595232D01*
X151803603Y-120548084D01*
X151718257Y-120534641D01*
X151647407Y-120528381D01*
X151559795Y-120525499D01*
X151462301Y-120525767D01*
G36*
X157404656Y-120526665D02*
G01*
X157251081Y-120533479D01*
X157118044Y-120545200D01*
X157000990Y-120562781D01*
X156895367Y-120587179D01*
X156796621Y-120619349D01*
X156700199Y-120660245D01*
X156650126Y-120684938D01*
X156532024Y-120759370D01*
X156431522Y-120852097D01*
X156348681Y-120963041D01*
X156283558Y-121092128D01*
X156245158Y-121205158D01*
X156240178Y-121223616D01*
X156235819Y-121242064D01*
X156232023Y-121262293D01*
X156228736Y-121286092D01*
X156225899Y-121315253D01*
X156223457Y-121351568D01*
X156221354Y-121396825D01*
X156219533Y-121452818D01*
X156217937Y-121521336D01*
X156216511Y-121604170D01*
X156215197Y-121703111D01*
X156213941Y-121819950D01*
X156212684Y-121956477D01*
X156211371Y-122114485D01*
X156209946Y-122295762D01*
X156209659Y-122332750D01*
X156208162Y-122525434D01*
X156206764Y-122694493D01*
X156205350Y-122841701D01*
X156203801Y-122968832D01*
X156202003Y-123077660D01*
X156199837Y-123169959D01*
X156197187Y-123247503D01*
X156193936Y-123312066D01*
X156189969Y-123365422D01*
X156185167Y-123409345D01*
X156179414Y-123445609D01*
X156172594Y-123475988D01*
X156164589Y-123502256D01*
X156155283Y-123526187D01*
X156144560Y-123549555D01*
X156132302Y-123574134D01*
X156127327Y-123583943D01*
X156095273Y-123647200D01*
X156882448Y-123647200D01*
X156902717Y-123608004D01*
X156913837Y-123579458D01*
X156927338Y-123535247D01*
X156940846Y-123484494D01*
X156951988Y-123436321D01*
X156958391Y-123399851D01*
X156959080Y-123391326D01*
X156968902Y-123394372D01*
X156995195Y-123409176D01*
X157033496Y-123433113D01*
X157063096Y-123452576D01*
X157235137Y-123554027D01*
X157411203Y-123630629D01*
X157592129Y-123682732D01*
X157629653Y-123690373D01*
X157682504Y-123698467D01*
X157748532Y-123705746D01*
X157821325Y-123711819D01*
X157894470Y-123716290D01*
X157961552Y-123718767D01*
X158016160Y-123718858D01*
X158051500Y-123716233D01*
X158080074Y-123711490D01*
X158124039Y-123704304D01*
X158172150Y-123696511D01*
X158327817Y-123659566D01*
X158470070Y-123601994D01*
X158597579Y-123525342D01*
X158709013Y-123431162D01*
X158803042Y-123321002D01*
X158878336Y-123196414D01*
X158933564Y-123058947D01*
X158967396Y-122910151D01*
X158978512Y-122757056D01*
X158975854Y-122720043D01*
X158201727Y-122720043D01*
X158191663Y-122801191D01*
X158162225Y-122878851D01*
X158114495Y-122949870D01*
X158049555Y-123011093D01*
X157968487Y-123059366D01*
X157899998Y-123084543D01*
X157848472Y-123093437D01*
X157779058Y-123097496D01*
X157698740Y-123097028D01*
X157614504Y-123092343D01*
X157533335Y-123083748D01*
X157462217Y-123071552D01*
X157431377Y-123063846D01*
X157309615Y-123019212D01*
X157201586Y-122960508D01*
X157110232Y-122889900D01*
X157038491Y-122809552D01*
X157000553Y-122746720D01*
X156989006Y-122722456D01*
X156980274Y-122700356D01*
X156973897Y-122676392D01*
X156969418Y-122646536D01*
X156966378Y-122606759D01*
X156964318Y-122553033D01*
X156962780Y-122481329D01*
X156961554Y-122404062D01*
X156960304Y-122314504D01*
X156959772Y-122247302D01*
X156960178Y-122199414D01*
X156961744Y-122167800D01*
X156964689Y-122149421D01*
X156969235Y-122141236D01*
X156975603Y-122140205D01*
X156980604Y-122141841D01*
X157027378Y-122159651D01*
X157078278Y-122176540D01*
X157137016Y-122193474D01*
X157207304Y-122211423D01*
X157292854Y-122231353D01*
X157397376Y-122254232D01*
X157473650Y-122270389D01*
X157604877Y-122298238D01*
X157713829Y-122322265D01*
X157803184Y-122343390D01*
X157875620Y-122362533D01*
X157933815Y-122380614D01*
X157980448Y-122398553D01*
X158018196Y-122417270D01*
X158049738Y-122437686D01*
X158077752Y-122460719D01*
X158104855Y-122487227D01*
X158159405Y-122559907D01*
X158191335Y-122638564D01*
X158201727Y-122720043D01*
X158975854Y-122720043D01*
X158967378Y-122602040D01*
X158933856Y-122458939D01*
X158878079Y-122327927D01*
X158800184Y-122209180D01*
X158700305Y-122102874D01*
X158578578Y-122009183D01*
X158435137Y-121928283D01*
X158293017Y-121868525D01*
X158253816Y-121856395D01*
X158192187Y-121840204D01*
X158110675Y-121820534D01*
X158011825Y-121797970D01*
X157898181Y-121773093D01*
X157772288Y-121746487D01*
X157659562Y-121723357D01*
X157543334Y-121699598D01*
X157431757Y-121676378D01*
X157327981Y-121654381D01*
X157235154Y-121634292D01*
X157156422Y-121616796D01*
X157094934Y-121602577D01*
X157053837Y-121592320D01*
X157043093Y-121589260D01*
X156956219Y-121562427D01*
X156961728Y-121457469D01*
X156973828Y-121366783D01*
X157001212Y-121293343D01*
X157046303Y-121233961D01*
X157111529Y-121185449D01*
X157199314Y-121144620D01*
X157200032Y-121144347D01*
X157282074Y-121121337D01*
X157381094Y-121106399D01*
X157489990Y-121099528D01*
X157601657Y-121100721D01*
X157708993Y-121109971D01*
X157804895Y-121127274D01*
X157863101Y-121144800D01*
X157934755Y-121183608D01*
X157997898Y-121240309D01*
X158044056Y-121307183D01*
X158055798Y-121339662D01*
X158067901Y-121387901D01*
X158078041Y-121442402D01*
X158079435Y-121451834D01*
X158094060Y-121555253D01*
X158298205Y-121547035D01*
X158384949Y-121543434D01*
X158479125Y-121539346D01*
X158570573Y-121535221D01*
X158649131Y-121531512D01*
X158664275Y-121530767D01*
X158826200Y-121522718D01*
X158826200Y-121443990D01*
X158815810Y-121334645D01*
X158786373Y-121218914D01*
X158740497Y-121103693D01*
X158680785Y-120995880D01*
X158630930Y-120927009D01*
X158541043Y-120835107D01*
X158429842Y-120752499D01*
X158300119Y-120680474D01*
X158154662Y-120620317D01*
X157996265Y-120573314D01*
X157827716Y-120540753D01*
X157779306Y-120534425D01*
X157706128Y-120528523D01*
X157612769Y-120525287D01*
X157504316Y-120524821D01*
X157404656Y-120526665D01*
X157404656Y-120526665D01*
G37*
X157404656Y-120526665D02*
X157251081Y-120533479D01*
X157118044Y-120545200D01*
X157000990Y-120562781D01*
X156895367Y-120587179D01*
X156796621Y-120619349D01*
X156700199Y-120660245D01*
X156650126Y-120684938D01*
X156532024Y-120759370D01*
X156431522Y-120852097D01*
X156348681Y-120963041D01*
X156283558Y-121092128D01*
X156245158Y-121205158D01*
X156240178Y-121223616D01*
X156235819Y-121242064D01*
X156232023Y-121262293D01*
X156228736Y-121286092D01*
X156225899Y-121315253D01*
X156223457Y-121351568D01*
X156221354Y-121396825D01*
X156219533Y-121452818D01*
X156217937Y-121521336D01*
X156216511Y-121604170D01*
X156215197Y-121703111D01*
X156213941Y-121819950D01*
X156212684Y-121956477D01*
X156211371Y-122114485D01*
X156209946Y-122295762D01*
X156209659Y-122332750D01*
X156208162Y-122525434D01*
X156206764Y-122694493D01*
X156205350Y-122841701D01*
X156203801Y-122968832D01*
X156202003Y-123077660D01*
X156199837Y-123169959D01*
X156197187Y-123247503D01*
X156193936Y-123312066D01*
X156189969Y-123365422D01*
X156185167Y-123409345D01*
X156179414Y-123445609D01*
X156172594Y-123475988D01*
X156164589Y-123502256D01*
X156155283Y-123526187D01*
X156144560Y-123549555D01*
X156132302Y-123574134D01*
X156127327Y-123583943D01*
X156095273Y-123647200D01*
X156882448Y-123647200D01*
X156902717Y-123608004D01*
X156913837Y-123579458D01*
X156927338Y-123535247D01*
X156940846Y-123484494D01*
X156951988Y-123436321D01*
X156958391Y-123399851D01*
X156959080Y-123391326D01*
X156968902Y-123394372D01*
X156995195Y-123409176D01*
X157033496Y-123433113D01*
X157063096Y-123452576D01*
X157235137Y-123554027D01*
X157411203Y-123630629D01*
X157592129Y-123682732D01*
X157629653Y-123690373D01*
X157682504Y-123698467D01*
X157748532Y-123705746D01*
X157821325Y-123711819D01*
X157894470Y-123716290D01*
X157961552Y-123718767D01*
X158016160Y-123718858D01*
X158051500Y-123716233D01*
X158080074Y-123711490D01*
X158124039Y-123704304D01*
X158172150Y-123696511D01*
X158327817Y-123659566D01*
X158470070Y-123601994D01*
X158597579Y-123525342D01*
X158709013Y-123431162D01*
X158803042Y-123321002D01*
X158878336Y-123196414D01*
X158933564Y-123058947D01*
X158967396Y-122910151D01*
X158978512Y-122757056D01*
X158975854Y-122720043D01*
X158201727Y-122720043D01*
X158191663Y-122801191D01*
X158162225Y-122878851D01*
X158114495Y-122949870D01*
X158049555Y-123011093D01*
X157968487Y-123059366D01*
X157899998Y-123084543D01*
X157848472Y-123093437D01*
X157779058Y-123097496D01*
X157698740Y-123097028D01*
X157614504Y-123092343D01*
X157533335Y-123083748D01*
X157462217Y-123071552D01*
X157431377Y-123063846D01*
X157309615Y-123019212D01*
X157201586Y-122960508D01*
X157110232Y-122889900D01*
X157038491Y-122809552D01*
X157000553Y-122746720D01*
X156989006Y-122722456D01*
X156980274Y-122700356D01*
X156973897Y-122676392D01*
X156969418Y-122646536D01*
X156966378Y-122606759D01*
X156964318Y-122553033D01*
X156962780Y-122481329D01*
X156961554Y-122404062D01*
X156960304Y-122314504D01*
X156959772Y-122247302D01*
X156960178Y-122199414D01*
X156961744Y-122167800D01*
X156964689Y-122149421D01*
X156969235Y-122141236D01*
X156975603Y-122140205D01*
X156980604Y-122141841D01*
X157027378Y-122159651D01*
X157078278Y-122176540D01*
X157137016Y-122193474D01*
X157207304Y-122211423D01*
X157292854Y-122231353D01*
X157397376Y-122254232D01*
X157473650Y-122270389D01*
X157604877Y-122298238D01*
X157713829Y-122322265D01*
X157803184Y-122343390D01*
X157875620Y-122362533D01*
X157933815Y-122380614D01*
X157980448Y-122398553D01*
X158018196Y-122417270D01*
X158049738Y-122437686D01*
X158077752Y-122460719D01*
X158104855Y-122487227D01*
X158159405Y-122559907D01*
X158191335Y-122638564D01*
X158201727Y-122720043D01*
X158975854Y-122720043D01*
X158967378Y-122602040D01*
X158933856Y-122458939D01*
X158878079Y-122327927D01*
X158800184Y-122209180D01*
X158700305Y-122102874D01*
X158578578Y-122009183D01*
X158435137Y-121928283D01*
X158293017Y-121868525D01*
X158253816Y-121856395D01*
X158192187Y-121840204D01*
X158110675Y-121820534D01*
X158011825Y-121797970D01*
X157898181Y-121773093D01*
X157772288Y-121746487D01*
X157659562Y-121723357D01*
X157543334Y-121699598D01*
X157431757Y-121676378D01*
X157327981Y-121654381D01*
X157235154Y-121634292D01*
X157156422Y-121616796D01*
X157094934Y-121602577D01*
X157053837Y-121592320D01*
X157043093Y-121589260D01*
X156956219Y-121562427D01*
X156961728Y-121457469D01*
X156973828Y-121366783D01*
X157001212Y-121293343D01*
X157046303Y-121233961D01*
X157111529Y-121185449D01*
X157199314Y-121144620D01*
X157200032Y-121144347D01*
X157282074Y-121121337D01*
X157381094Y-121106399D01*
X157489990Y-121099528D01*
X157601657Y-121100721D01*
X157708993Y-121109971D01*
X157804895Y-121127274D01*
X157863101Y-121144800D01*
X157934755Y-121183608D01*
X157997898Y-121240309D01*
X158044056Y-121307183D01*
X158055798Y-121339662D01*
X158067901Y-121387901D01*
X158078041Y-121442402D01*
X158079435Y-121451834D01*
X158094060Y-121555253D01*
X158298205Y-121547035D01*
X158384949Y-121543434D01*
X158479125Y-121539346D01*
X158570573Y-121535221D01*
X158649131Y-121531512D01*
X158664275Y-121530767D01*
X158826200Y-121522718D01*
X158826200Y-121443990D01*
X158815810Y-121334645D01*
X158786373Y-121218914D01*
X158740497Y-121103693D01*
X158680785Y-120995880D01*
X158630930Y-120927009D01*
X158541043Y-120835107D01*
X158429842Y-120752499D01*
X158300119Y-120680474D01*
X158154662Y-120620317D01*
X157996265Y-120573314D01*
X157827716Y-120540753D01*
X157779306Y-120534425D01*
X157706128Y-120528523D01*
X157612769Y-120525287D01*
X157504316Y-120524821D01*
X157404656Y-120526665D01*
G36*
X160609991Y-119255813D02*
G01*
X160400641Y-119284878D01*
X160200177Y-119333660D01*
X160068295Y-119379085D01*
X159894591Y-119460434D01*
X159732010Y-119563503D01*
X159582796Y-119686213D01*
X159449193Y-119826486D01*
X159333444Y-119982243D01*
X159240638Y-120145569D01*
X159212251Y-120207629D01*
X159182709Y-120279175D01*
X159154082Y-120354404D01*
X159128438Y-120427513D01*
X159107845Y-120492702D01*
X159094372Y-120544167D01*
X159090493Y-120566722D01*
X159086550Y-120604095D01*
X159467550Y-120702639D01*
X159561981Y-120727016D01*
X159648409Y-120749239D01*
X159723794Y-120768531D01*
X159785094Y-120784118D01*
X159829269Y-120795225D01*
X159853277Y-120801078D01*
X159856698Y-120801791D01*
X159863193Y-120790683D01*
X159872884Y-120760774D01*
X159883845Y-120718142D01*
X159885564Y-120710649D01*
X159929704Y-120569918D01*
X159994590Y-120441847D01*
X160078276Y-120327692D01*
X160178812Y-120228709D01*
X160294250Y-120146155D01*
X160422640Y-120081284D01*
X160562036Y-120035353D01*
X160710488Y-120009618D01*
X160866047Y-120005335D01*
X160966150Y-120014128D01*
X161132289Y-120047949D01*
X161285722Y-120103500D01*
X161425962Y-120180245D01*
X161552520Y-120277644D01*
X161664907Y-120395160D01*
X161762635Y-120532254D01*
X161845215Y-120688388D01*
X161912159Y-120863025D01*
X161962978Y-121055625D01*
X161976929Y-121127540D01*
X161994131Y-121257930D01*
X162003317Y-121403313D01*
X162004486Y-121554578D01*
X161997638Y-121702617D01*
X161982773Y-121838320D01*
X161976929Y-121874259D01*
X161930784Y-122077018D01*
X161867286Y-122261474D01*
X161786266Y-122428026D01*
X161687557Y-122577077D01*
X161675662Y-122592358D01*
X161572596Y-122706146D01*
X161458176Y-122799575D01*
X161327088Y-122876962D01*
X161321750Y-122879623D01*
X161227528Y-122922679D01*
X161140300Y-122953637D01*
X161052465Y-122974185D01*
X160956422Y-122986010D01*
X160844573Y-122990803D01*
X160820100Y-122991063D01*
X160722157Y-122990072D01*
X160641796Y-122984812D01*
X160571372Y-122973974D01*
X160503238Y-122956248D01*
X160429750Y-122930324D01*
X160402431Y-122919508D01*
X160281699Y-122857430D01*
X160167949Y-122772321D01*
X160062683Y-122665956D01*
X159967406Y-122540107D01*
X159883621Y-122396546D01*
X159812833Y-122237047D01*
X159804433Y-122214606D01*
X159786668Y-122170513D01*
X159772506Y-122147242D01*
X159759337Y-122140989D01*
X159754677Y-122142043D01*
X159738346Y-122149054D01*
X159701958Y-122165299D01*
X159648533Y-122189408D01*
X159581096Y-122220010D01*
X159502670Y-122255736D01*
X159416276Y-122295216D01*
X159383203Y-122310361D01*
X159279122Y-122358376D01*
X159196470Y-122397313D01*
X159133359Y-122428161D01*
X159087897Y-122451911D01*
X159058196Y-122469552D01*
X159042364Y-122482075D01*
X159038514Y-122490470D01*
X159038626Y-122490874D01*
X159053272Y-122527555D01*
X159077978Y-122581118D01*
X159110079Y-122646462D01*
X159146913Y-122718486D01*
X159185815Y-122792090D01*
X159224121Y-122862171D01*
X159259168Y-122923629D01*
X159288293Y-122971362D01*
X159294267Y-122980450D01*
X159423241Y-123152106D01*
X159565286Y-123302602D01*
X159719870Y-123431510D01*
X159886460Y-123538404D01*
X160064526Y-123622857D01*
X160122320Y-123644536D01*
X160299543Y-123696498D01*
X160490806Y-123731995D01*
X160651473Y-123748660D01*
X160716106Y-123753137D01*
X160771873Y-123756658D01*
X160813762Y-123758930D01*
X160836760Y-123759663D01*
X160839150Y-123759550D01*
X160856415Y-123757975D01*
X160893165Y-123755067D01*
X160943549Y-123751279D01*
X160987448Y-123748083D01*
X161215204Y-123720302D01*
X161431586Y-123670807D01*
X161635678Y-123600131D01*
X161826565Y-123508805D01*
X162003332Y-123397360D01*
X162165063Y-123266328D01*
X162310843Y-123116241D01*
X162439756Y-122947631D01*
X162484108Y-122878850D01*
X162591349Y-122681045D01*
X162680553Y-122466671D01*
X162751108Y-122237641D01*
X162802399Y-121995869D01*
X162827883Y-121807065D01*
X162833822Y-121724142D01*
X162836833Y-121624133D01*
X162837084Y-121513529D01*
X162834747Y-121398822D01*
X162829990Y-121286501D01*
X162822984Y-121183058D01*
X162813899Y-121094984D01*
X162808239Y-121056400D01*
X162756532Y-120814689D01*
X162685735Y-120586945D01*
X162596600Y-120374015D01*
X162489878Y-120176751D01*
X162366322Y-119996003D01*
X162226685Y-119832619D01*
X162071718Y-119687449D01*
X161902173Y-119561345D01*
X161718803Y-119455155D01*
X161522360Y-119369729D01*
X161313596Y-119305917D01*
X161245225Y-119290392D01*
X161036897Y-119258222D01*
X160823614Y-119246811D01*
X160609991Y-119255813D01*
X160609991Y-119255813D01*
G37*
X160609991Y-119255813D02*
X160400641Y-119284878D01*
X160200177Y-119333660D01*
X160068295Y-119379085D01*
X159894591Y-119460434D01*
X159732010Y-119563503D01*
X159582796Y-119686213D01*
X159449193Y-119826486D01*
X159333444Y-119982243D01*
X159240638Y-120145569D01*
X159212251Y-120207629D01*
X159182709Y-120279175D01*
X159154082Y-120354404D01*
X159128438Y-120427513D01*
X159107845Y-120492702D01*
X159094372Y-120544167D01*
X159090493Y-120566722D01*
X159086550Y-120604095D01*
X159467550Y-120702639D01*
X159561981Y-120727016D01*
X159648409Y-120749239D01*
X159723794Y-120768531D01*
X159785094Y-120784118D01*
X159829269Y-120795225D01*
X159853277Y-120801078D01*
X159856698Y-120801791D01*
X159863193Y-120790683D01*
X159872884Y-120760774D01*
X159883845Y-120718142D01*
X159885564Y-120710649D01*
X159929704Y-120569918D01*
X159994590Y-120441847D01*
X160078276Y-120327692D01*
X160178812Y-120228709D01*
X160294250Y-120146155D01*
X160422640Y-120081284D01*
X160562036Y-120035353D01*
X160710488Y-120009618D01*
X160866047Y-120005335D01*
X160966150Y-120014128D01*
X161132289Y-120047949D01*
X161285722Y-120103500D01*
X161425962Y-120180245D01*
X161552520Y-120277644D01*
X161664907Y-120395160D01*
X161762635Y-120532254D01*
X161845215Y-120688388D01*
X161912159Y-120863025D01*
X161962978Y-121055625D01*
X161976929Y-121127540D01*
X161994131Y-121257930D01*
X162003317Y-121403313D01*
X162004486Y-121554578D01*
X161997638Y-121702617D01*
X161982773Y-121838320D01*
X161976929Y-121874259D01*
X161930784Y-122077018D01*
X161867286Y-122261474D01*
X161786266Y-122428026D01*
X161687557Y-122577077D01*
X161675662Y-122592358D01*
X161572596Y-122706146D01*
X161458176Y-122799575D01*
X161327088Y-122876962D01*
X161321750Y-122879623D01*
X161227528Y-122922679D01*
X161140300Y-122953637D01*
X161052465Y-122974185D01*
X160956422Y-122986010D01*
X160844573Y-122990803D01*
X160820100Y-122991063D01*
X160722157Y-122990072D01*
X160641796Y-122984812D01*
X160571372Y-122973974D01*
X160503238Y-122956248D01*
X160429750Y-122930324D01*
X160402431Y-122919508D01*
X160281699Y-122857430D01*
X160167949Y-122772321D01*
X160062683Y-122665956D01*
X159967406Y-122540107D01*
X159883621Y-122396546D01*
X159812833Y-122237047D01*
X159804433Y-122214606D01*
X159786668Y-122170513D01*
X159772506Y-122147242D01*
X159759337Y-122140989D01*
X159754677Y-122142043D01*
X159738346Y-122149054D01*
X159701958Y-122165299D01*
X159648533Y-122189408D01*
X159581096Y-122220010D01*
X159502670Y-122255736D01*
X159416276Y-122295216D01*
X159383203Y-122310361D01*
X159279122Y-122358376D01*
X159196470Y-122397313D01*
X159133359Y-122428161D01*
X159087897Y-122451911D01*
X159058196Y-122469552D01*
X159042364Y-122482075D01*
X159038514Y-122490470D01*
X159038626Y-122490874D01*
X159053272Y-122527555D01*
X159077978Y-122581118D01*
X159110079Y-122646462D01*
X159146913Y-122718486D01*
X159185815Y-122792090D01*
X159224121Y-122862171D01*
X159259168Y-122923629D01*
X159288293Y-122971362D01*
X159294267Y-122980450D01*
X159423241Y-123152106D01*
X159565286Y-123302602D01*
X159719870Y-123431510D01*
X159886460Y-123538404D01*
X160064526Y-123622857D01*
X160122320Y-123644536D01*
X160299543Y-123696498D01*
X160490806Y-123731995D01*
X160651473Y-123748660D01*
X160716106Y-123753137D01*
X160771873Y-123756658D01*
X160813762Y-123758930D01*
X160836760Y-123759663D01*
X160839150Y-123759550D01*
X160856415Y-123757975D01*
X160893165Y-123755067D01*
X160943549Y-123751279D01*
X160987448Y-123748083D01*
X161215204Y-123720302D01*
X161431586Y-123670807D01*
X161635678Y-123600131D01*
X161826565Y-123508805D01*
X162003332Y-123397360D01*
X162165063Y-123266328D01*
X162310843Y-123116241D01*
X162439756Y-122947631D01*
X162484108Y-122878850D01*
X162591349Y-122681045D01*
X162680553Y-122466671D01*
X162751108Y-122237641D01*
X162802399Y-121995869D01*
X162827883Y-121807065D01*
X162833822Y-121724142D01*
X162836833Y-121624133D01*
X162837084Y-121513529D01*
X162834747Y-121398822D01*
X162829990Y-121286501D01*
X162822984Y-121183058D01*
X162813899Y-121094984D01*
X162808239Y-121056400D01*
X162756532Y-120814689D01*
X162685735Y-120586945D01*
X162596600Y-120374015D01*
X162489878Y-120176751D01*
X162366322Y-119996003D01*
X162226685Y-119832619D01*
X162071718Y-119687449D01*
X161902173Y-119561345D01*
X161718803Y-119455155D01*
X161522360Y-119369729D01*
X161313596Y-119305917D01*
X161245225Y-119290392D01*
X161036897Y-119258222D01*
X160823614Y-119246811D01*
X160609991Y-119255813D01*
G36*
X140324940Y-119202277D02*
G01*
X140137099Y-119202503D01*
X139957935Y-119202868D01*
X139789004Y-119203363D01*
X139631861Y-119203977D01*
X139488062Y-119204701D01*
X139359165Y-119205525D01*
X139246725Y-119206440D01*
X139152299Y-119207437D01*
X139077442Y-119208504D01*
X139023710Y-119209633D01*
X138992661Y-119210814D01*
X138985198Y-119211725D01*
X138987735Y-119225970D01*
X138997671Y-119260584D01*
X139013871Y-119312012D01*
X139035202Y-119376699D01*
X139060530Y-119451089D01*
X139073336Y-119487950D01*
X139105185Y-119579084D01*
X139138565Y-119674656D01*
X139171045Y-119767703D01*
X139200196Y-119851265D01*
X139223587Y-119918382D01*
X139225169Y-119922925D01*
X139283762Y-120091200D01*
X141020800Y-120091200D01*
X141020800Y-121018300D01*
X140315950Y-121018300D01*
X140158314Y-121018410D01*
X140024437Y-121018768D01*
X139912681Y-121019408D01*
X139821408Y-121020369D01*
X139748977Y-121021688D01*
X139693751Y-121023400D01*
X139654089Y-121025544D01*
X139628353Y-121028156D01*
X139614905Y-121031272D01*
X139611892Y-121034175D01*
X139616142Y-121049557D01*
X139627851Y-121085998D01*
X139646038Y-121140599D01*
X139669723Y-121210462D01*
X139697924Y-121292688D01*
X139729660Y-121384378D01*
X139754786Y-121456450D01*
X139896889Y-121862850D01*
X140458845Y-121866157D01*
X141020800Y-121869464D01*
X141020800Y-122758200D01*
X140074650Y-122758200D01*
X139884391Y-122758308D01*
X139718406Y-122758643D01*
X139575571Y-122759224D01*
X139454759Y-122760067D01*
X139354847Y-122761190D01*
X139274709Y-122762609D01*
X139213221Y-122764342D01*
X139169257Y-122766406D01*
X139141692Y-122768818D01*
X139129402Y-122771596D01*
X139128500Y-122772691D01*
X139133009Y-122787120D01*
X139145926Y-122822786D01*
X139166337Y-122877297D01*
X139193328Y-122948261D01*
X139225985Y-123033288D01*
X139263393Y-123129986D01*
X139304640Y-123235964D01*
X139345744Y-123341016D01*
X139394747Y-123466021D01*
X139445011Y-123594383D01*
X139494912Y-123721947D01*
X139542824Y-123844553D01*
X139587125Y-123958045D01*
X139626190Y-124058265D01*
X139658394Y-124141055D01*
X139671274Y-124174250D01*
X139712561Y-124279687D01*
X139745627Y-124361664D01*
X139770705Y-124420672D01*
X139788024Y-124457203D01*
X139797817Y-124471749D01*
X139800314Y-124464802D01*
X139796589Y-124440950D01*
X139792392Y-124417545D01*
X139785125Y-124374245D01*
X139775388Y-124314848D01*
X139763784Y-124243152D01*
X139750914Y-124162955D01*
X139737381Y-124078055D01*
X139723788Y-123992251D01*
X139710735Y-123909340D01*
X139698824Y-123833121D01*
X139688659Y-123767393D01*
X139680841Y-123715952D01*
X139675971Y-123682598D01*
X139674600Y-123671337D01*
X139687071Y-123669524D01*
X139723562Y-123667827D01*
X139782696Y-123666257D01*
X139863095Y-123664829D01*
X139963379Y-123663555D01*
X140082170Y-123662450D01*
X140218090Y-123661525D01*
X140369761Y-123660795D01*
X140535802Y-123660273D01*
X140714837Y-123659972D01*
X140862050Y-123659900D01*
X142049500Y-123659900D01*
X142049500Y-119202200D01*
X140519900Y-119202200D01*
X140324940Y-119202277D01*
X140324940Y-119202277D01*
G37*
X140324940Y-119202277D02*
X140137099Y-119202503D01*
X139957935Y-119202868D01*
X139789004Y-119203363D01*
X139631861Y-119203977D01*
X139488062Y-119204701D01*
X139359165Y-119205525D01*
X139246725Y-119206440D01*
X139152299Y-119207437D01*
X139077442Y-119208504D01*
X139023710Y-119209633D01*
X138992661Y-119210814D01*
X138985198Y-119211725D01*
X138987735Y-119225970D01*
X138997671Y-119260584D01*
X139013871Y-119312012D01*
X139035202Y-119376699D01*
X139060530Y-119451089D01*
X139073336Y-119487950D01*
X139105185Y-119579084D01*
X139138565Y-119674656D01*
X139171045Y-119767703D01*
X139200196Y-119851265D01*
X139223587Y-119918382D01*
X139225169Y-119922925D01*
X139283762Y-120091200D01*
X141020800Y-120091200D01*
X141020800Y-121018300D01*
X140315950Y-121018300D01*
X140158314Y-121018410D01*
X140024437Y-121018768D01*
X139912681Y-121019408D01*
X139821408Y-121020369D01*
X139748977Y-121021688D01*
X139693751Y-121023400D01*
X139654089Y-121025544D01*
X139628353Y-121028156D01*
X139614905Y-121031272D01*
X139611892Y-121034175D01*
X139616142Y-121049557D01*
X139627851Y-121085998D01*
X139646038Y-121140599D01*
X139669723Y-121210462D01*
X139697924Y-121292688D01*
X139729660Y-121384378D01*
X139754786Y-121456450D01*
X139896889Y-121862850D01*
X140458845Y-121866157D01*
X141020800Y-121869464D01*
X141020800Y-122758200D01*
X140074650Y-122758200D01*
X139884391Y-122758308D01*
X139718406Y-122758643D01*
X139575571Y-122759224D01*
X139454759Y-122760067D01*
X139354847Y-122761190D01*
X139274709Y-122762609D01*
X139213221Y-122764342D01*
X139169257Y-122766406D01*
X139141692Y-122768818D01*
X139129402Y-122771596D01*
X139128500Y-122772691D01*
X139133009Y-122787120D01*
X139145926Y-122822786D01*
X139166337Y-122877297D01*
X139193328Y-122948261D01*
X139225985Y-123033288D01*
X139263393Y-123129986D01*
X139304640Y-123235964D01*
X139345744Y-123341016D01*
X139394747Y-123466021D01*
X139445011Y-123594383D01*
X139494912Y-123721947D01*
X139542824Y-123844553D01*
X139587125Y-123958045D01*
X139626190Y-124058265D01*
X139658394Y-124141055D01*
X139671274Y-124174250D01*
X139712561Y-124279687D01*
X139745627Y-124361664D01*
X139770705Y-124420672D01*
X139788024Y-124457203D01*
X139797817Y-124471749D01*
X139800314Y-124464802D01*
X139796589Y-124440950D01*
X139792392Y-124417545D01*
X139785125Y-124374245D01*
X139775388Y-124314848D01*
X139763784Y-124243152D01*
X139750914Y-124162955D01*
X139737381Y-124078055D01*
X139723788Y-123992251D01*
X139710735Y-123909340D01*
X139698824Y-123833121D01*
X139688659Y-123767393D01*
X139680841Y-123715952D01*
X139675971Y-123682598D01*
X139674600Y-123671337D01*
X139687071Y-123669524D01*
X139723562Y-123667827D01*
X139782696Y-123666257D01*
X139863095Y-123664829D01*
X139963379Y-123663555D01*
X140082170Y-123662450D01*
X140218090Y-123661525D01*
X140369761Y-123660795D01*
X140535802Y-123660273D01*
X140714837Y-123659972D01*
X140862050Y-123659900D01*
X142049500Y-123659900D01*
X142049500Y-119202200D01*
X140519900Y-119202200D01*
X140324940Y-119202277D01*
M02*
