M48
; DRILL file {KiCad (5.1.2)-1} date 5/13/2019 11:07:32 AM
; FORMAT={-:-/ absolute / inch / decimal}
; #@! TF.CreationDate,2019-05-13T11:07:32-07:00
; #@! TF.GenerationSoftware,Kicad,Pcbnew,(5.1.2)-1
FMAT,2
INCH
T1C0.0315
T2C0.0374
T3C0.0394
T4C0.1260
%
G90
G05
T1
X5.3235Y-4.7465
X5.3235Y-3.8535
X5.4765Y-3.8535
X5.4765Y-4.7465
X6.2Y-4.45
X5.8516Y-4.35
X5.95Y-4.35
X5.8516Y-4.65
X5.95Y-4.65
X5.3013Y-4.43
X5.38Y-4.43
X5.3013Y-4.17
X5.38Y-4.17
T2
X5.0Y-4.1516
X5.0Y-4.25
X5.0Y-4.3484
X5.0Y-4.4469
X6.8Y-4.1531
X6.8Y-4.2516
X6.8Y-4.35
X6.8Y-4.4484
T3
X5.75Y-4.0
X5.85Y-4.0
X5.95Y-4.0
X6.05Y-4.0
X6.25Y-4.0
X6.35Y-4.0
X6.45Y-4.0
X6.4Y-4.5
X6.4004Y-4.3
T4
X5.0Y-4.8
X6.8Y-3.8
X6.8Y-4.8
X5.0Y-3.8
T0
M30
